{
.appVersion = "1342";
DisplayStrings = (
"nn/Placeholder no/Placeholder oo/space naranjo\012abcdefghinojk/space carajo/space hijo\012olmnopqrstouovowoxoyozo",
"/space noHOdx/ellipsis/nbspace",
"nn¹n²n³n/foursuperior nn1234",
"¹²³/foursuperior",
"uunnuµnntnphdlijnnnnn",
"+/minus ×÷=±¬<>/notequal ~/approxequal",
"nn/Placeholder no/Placeholder oo\012abcdennfnnnnghijkol/space formal\012mnopqrostouvowoxoyz",
"HH/trademark TOO/oe",
"D/Dcaron",
"nnfonn\012nnfann\012nnovnn\012nnownn\012nnoxnn\012nnoynn\012HHATHH\012HHFAHH\012HHGRHH\012HHILHH\012HHLTHH\012HHLVHH\012HHLYHH\012nn://nn\012nn4.nn\012nnkynn\012nn9.nn\012nn.4nn\012nn.1nn\012nnronn\012nn7.nn\012nn7/divisionslash nn\012nn////nn\012nn/divisionslash 4nn\012nn/divisionslash 7nn\012nn/divisionslash 2nn\012nny.nn"
);
copyright = "Copyright 2016-2020 The GloryTSI Project Authors (https://github.com/googlefonts/glory)";
customParameters = (
{
name = licenseURL;
value = "https://scripts.sil.org/OFL";
},
{
name = license;
value = "This Font Software is licensed under the SIL Open Font License, Version 1.1. This license is available with a FAQ at: https://scripts.sil.org/OFL";
},
{
name = vendorID;
value = GOOG;
},
{
name = Axes;
value = (
{
Name = Weight;
Tag = wght;
}
);
},
{
name = fsType;
value = (
);
},
{
name = glyphOrder;
value = (
.notdef,
CR,
space,
nbspace,
a,
b,
c,
d,
e,
f,
g,
h,
i,
j,
k,
l,
m,
n,
o,
p,
q,
r,
s,
t,
u,
v,
w,
x,
y,
z,
A,
B,
C,
D,
E,
F,
G,
H,
I,
J,
K,
L,
M,
N,
O,
P,
Q,
R,
S,
T,
U,
V,
W,
X,
Y,
Z,
quotedbl,
numbersign,
dollar,
peseta,
euro,
sterling,
currency,
yen,
percent,
ampersand,
quotesingle,
parenleft,
parenright,
asterisk,
comma,
hyphen,
period,
slash,
colon,
semicolon,
question,
at,
bracketleft,
backslash,
bracketright,
asciicircum,
grave,
braceleft,
bar,
braceright,
asciitilde,
dagger,
degree,
cent,
section,
registered,
copyright,
trademark,
acute,
dieresis,
AE,
ae,
questiondown,
exclamdown,
guillemotleft,
guillemotright,
ellipsis,
OE,
oe,
endash,
emdash,
quotedblleft,
quotedblright,

glyphs = (
{
glyphname = a;
lastChange = "2021-06-09 01:53:21 +0000";
layers = (
{
background = {
hints = (
{
horizontal = 1;
place = "{6, 21}";
target = up;
type = BottomGhost;
},
{
horizontal = 1;
place = "{256, 30}";
type = Stem;
},
{
horizontal = 1;
place = "{448, 33}";
type = Stem;
},
{
place = "{17, 36}";
type = Stem;
},
{
place = "{358, 35}";
type = Stem;
},
{
horizontal = 1;
place = "{-6, 32}";
type = Stem;
}
);
paths = (
{
closed = 1;
nodes = (
"10 68 OFFCURVE",
"53 -6 OFFCURVE",
"178 -6 CURVE SMOOTH",
"230 -6 OFFCURVE",
"298 4 OFFCURVE",
"345 20 CURVE SMOOTH",
"357 24 OFFCURVE",
"359 31 OFFCURVE",
"360 37 CURVE SMOOTH",
"420 257 OFFCURVE",
"449 408 OFFCURVE",
"458 466 CURVE SMOOTH",
"458 468 OFFCURVE",
"456 470 OFFCURVE",
"454 470 CURVE SMOOTH",
"446 470 OFFCURVE",
"437 470 OFFCURVE",
"429 470 CURVE SMOOTH",
"427 470 OFFCURVE",
"425 468 OFFCURVE",
"425 466 CURVE SMOOTH",
"423 456 OFFCURVE",
"422 450 OFFCURVE",
"418 433 CURVE",
"397 450 OFFCURVE",
"339 472 OFFCURVE",
"287 472 CURVE SMOOTH",
"202 472 OFFCURVE",
"87 433 OFFCURVE",
"44 230 CURVE SMOOTH"
);
},
{
closed = 1;
nodes = (
"116 414 OFFCURVE",
"215 440 OFFCURVE",
"280 440 CURVE SMOOTH",
"313 440 OFFCURVE",
"373 425 OFFCURVE",
"398 407 CURVE SMOOTH",
"404 402 OFFCURVE",
"412 401 OFFCURVE",
"410 388 CURVE SMOOTH",
"405 354 OFFCURVE",
"361 153 OFFCURVE",
"335 63 CURVE",
"334 56 OFFCURVE",
"323 47 OFFCURVE",
"313 44 CURVE SMOOTH",
"299 40 OFFCURVE",
"235 23 OFFCURVE",
"193 23 CURVE SMOOTH",
"83 23 OFFCURVE",
"45 77 OFFCURVE",
"77 230 CURVE SMOOTH"
);
}
);
};
layerId = "707362F1-A677-446A-8636-E10BE3A7FAFF";
paths = (
{
closed = 1;
nodes = (
"242 -6 OFFCURVE",
"310 4 OFFCURVE",
"357 20 CURVE SMOOTH",
"369 24 OFFCURVE",
"371 31 OFFCURVE",
"372 37 CURVE SMOOTH",
"432 257 OFFCURVE",
"461 408 OFFCURVE",
"470 466 CURVE SMOOTH",
"470 468 OFFCURVE",
"468 470 OFFCURVE",
"466 470 CURVE SMOOTH",
"441 470 LINE SMOOTH",
"439 470 OFFCURVE",
"437 468 OFFCURVE",
"437 466 CURVE SMOOTH",
"430 433 LINE",
"409 450 OFFCURVE",
"351 472 OFFCURVE",
"299 472 CURVE SMOOTH",
"214 472 OFFCURVE",
"99 433 OFFCURVE",
"56 230 CURVE SMOOTH",
"22 68 OFFCURVE",
"65 -6 OFFCURVE",
"190 -6 CURVE SMOOTH"
);
},
{
closed = 1;
nodes = (
"95 23 OFFCURVE",
"57 77 OFFCURVE",
"89 230 CURVE SMOOTH",
"128 414 OFFCURVE",
"227 440 OFFCURVE",
"292 440 CURVE SMOOTH",
"344 440 OFFCURVE",
"381 423 OFFCURVE",
"410 407 CURVE SMOOTH",
"421 401 OFFCURVE",
"423 396 OFFCURVE",
"422 388 CURVE SMOOTH",
"417 354 OFFCURVE",
"373 153 OFFCURVE",
"349 67 CURVE SMOOTH",
"345 52 OFFCURVE",
"333 47 OFFCURVE",
"325 44 CURVE SMOOTH",
"311 40 OFFCURVE",
"247 23 OFFCURVE",
"205 23 CURVE SMOOTH"
);
}
);
width = 575;
},
{
background = {
paths = (
{
closed = 1;
nodes = (
"-8 67 OFFCURVE",
"55 -6 OFFCURVE",
"189 -6 CURVE SMOOTH",
"257 -6 OFFCURVE",
"322 9 OFFCURVE",
"347 18 CURVE SMOOTH",
"381 28 OFFCURVE",
"386 35 OFFCURVE",
"394 52 CURVE SMOOTH",
"415 90 OFFCURVE",
"441 201 OFFCURVE",
"455 263 CURVE SMOOTH",
"495 433 OFFCURVE",
"495 448 OFFCURVE",
"497 461 CURVE SMOOTH",
"498 471 OFFCURVE",
"491 472 OFFCURVE",
"480 472 CURVE SMOOTH",
"443 472 OFFCURVE",
"407 472 OFFCURVE",
"370 472 CURVE SMOOTH",
"357 472 OFFCURVE",
"351 472 OFFCURVE",
"349 455 CURVE",
"342 464 OFFCURVE",
"319 476 OFFCURVE",
"291 476 CURVE SMOOTH",
"193 476 OFFCURVE",
"75 431 OFFCURVE",
"29 229 CURVE SMOOTH"
);
},
{
closed = 1;
nodes = (
"204 339 OFFCURVE",
"246 354 OFFCURVE",
"274 354 CURVE SMOOTH",
"287 354 OFFCURVE",
"305 348 OFFCURVE",
"318 343 CURVE",
"323 342 OFFCURVE",
"323 340 OFFCURVE",
"322 332 CURVE",
"305 263 OFFCURVE",
"289 195 OFFCURVE",
"271 126 CURVE SMOOTH",
"269 119 OFFCURVE",
"268 117 OFFCURVE",
"265 114 CURVE",
"251 110 OFFCURVE",
"233 106 OFFCURVE",
"216 106 CURVE SMOOTH",
"178 106 OFFCURVE",
"157 135 OFFCURVE",
"179 228 CURVE SMOOTH"
);
}
);
};
layerId = "D1BC8BBB-1669-4C46-BC21-42BF6808B2B9";
paths = (
{
closed = 1;
nodes = (
"257 -6 OFFCURVE",
"322 9 OFFCURVE",
"347 18 CURVE SMOOTH",
"381 28 OFFCURVE",
"386 35 OFFCURVE",
"394 52 CURVE SMOOTH",
"422 110 OFFCURVE",
"484 376 OFFCURVE",
"497 458 CURVE SMOOTH",
"498 468 OFFCURVE",
"493 472 OFFCURVE",
"482 472 CURVE SMOOTH",
"370 472 LINE SMOOTH",
"359 472 OFFCURVE",
"355 472 OFFCURVE",
"351 461 CURVE SMOOTH",
"349 455 LINE",
"342 464 OFFCURVE",
"319 476 OFFCURVE",
"291 476 CURVE SMOOTH",
"193 476 OFFCURVE",
"75 431 OFFCURVE",
"29 229 CURVE SMOOTH",
"-8 67 OFFCURVE",
"55 -6 OFFCURVE",
"189 -6 CURVE SMOOTH"
);
},
{
closed = 1;
nodes = (
"178 106 OFFCURVE",
"157 135 OFFCURVE",
"179 228 CURVE SMOOTH",
"204 339 OFFCURVE",
"246 354 OFFCURVE",
"274 354 CURVE SMOOTH",
"287 354 OFFCURVE",
"305 348 OFFCURVE",
"314 345 CURVE SMOOTH",
"321 343 OFFCURVE",
"323 338 OFFCURVE",
"321 329 CURVE SMOOTH",
"305 267 OFFCURVE",
"289 195 OFFCURVE",
"271 126 CURVE SMOOTH",
"268 117 OFFCURVE",
"265 113 OFFCURVE",
"259 112 CURVE SMOOTH",
"251 110 OFFCURVE",
"233 106 OFFCURVE",
"216 106 CURVE SMOOTH"
);
}
);
width = 483;
}
);
leftKerningGroup = o;
leftMetricsKey = o;
note = a;
rightKerningGroup = d;
rightMetricsKey = d;
unicode = 0061;
},
{
glyphname = b;
lastChange = "2021-06-09 01:53:24 +0000";
layers = (
{
background = {
paths = (
{
closed = 1;
nodes = (
"372 -6 OFFCURVE",
"459 63 OFFCURVE",
"493 224 CURVE SMOOTH",
"536 427 OFFCURVE",
"445 476 OFFCURVE",
"361 476 CURVE SMOOTH",
"311 476 OFFCURVE",
"255 465 OFFCURVE",
"229 457 CURVE SMOOTH",
"216 452 OFFCURVE",
"212 459 OFFCURVE",
"215 472 CURVE SMOOTH",
"217 481 OFFCURVE",
"258 650 OFFCURVE",
"273 700 CURVE SMOOTH",
"273 702 OFFCURVE",
"276 708 OFFCURVE",
"269 708 CURVE SMOOTH",
"248 708 LINE SMOOTH",
"243 708 OFFCURVE",
"241 703 OFFCURVE",
"240 701 CURVE SMOOTH",
"201 565 OFFCURVE",
"167 417 OFFCURVE",
"142 287 CURVE SMOOTH",
"125 203 OFFCURVE",
"108 99 OFFCURVE",
"105 66 CURVE SMOOTH",
"101 24 OFFCURVE",
"101 24 OFFCURVE",
"126 14 CURVE SMOOTH",
"134 11 OFFCURVE",
"188 -6 OFFCURVE",
"255 -6 CURVE SMOOTH"
);
},
{
closed = 1;
nodes = (
"211 22 OFFCURVE",
"171 33 OFFCURVE",
"149 41 CURVE SMOOTH",
"141 45 OFFCURVE",
"136 50 OFFCURVE",
"138 65 CURVE SMOOTH",
"155 191 OFFCURVE",
"192 373 OFFCURVE",
"203 407 CURVE SMOOTH",
"207 420 OFFCURVE",
"217 425 OFFCURVE",
"225 426 CURVE SMOOTH",
"240 428 OFFCURVE",
"316 446 OFFCURVE",
"349 446 CURVE SMOOTH",
"418 446 OFFCURVE",
"500 411 OFFCURVE",
"461 228 CURVE SMOOTH",
"428 74 OFFCURVE",
"349 22 OFFCURVE",
"259 22 CURVE SMOOTH"
);
}
);
};
hints = (
{
horizontal = 1;
place = "{-121, 21}";
target = up;
type = BottomGhost;
},
{
horizontal = 1;
place = "{-15, 25}";
type = Stem;
},
{
horizontal = 1;
place = "{443, 21}";
type = Stem;
},
{
place = "{50, 25}";
type = Stem;
},
{
place = "{393, 25}";
type = Stem;
},
{
place = "{56, 25}";
type = Stem;
},
{
horizontal = 1;
place = "{-22, 25}";
type = Stem;
}
);
layerId = "707362F1-A677-446A-8636-E10BE3A7FAFF";
paths = (
{
closed = 1;
nodes = (
"363 -6 OFFCURVE",
"450 63 OFFCURVE",
"484 224 CURVE SMOOTH",
"527 427 OFFCURVE",
"436 476 OFFCURVE",
"352 476 CURVE SMOOTH",
"302 476 OFFCURVE",
"246 465 OFFCURVE",
"220 457 CURVE SMOOTH",
"207 452 OFFCURVE",
"203 459 OFFCURVE",
"206 472 CURVE SMOOTH",
"208 481 OFFCURVE",
"249 650 OFFCURVE",
"264 700 CURVE SMOOTH",
"264 702 OFFCURVE",
"267 708 OFFCURVE",
"260 708 CURVE SMOOTH",
"239 708 LINE SMOOTH",
"234 708 OFFCURVE",
"232 703 OFFCURVE",
"231 701 CURVE SMOOTH",
"192 565 OFFCURVE",
"158 417 OFFCURVE",
"133 287 CURVE SMOOTH",
"116 203 OFFCURVE",
"99 99 OFFCURVE",
"96 66 CURVE SMOOTH",
"92 24 OFFCURVE",
"92 24 OFFCURVE",
"117 14 CURVE SMOOTH",
"125 11 OFFCURVE",
"179 -6 OFFCURVE",
"246 -6 CURVE SMOOTH"
);
},
{
closed = 1;
nodes = (
"202 22 OFFCURVE",
"162 33 OFFCURVE",
"140 41 CURVE SMOOTH",
"132 45 OFFCURVE",
"127 50 OFFCURVE",
"129 65 CURVE SMOOTH",
"146 191 OFFCURVE",
"183 373 OFFCURVE",
"194 407 CURVE SMOOTH",
"198 420 OFFCURVE",
"208 425 OFFCURVE",
"216 426 CURVE SMOOTH",
"231 428 OFFCURVE",
"307 446 OFFCURVE",
"340 446 CURVE SMOOTH",
"409 446 OFFCURVE",
"491 411 OFFCURVE",
"452 228 CURVE SMOOTH",
"419 74 OFFCURVE",
"340 22 OFFCURVE",
"250 22 CURVE SMOOTH"
);
}
);
width = 543;
},
{
background = {
paths = (
{
closed = 1;
nodes = (
"319 -6 OFFCURVE",
"415 67 OFFCURVE",
"449 229 CURVE SMOOTH",
"492 431 OFFCURVE",
"395 476 OFFCURVE",
"297 476 CURVE SMOOTH",
"283 476 OFFCURVE",
"259 470 OFFCURVE",
"247 468 CURVE SMOOTH",
"240 467 OFFCURVE",
"232 466 OFFCURVE",
"235 477 CURVE SMOOTH",
"248 538 OFFCURVE",
"275 621 OFFCURVE",
"298 681 CURVE SMOOTH",
"306 704 OFFCURVE",
"311 708 OFFCURVE",
"288 708 CURVE SMOOTH",
"179 708 LINE SMOOTH",
"168 708 OFFCURVE",
"160 707 OFFCURVE",
"156 697 CURVE SMOOTH",
"118 590 OFFCURVE",
"74 433 OFFCURVE",
"38 263 CURVE SMOOTH",
"25 201 OFFCURVE",
"3 90 OFFCURVE",
"6 52 CURVE SMOOTH",
"7 35 OFFCURVE",
"9 28 OFFCURVE",
"39 18 CURVE SMOOTH",
"60 9 OFFCURVE",
"117 -6 OFFCURVE",
"187 -6 CURVE SMOOTH"
);
},
{
closed = 1;
nodes = (
"191 106 OFFCURVE",
"175 110 OFFCURVE",
"165 114 CURVE",
"162 117 OFFCURVE",
"162 119 OFFCURVE",
"163 126 CURVE SMOOTH",
"176 195 OFFCURVE",
"189 263 OFFCURVE",
"204 332 CURVE SMOOTH",
"206 340 OFFCURVE",
"207 342 OFFCURVE",
"212 343 CURVE SMOOTH",
"227 348 OFFCURVE",
"249 354 OFFCURVE",
"263 354 CURVE SMOOTH",
"290 354 OFFCURVE",
"323 339 OFFCURVE",
"300 228 CURVE SMOOTH",
"280 135 OFFCURVE",
"246 106 OFFCURVE",
"210 106 CURVE SMOOTH"
);
}
);
};
layerId = "D1BC8BBB-1669-4C46-BC21-42BF6808B2B9";
paths = (
{
closed = 1;
nodes = (
"319 -6 OFFCURVE",
"415 67 OFFCURVE",
"449 229 CURVE SMOOTH",
"492 431 OFFCURVE",
"395 476 OFFCURVE",
"297 476 CURVE SMOOTH",
"283 476 OFFCURVE",
"259 470 OFFCURVE",
"247 468 CURVE SMOOTH",
"240 467 OFFCURVE",
"232 466 OFFCURVE",
"235 477 CURVE SMOOTH",
"248 538 OFFCURVE",
"275 621 OFFCURVE",
"298 681 CURVE SMOOTH",
"306 704 OFFCURVE",
"311 708 OFFCURVE",
"288 708 CURVE SMOOTH",
"179 708 LINE SMOOTH",
"168 708 OFFCURVE",
"160 707 OFFCURVE",
"156 697 CURVE SMOOTH",
"118 590 OFFCURVE",
"74 433 OFFCURVE",
"38 263 CURVE SMOOTH",
"25 201 OFFCURVE",
"3 90 OFFCURVE",
"6 52 CURVE SMOOTH",
"7 35 OFFCURVE",
"9 28 OFFCURVE",
"39 18 CURVE SMOOTH",
"60 9 OFFCURVE",
"117 -6 OFFCURVE",
"187 -6 CURVE SMOOTH"
);
},
{
closed = 1;
nodes = (
"191 106 OFFCURVE",
"175 110 OFFCURVE",
"165 114 CURVE",
"162 117 OFFCURVE",
"162 119 OFFCURVE",
"163 126 CURVE SMOOTH",
"176 195 OFFCURVE",
"189 263 OFFCURVE",
"204 332 CURVE SMOOTH",
"206 340 OFFCURVE",
"207 342 OFFCURVE",
"212 343 CURVE SMOOTH",
"227 348 OFFCURVE",
"249 354 OFFCURVE",
"263 354 CURVE SMOOTH",
"290 354 OFFCURVE",
"323 339 OFFCURVE",
"300 228 CURVE SMOOTH",
"280 135 OFFCURVE",
"246 106 OFFCURVE",
"210 106 CURVE SMOOTH"
);
}
);
width = 480;
}
);
leftKerningGroup = b;
leftMetricsKey = "=h-8";
note = b;
rightKerningGroup = o;
rightMetricsKey = o;
unicode = 0062;
},
{
glyphname = c;
lastChange = "2021-06-09 01:53:26 +0000";
layers = (
{
background = {
paths = (
{
closed = 1;
nodes = (
"277 -5 OFFCURVE",
"322 4 OFFCURVE",
"356 24 CURVE",
"359 25 OFFCURVE",
"361 27 OFFCURVE",
"361 31 CURVE",
"355 47 LINE",
"355 50 OFFCURVE",
"352 50 OFFCURVE",
"348 48 CURVE",
"318 35 OFFCURVE",
"280 25 OFFCURVE",
"232 25 CURVE SMOOTH",
"112 25 OFFCURVE",
"91 109 OFFCURVE",
"118 236 CURVE SMOOTH",
"139 335 OFFCURVE",
"197 452 OFFCURVE",
"322 452 CURVE SMOOTH",
"365 452 OFFCURVE",
"410 438 OFFCURVE",
"427 413 CURVE SMOOTH",
"430 409 OFFCURVE",
"435 408 OFFCURVE",
"436 415 CURVE SMOOTH",
"441 438 LINE SMOOTH",
"443 445 OFFCURVE",
"443 445 OFFCURVE",
"439 450 CURVE SMOOTH",
"417 471 OFFCURVE",
"382 483 OFFCURVE",
"329 483 CURVE SMOOTH",
"178 483 OFFCURVE",
"113 365 OFFCURVE",
"85 237 CURVE SMOOTH",
"56 100 OFFCURVE",
"71 -5 OFFCURVE",
"226 -5 CURVE SMOOTH"
);
}
);
};
hints = (
{
horizontal = 1;
place = "{-32, 5}";
type = Stem;
},
{
horizontal = 1;
place = "{419, 5}";
type = Stem;
},
{
place = "{13, 6}";
type = Stem;
}
);
layerId = "707362F1-A677-446A-8636-E10BE3A7FAFF";
paths = (
{
closed = 1;
nodes = (
"249 -5 OFFCURVE",
"294 4 OFFCURVE",
"328 24 CURVE",
"331 25 OFFCURVE",
"333 27 OFFCURVE",
"333 31 CURVE",
"327 47 LINE",
"327 50 OFFCURVE",
"324 50 OFFCURVE",
"320 48 CURVE",
"290 35 OFFCURVE",
"252 25 OFFCURVE",
"204 25 CURVE SMOOTH",
"84 25 OFFCURVE",
"63 109 OFFCURVE",
"90 236 CURVE SMOOTH",
"111 335 OFFCURVE",
"169 452 OFFCURVE",
"294 452 CURVE SMOOTH",
"337 452 OFFCURVE",
"382 438 OFFCURVE",
"399 413 CURVE SMOOTH",
"402 409 OFFCURVE",
"407 408 OFFCURVE",
"408 415 CURVE SMOOTH",
"413 438 LINE SMOOTH",
"415 445 OFFCURVE",
"415 445 OFFCURVE",
"411 450 CURVE SMOOTH",
"389 471 OFFCURVE",
"354 483 OFFCURVE",
"301 483 CURVE SMOOTH",
"150 483 OFFCURVE",
"85 365 OFFCURVE",
"57 237 CURVE SMOOTH",
"28 100 OFFCURVE",
"43 -5 OFFCURVE",
"198 -5 CURVE SMOOTH"
);
}
);
width = 448;
},
{
background = {
paths = (
{
closed = 1;
nodes = (
"250 -5 OFFCURVE",
"314 7 OFFCURVE",
"355 34 CURVE SMOOTH",
"367 41 OFFCURVE",
"370 46 OFFCURVE",
"367 58 CURVE SMOOTH",
"354 122 LINE SMOOTH",
"351 135 OFFCURVE",
"342 137 OFFCURVE",
"328 131 CURVE SMOOTH",
"287 114 OFFCURVE",
"259 106 OFFCURVE",
"231 106 CURVE SMOOTH",
"181 106 OFFCURVE",
"159 153 OFFCURVE",
"176 236 CURVE SMOOTH",
"190 302 OFFCURVE",
"234 360 OFFCURVE",
"294 360 CURVE SMOOTH",
"334 360 OFFCURVE",
"369 355 OFFCURVE",
"399 326 CURVE SMOOTH",
"405 320 OFFCURVE",
"415 320 OFFCURVE",
"418 332 CURVE SMOOTH",
"435 415 LINE SMOOTH",
"437 425 OFFCURVE",
"436 428 OFFCURVE",
"427 439 CURVE",
"398 467 OFFCURVE",
"357 478 OFFCURVE",
"299 478 CURVE SMOOTH",
"126 478 OFFCURVE",
"57 360 OFFCURVE",
"30 237 CURVE SMOOTH",
"2 105 OFFCURVE",
"20 -5 OFFCURVE",
"197 -5 CURVE SMOOTH"
);
}
);
};
layerId = "D1BC8BBB-1669-4C46-BC21-42BF6808B2B9";
paths = (
{
closed = 1;
nodes = (
"250 -5 OFFCURVE",
"314 7 OFFCURVE",
"355 34 CURVE SMOOTH",
"367 41 OFFCURVE",
"370 46 OFFCURVE",
"367 58 CURVE SMOOTH",
"354 122 LINE SMOOTH",
"351 135 OFFCURVE",
"342 137 OFFCURVE",
"328 131 CURVE SMOOTH",
"287 114 OFFCURVE",
"259 106 OFFCURVE",
"231 106 CURVE SMOOTH",
"181 106 OFFCURVE",
"159 153 OFFCURVE",
"176 236 CURVE SMOOTH",
"190 302 OFFCURVE",
"234 360 OFFCURVE",
"294 360 CURVE SMOOTH",
"334 360 OFFCURVE",
"369 355 OFFCURVE",
"399 326 CURVE SMOOTH",
"405 320 OFFCURVE",
"415 320 OFFCURVE",
"418 332 CURVE SMOOTH",
"435 415 LINE SMOOTH",
"437 425 OFFCURVE",
"436 428 OFFCURVE",
"427 439 CURVE",
"398 467 OFFCURVE",
"357 478 OFFCURVE",
"299 478 CURVE SMOOTH",
"126 478 OFFCURVE",
"57 360 OFFCURVE",
"30 237 CURVE SMOOTH",
"2 105 OFFCURVE",
"20 -5 OFFCURVE",
"197 -5 CURVE SMOOTH"
);
}
);
width = 418;
}
);
leftKerningGroup = o;
leftMetricsKey = o;
note = c;
rightKerningGroup = c;
unicode = 0063;
},
{
glyphname = d;
lastChange = "2021-06-09 01:53:30 +0000";
layers = (
{
background = {
paths = (
{
closed = 1;
nodes = (
"45 142 OFFCURVE",
"50 78 OFFCURVE",
"77 39 CURVE SMOOTH",
"102 4 OFFCURVE",
"153 -9 OFFCURVE",
"208 -10 CURVE SMOOTH",
"263 -10 OFFCURVE",
"322 2 OFFCURVE",
"362 18 CURVE SMOOTH",
"376 24 OFFCURVE",
"380 31 OFFCURVE",
"381 37 CURVE SMOOTH",
"441 257 OFFCURVE",
"486 480 OFFCURVE",
"523 704 CURVE SMOOTH",
"523 707 OFFCURVE",
"521 708 OFFCURVE",
"520 708 CURVE SMOOTH",
"494 708 LINE SMOOTH",
"492 708 OFFCURVE",
"489 707 OFFCURVE",
"489 704 CURVE",
"489 704 OFFCURVE",
"456 520 OFFCURVE",
"444 465 CURVE SMOOTH",
"441 452 OFFCURVE",
"438 454 OFFCURVE",
"420 459 CURVE SMOOTH",
"395 465 OFFCURVE",
"352 472 OFFCURVE",
"306 472 CURVE SMOOTH",
"221 472 OFFCURVE",
"107 433 OFFCURVE",
"64 230 CURVE SMOOTH"
);
},
{
closed = 1;
nodes = (
"136 414 OFFCURVE",
"235 440 OFFCURVE",
"300 440 CURVE SMOOTH",
"333 440 OFFCURVE",
"383 433 OFFCURVE",
"420 424 CURVE",
"428 421 OFFCURVE",
"435 415 OFFCURVE",
"432 401 CURVE SMOOTH",
"427 367 OFFCURVE",
"378 145 OFFCURVE",
"351 55 CURVE SMOOTH",
"349 48 OFFCURVE",
"341 45 OFFCURVE",
"331 40 CURVE SMOOTH",
"263 12 OFFCURVE",
"149 7 OFFCURVE",
"110 57 CURVE SMOOTH",
"85 88 OFFCURVE",
"79 144 OFFCURVE",
"97 230 CURVE SMOOTH"
);
}
);
};
hints = (
{
horizontal = 1;
place = "{-14, 23}";
type = Stem;
},
{
horizontal = 1;
place = "{-2, 21}";
target = up;
type = BottomGhost;
},
{
horizontal = 1;
place = "{438, 27}";
type = Stem;
},
{
place = "{39, 27}";
type = Stem;
},
{
place = "{375, 27}";
type = Stem;
}
);
layerId = "707362F1-A677-446A-8636-E10BE3A7FAFF";
paths = (
{
closed = 1;
nodes = (
"37 142 OFFCURVE",
"42 78 OFFCURVE",
"69 39 CURVE SMOOTH",
"94 4 OFFCURVE",
"145 -9 OFFCURVE",
"200 -10 CURVE SMOOTH",
"255 -10 OFFCURVE",
"314 2 OFFCURVE",
"354 18 CURVE SMOOTH",
"368 24 OFFCURVE",
"372 31 OFFCURVE",
"373 37 CURVE SMOOTH",
"433 257 OFFCURVE",
"478 480 OFFCURVE",
"515 704 CURVE SMOOTH",
"515 707 OFFCURVE",
"513 708 OFFCURVE",
"512 708 CURVE SMOOTH",
"486 708 LINE SMOOTH",
"484 708 OFFCURVE",
"481 707 OFFCURVE",
"481 704 CURVE",
"481 704 OFFCURVE",
"448 520 OFFCURVE",
"436 465 CURVE SMOOTH",
"433 452 OFFCURVE",
"430 454 OFFCURVE",
"412 459 CURVE SMOOTH",
"387 465 OFFCURVE",
"344 472 OFFCURVE",
"298 472 CURVE SMOOTH",
"213 472 OFFCURVE",
"99 433 OFFCURVE",
"56 230 CURVE SMOOTH"
);
},
{
closed = 1;
nodes = (
"128 414 OFFCURVE",
"227 440 OFFCURVE",
"292 440 CURVE SMOOTH",
"325 440 OFFCURVE",
"375 433 OFFCURVE",
"412 424 CURVE",
"420 421 OFFCURVE",
"427 415 OFFCURVE",
"424 401 CURVE SMOOTH",
"419 367 OFFCURVE",
"370 145 OFFCURVE",
"343 55 CURVE SMOOTH",
"341 48 OFFCURVE",
"333 45 OFFCURVE",
"323 40 CURVE SMOOTH",
"255 12 OFFCURVE",
"141 7 OFFCURVE",
"102 57 CURVE SMOOTH",
"77 88 OFFCURVE",
"71 144 OFFCURVE",
"89 230 CURVE SMOOTH"
);
}
);
width = 575;
},
{
background = {
paths = (
{
closed = 1;
nodes = (
"6 130 OFFCURVE",
"21 64 OFFCURVE",
"66 28 CURVE SMOOTH",
"94 5 OFFCURVE",
"136 -6 OFFCURVE",
"188 -6 CURVE SMOOTH",
"257 -6 OFFCURVE",
"321 9 OFFCURVE",
"347 18 CURVE SMOOTH",
"381 28 OFFCURVE",
"386 35 OFFCURVE",
"394 52 CURVE SMOOTH",
"437 129 OFFCURVE",
"514 528 OFFCURVE",
"528 676 CURVE SMOOTH",
"529 686 OFFCURVE",
"522 687 OFFCURVE",
"511 687 CURVE SMOOTH",
"401 687 LINE SMOOTH",
"386 687 OFFCURVE",
"381 687 OFFCURVE",
"380 660 CURVE SMOOTH",
"373 599 OFFCURVE",
"369 538 OFFCURVE",
"355 477 CURVE SMOOTH",
"352 466 OFFCURVE",
"346 467 OFFCURVE",
"339 468 CURVE SMOOTH",
"327 470 OFFCURVE",
"305 476 OFFCURVE",
"290 476 CURVE SMOOTH",
"192 476 OFFCURVE",
"76 431 OFFCURVE",
"29 229 CURVE SMOOTH"
);
},
{
closed = 1;
nodes = (
"204 339 OFFCURVE",
"246 354 OFFCURVE",
"274 354 CURVE SMOOTH",
"287 354 OFFCURVE",
"305 348 OFFCURVE",
"318 343 CURVE SMOOTH",
"323 342 OFFCURVE",
"324 340 OFFCURVE",
"322 332 CURVE SMOOTH",
"306 263 OFFCURVE",
"289 195 OFFCURVE",
"271 126 CURVE SMOOTH",
"270 119 OFFCURVE",
"267 117 OFFCURVE",
"265 114 CURVE",
"251 110 OFFCURVE",
"234 106 OFFCURVE",
"216 106 CURVE SMOOTH",
"178 106 OFFCURVE",
"157 135 OFFCURVE",
"179 228 CURVE SMOOTH"
);
}
);
};
layerId = "D1BC8BBB-1669-4C46-BC21-42BF6808B2B9";
paths = (
{
closed = 1;
nodes = (
"6 130 OFFCURVE",
"21 64 OFFCURVE",
"66 28 CURVE SMOOTH",
"94 5 OFFCURVE",
"136 -6 OFFCURVE",
"188 -6 CURVE SMOOTH",
"257 -6 OFFCURVE",
"321 9 OFFCURVE",
"347 18 CURVE SMOOTH",
"381 28 OFFCURVE",
"386 35 OFFCURVE",
"394 52 CURVE SMOOTH",
"437 129 OFFCURVE",
"514 528 OFFCURVE",
"528 676 CURVE SMOOTH",
"529 686 OFFCURVE",
"522 687 OFFCURVE",
"511 687 CURVE SMOOTH",
"401 687 LINE SMOOTH",
"386 687 OFFCURVE",
"381 687 OFFCURVE",
"380 660 CURVE SMOOTH",
"373 599 OFFCURVE",
"369 538 OFFCURVE",
"355 477 CURVE SMOOTH",
"352 466 OFFCURVE",
"346 467 OFFCURVE",
"339 468 CURVE SMOOTH",
"327 470 OFFCURVE",
"305 476 OFFCURVE",
"290 476 CURVE SMOOTH",
"192 476 OFFCURVE",
"76 431 OFFCURVE",
"29 229 CURVE SMOOTH"
);
},
{
closed = 1;
nodes = (
"204 339 OFFCURVE",
"246 354 OFFCURVE",
"274 354 CURVE SMOOTH",
"287 354 OFFCURVE",
"305 348 OFFCURVE",
"318 343 CURVE SMOOTH",
"323 342 OFFCURVE",
"324 340 OFFCURVE",
"322 332 CURVE SMOOTH",
"306 263 OFFCURVE",
"289 195 OFFCURVE",
"271 126 CURVE SMOOTH",
"270 119 OFFCURVE",
"267 117 OFFCURVE",
"265 114 CURVE",
"251 110 OFFCURVE",
"234 106 OFFCURVE",
"216 106 CURVE SMOOTH",
"178 106 OFFCURVE",
"157 135 OFFCURVE",
"179 228 CURVE SMOOTH"
);
}
);
width = 482;
}
);
leftKerningGroup = o;
leftMetricsKey = o;
note = d;
rightKerningGroup = d;
unicode = 0064;
},
{
color = 0;
glyphname = e;
lastChange = "2021-06-09 01:53:32 +0000";
layers = (
{
background = {
paths = (
{
closed = 1;
nodes = (
"36 100 OFFCURVE",
"49 -5 OFFCURVE",
"206 -5 CURVE SMOOTH",
"272 -5 OFFCURVE",
"338 6 OFFCURVE",
"386 38 CURVE",
"391 40 OFFCURVE",
"391 42 OFFCURVE",
"391 45 CURVE SMOOTH",
"387 59 LINE SMOOTH",
"384 66 OFFCURVE",
"376 61 OFFCURVE",
"373 59 CURVE SMOOTH",
"326 33 OFFCURVE",
"260 25 OFFCURVE",
"212 25 CURVE SMOOTH",
"97 25 OFFCURVE",
"72 103 OFFCURVE",
"94 216 CURVE SMOOTH",
"97 229 OFFCURVE",
"106 229 OFFCURVE",
"108 229 CURVE SMOOTH",
"409 229 LINE SMOOTH",
"424 229 OFFCURVE",
"432 231 OFFCURVE",
"442 276 CURVE SMOOTH",
"463 374 OFFCURVE",
"465 483 OFFCURVE",
"309 483 CURVE SMOOTH",
"158 483 OFFCURVE",
"93 365 OFFCURVE",
"65 237 CURVE SMOOTH"
);
},
{
closed = 1;
nodes = (
"405 263 OFFCURVE",
"398 261 OFFCURVE",
"384 261 CURVE",
"295 261 OFFCURVE",
"206 261 OFFCURVE",
"117 261 CURVE SMOOTH",
"105 261 OFFCURVE",
"105 265 OFFCURVE",
"108 275 CURVE SMOOTH",
"127 349 OFFCURVE",
"184 452 OFFCURVE",
"302 452 CURVE SMOOTH",
"423 452 OFFCURVE",
"427 365 OFFCURVE",
"409 281 CURVE SMOOTH"
);
}
);
};
hints = (
{
horizontal = 1;
place = "{-12, 24}";
type = Stem;
},
{
horizontal = 1;
place = "{230, 21}";
type = Stem;
},
{
horizontal = 1;
place = "{445, 24}";
type = Stem;
},
{
place = "{43, 26}";
type = Stem;
},
{
place = "{377, 27}";
type = Stem;
}
);
layerId = "707362F1-A677-446A-8636-E10BE3A7FAFF";
paths = (
{
closed = 1;
nodes = (
"28 100 OFFCURVE",
"41 -5 OFFCURVE",
"198 -5 CURVE SMOOTH",
"264 -5 OFFCURVE",
"330 6 OFFCURVE",
"378 38 CURVE",
"383 40 OFFCURVE",
"383 42 OFFCURVE",
"383 45 CURVE SMOOTH",
"379 59 LINE SMOOTH",
"376 66 OFFCURVE",
"368 61 OFFCURVE",
"365 59 CURVE SMOOTH",
"318 33 OFFCURVE",
"252 25 OFFCURVE",
"204 25 CURVE SMOOTH",
"89 25 OFFCURVE",
"64 103 OFFCURVE",
"86 216 CURVE SMOOTH",
"89 229 OFFCURVE",
"98 229 OFFCURVE",
"100 229 CURVE SMOOTH",
"401 229 LINE SMOOTH",
"416 229 OFFCURVE",
"424 231 OFFCURVE",
"434 276 CURVE SMOOTH",
"455 374 OFFCURVE",
"457 483 OFFCURVE",
"301 483 CURVE SMOOTH",
"150 483 OFFCURVE",
"85 365 OFFCURVE",
"57 237 CURVE SMOOTH"
);
},
{
closed = 1;
nodes = (
"397 263 OFFCURVE",
"390 261 OFFCURVE",
"376 261 CURVE",
"287 261 OFFCURVE",
"198 261 OFFCURVE",
"109 261 CURVE SMOOTH",
"97 261 OFFCURVE",
"97 265 OFFCURVE",
"100 275 CURVE SMOOTH",
"119 349 OFFCURVE",
"176 452 OFFCURVE",
"294 452 CURVE SMOOTH",
"415 452 OFFCURVE",
"419 365 OFFCURVE",
"401 281 CURVE SMOOTH"
);
}
);
width = 489;
},
{
background = {
paths = (
{
closed = 1;
nodes = (
"2 105 OFFCURVE",
"19 -5 OFFCURVE",
"197 -5 CURVE SMOOTH",
"264 -5 OFFCURVE",
"343 8 OFFCURVE",
"397 41 CURVE SMOOTH",
"415 52 OFFCURVE",
"422 54 OFFCURVE",
"415 72 CURVE SMOOTH",
"401 119 LINE SMOOTH",
"394 143 OFFCURVE",
"386 137 OFFCURVE",
"365 126 CURVE SMOOTH",
"349 118 OFFCURVE",
"301 98 OFFCURVE",
"255 98 CURVE SMOOTH",
"194 98 OFFCURVE",
"166 138 OFFCURVE",
"172 186 CURVE",
"174 195 OFFCURVE",
"174 198 OFFCURVE",
"183 198 CURVE SMOOTH",
"398 198 LINE SMOOTH",
"426 198 OFFCURVE",
"444 214 OFFCURVE",
"456 271 CURVE SMOOTH",
"476 367 OFFCURVE",
"477 478 OFFCURVE",
"299 478 CURVE SMOOTH",
"126 478 OFFCURVE",
"57 360 OFFCURVE",
"30 237 CURVE SMOOTH"
);
},
{
closed = 1;
nodes = (
"310 277 OFFCURVE",
"310 275 OFFCURVE",
"301 275 CURVE SMOOTH",
"265 275 OFFCURVE",
"228 275 OFFCURVE",
"192 275 CURVE SMOOTH",
"186 275 OFFCURVE",
"185 278 OFFCURVE",
"192 300 CURVE SMOOTH",
"204 332 OFFCURVE",
"229 368 OFFCURVE",
"271 368 CURVE SMOOTH",
"308 368 OFFCURVE",
"323 345 OFFCURVE",
"313 295 CURVE SMOOTH"
);
}
);
};
layerId = "D1BC8BBB-1669-4C46-BC21-42BF6808B2B9";
paths = (
{
closed = 1;
nodes = (
"2 105 OFFCURVE",
"19 -5 OFFCURVE",
"197 -5 CURVE SMOOTH",
"264 -5 OFFCURVE",
"343 8 OFFCURVE",
"397 41 CURVE SMOOTH",
"415 52 OFFCURVE",
"422 54 OFFCURVE",
"415 72 CURVE SMOOTH",
"401 119 LINE SMOOTH",
"394 143 OFFCURVE",
"386 137 OFFCURVE",
"365 126 CURVE SMOOTH",
"349 118 OFFCURVE",
"301 98 OFFCURVE",
"255 98 CURVE SMOOTH",
"194 98 OFFCURVE",
"166 138 OFFCURVE",
"172 186 CURVE",
"174 195 OFFCURVE",
"174 198 OFFCURVE",
"183 198 CURVE SMOOTH",
"398 198 LINE SMOOTH",
"426 198 OFFCURVE",
"444 214 OFFCURVE",
"456 271 CURVE SMOOTH",
"476 367 OFFCURVE",
"477 478 OFFCURVE",
"299 478 CURVE SMOOTH",
"126 478 OFFCURVE",
"57 360 OFFCURVE",
"30 237 CURVE SMOOTH"
);
},
{
closed = 1;
nodes = (
"310 277 OFFCURVE",
"310 275 OFFCURVE",
"301 275 CURVE SMOOTH",
"265 275 OFFCURVE",
"228 275 OFFCURVE",
"192 275 CURVE SMOOTH",
"186 275 OFFCURVE",
"185 278 OFFCURVE",
"192 300 CURVE SMOOTH",
"204 332 OFFCURVE",
"229 368 OFFCURVE",
"271 368 CURVE SMOOTH",
"308 368 OFFCURVE",
"323 345 OFFCURVE",
"313 295 CURVE SMOOTH"
);
}
);
width = 486;
}
);
leftKerningGroup = o;
leftMetricsKey = o;
note = e;
rightKerningGroup = e;
unicode = 0065;
},
{
glyphname = f;
lastChange = "2021-06-09 01:53:35 +0000";
layers = (
{
background = {
hints = (
{
horizontal = 1;
place = "{4, 21}";
target = up;
type = BottomGhost;
},
{
horizontal = 1;
place = "{254, 28}";
type = Stem;
},
{
horizontal = 1;
place = "{442, 30}";
type = Stem;
},
{
horizontal = 1;
place = "{682, 30}";
type = Stem;
},
{
place = "{59, 34}";
type = Stem;
},
{
place = "{146, 33}";
type = Stem;
},
{
place = "{400, 33}";
type = Stem;
},
{
horizontal = 1;
place = "{446, 31}";
type = Stem;
}
);
paths = (
{
closed = 1;
nodes = (
"-171 -237 OFFCURVE",
"-129 -179 OFFCURVE",
"-110 -80 CURVE SMOOTH",
"-78 92 OFFCURVE",
"-42 288 OFFCURVE",
"-17 406 CURVE SMOOTH",
"-15 416 OFFCURVE",
"-13 425 OFFCURVE",
"-11 433 CURVE SMOOTH",
"-10 439 OFFCURVE",
"-5 442 OFFCURVE",
"-2 442 CURVE SMOOTH",
"54 442 OFFCURVE",
"109 442 OFFCURVE",
"165 442 CURVE SMOOTH",
"166 442 OFFCURVE",
"169 446 OFFCURVE",
"169 446 CURVE",
"171 453 OFFCURVE",
"172 461 OFFCURVE",
"174 468 CURVE",
"174 470 OFFCURVE",
"173 472 OFFCURVE",
"172 472 CURVE SMOOTH",
"116 472 OFFCURVE",
"60 472 OFFCURVE",
"4 472 CURVE SMOOTH",
"-2 472 OFFCURVE",
"-3 476 OFFCURVE",
"-2 481 CURVE SMOOTH",
"8 530 OFFCURVE",
"19 578 OFFCURVE",
"47 622 CURVE SMOOTH",
"74 664 OFFCURVE",
"117 681 OFFCURVE",
"188 681 CURVE SMOOTH",
"226 681 OFFCURVE",
"251 675 OFFCURVE",
"262 669 CURVE",
"265 668 OFFCURVE",
"267 668 OFFCURVE",
"267 670 CURVE",
"269 675 OFFCURVE",
"272 681 OFFCURVE",
"274 686 CURVE",
"274 687 OFFCURVE",
"277 689 OFFCURVE",
"273 691 CURVE SMOOTH",
"264 697 OFFCURVE",
"232 712 OFFCURVE",
"195 712 CURVE SMOOTH",
"123 712 OFFCURVE",
"67 691 OFFCURVE",
"30 650 CURVE SMOOTH",
"-14 601 OFFCURVE",
"-25 537 OFFCURVE",
"-36 480 CURVE SMOOTH",
"-37 473 OFFCURVE",
"-40 472 OFFCURVE",
"-45 472 CURVE SMOOTH",
"-68 472 OFFCURVE",
"-91 472 OFFCURVE",
"-114 472 CURVE SMOOTH",
"-116 472 OFFCURVE",
"-119 468 OFFCURVE",
"-119 468 CURVE",
"-120 461 OFFCURVE",
"-122 453 OFFCURVE",
"-123 446 CURVE",
"-123 446 OFFCURVE",
"-123 442 OFFCURVE",
"-121 442 CURVE SMOOTH",
"-98 442 OFFCURVE",
"-76 442 OFFCURVE",
"-53 442 CURVE SMOOTH",
"-47 442 OFFCURVE",
"-45 438 OFFCURVE",
"-45 433 CURVE",
"-77 278 OFFCURVE",
"-109 104 OFFCURVE",
"-143 -80 CURVE SMOOTH",
"-158 -153 OFFCURVE",
"-193 -208 OFFCURVE",
"-269 -208 CURVE SMOOTH",
"-290 -208 OFFCURVE",
"-313 -203 OFFCURVE",
"-333 -195 CURVE",
"-338 -194 OFFCURVE",
"-339 -194 OFFCURVE",
"-340 -198 CURVE SMOOTH",
"-342 -205 OFFCURVE",
"-343 -211 OFFCURVE",
"-345 -218 CURVE",
"-346 -221 OFFCURVE",
"-346 -223 OFFCURVE",
"-344 -224 CURVE",
"-346 -224 OFFCURVE",
"-315 -237 OFFCURVE",
"-270 -237 CURVE SMOOTH"
);
}
);
};
layerId = "707362F1-A677-446A-8636-E10BE3A7FAFF";
paths = (
{
closed = 1;
nodes = (
"235 -237 OFFCURVE",
"277 -179 OFFCURVE",
"296 -80 CURVE SMOOTH",
"328 92 OFFCURVE",
"364 288 OFFCURVE",
"389 406 CURVE SMOOTH",
"391 416 OFFCURVE",
"393 425 OFFCURVE",
"395 433 CURVE SMOOTH",
"396 439 OFFCURVE",
"401 442 OFFCURVE",
"404 442 CURVE SMOOTH",
"460 442 OFFCURVE",
"515 442 OFFCURVE",
"571 442 CURVE SMOOTH",
"572 442 OFFCURVE",
"575 446 OFFCURVE",
"575 446 CURVE",
"577 453 OFFCURVE",
"578 461 OFFCURVE",
"580 468 CURVE",
"580 470 OFFCURVE",
"579 472 OFFCURVE",
"578 472 CURVE SMOOTH",
"522 472 OFFCURVE",
"466 472 OFFCURVE",
"410 472 CURVE SMOOTH",
"404 472 OFFCURVE",
"403 476 OFFCURVE",
"404 481 CURVE SMOOTH",
"414 530 OFFCURVE",
"425 578 OFFCURVE",
"453 622 CURVE SMOOTH",
"480 664 OFFCURVE",
"523 681 OFFCURVE",
"594 681 CURVE SMOOTH",
"632 681 OFFCURVE",
"657 675 OFFCURVE",
"668 669 CURVE",
"671 668 OFFCURVE",
"673 668 OFFCURVE",
"673 670 CURVE",
"675 675 OFFCURVE",
"678 681 OFFCURVE",
"680 686 CURVE",
"680 687 OFFCURVE",
"683 689 OFFCURVE",
"679 691 CURVE SMOOTH",
"670 697 OFFCURVE",
"638 712 OFFCURVE",
"601 712 CURVE SMOOTH",
"529 712 OFFCURVE",
"473 691 OFFCURVE",
"436 650 CURVE SMOOTH",
"392 601 OFFCURVE",
"381 537 OFFCURVE",
"370 480 CURVE SMOOTH",
"369 473 OFFCURVE",
"366 472 OFFCURVE",
"361 472 CURVE SMOOTH",
"338 472 OFFCURVE",
"315 472 OFFCURVE",
"292 472 CURVE SMOOTH",
"290 472 OFFCURVE",
"287 468 OFFCURVE",
"287 468 CURVE",
"286 461 OFFCURVE",
"284 453 OFFCURVE",
"283 446 CURVE",
"283 446 OFFCURVE",
"283 442 OFFCURVE",
"285 442 CURVE SMOOTH",
"308 442 OFFCURVE",
"330 442 OFFCURVE",
"353 442 CURVE SMOOTH",
"359 442 OFFCURVE",
"361 438 OFFCURVE",
"361 433 CURVE",
"329 278 OFFCURVE",
"297 104 OFFCURVE",
"263 -80 CURVE SMOOTH",
"248 -153 OFFCURVE",
"213 -208 OFFCURVE",
"137 -208 CURVE SMOOTH",
"116 -208 OFFCURVE",
"93 -203 OFFCURVE",
"73 -195 CURVE",
"68 -194 OFFCURVE",
"67 -194 OFFCURVE",
"66 -198 CURVE SMOOTH",
"64 -205 OFFCURVE",
"63 -211 OFFCURVE",
"61 -218 CURVE",
"60 -221 OFFCURVE",
"60 -223 OFFCURVE",
"62 -224 CURVE",
"60 -224 OFFCURVE",
"91 -237 OFFCURVE",
"136 -237 CURVE SMOOTH"
);
}
);
width = 649;
},
{
background = {
paths = (
{
closed = 1;
nodes = (
"85 -230 OFFCURVE",
"152 -157 OFFCURVE",
"175 -28 CURVE SMOOTH",
"206 145 OFFCURVE",
"206 178 OFFCURVE",
"230 296 CURVE SMOOTH",
"232 306 OFFCURVE",
"241 348 OFFCURVE",
"242 356 CURVE SMOOTH",
"243 362 OFFCURVE",
"250 366 OFFCURVE",
"253 366 CURVE SMOOTH",
"309 366 OFFCURVE",
"309 366 OFFCURVE",
"365 366 CURVE SMOOTH",
"380 366 OFFCURVE",
"384 367 OFFCURVE",
"386 382 CURVE",
"391 406 OFFCURVE",
"399 446 OFFCURVE",
"401 453 CURVE",
"405 471 OFFCURVE",
"401 472 OFFCURVE",
"391 472 CURVE SMOOTH",
"335 472 OFFCURVE",
"289 472 OFFCURVE",
"275 472 CURVE SMOOTH",
"269 472 OFFCURVE",
"268 476 OFFCURVE",
"269 481 CURVE SMOOTH",
"271 491 OFFCURVE",
"278 524 OFFCURVE",
"282 537 CURVE SMOOTH",
"297 583 OFFCURVE",
"328 608 OFFCURVE",
"365 608 CURVE SMOOTH",
"396 608 OFFCURVE",
"426 596 OFFCURVE",
"444 583 CURVE",
"452 576 OFFCURVE",
"456 577 OFFCURVE",
"466 595 CURVE",
"477 616 OFFCURVE",
"489 637 OFFCURVE",
"500 658 CURVE SMOOTH",
"506 670 OFFCURVE",
"505 676 OFFCURVE",
"489 685 CURVE SMOOTH",
"472 695 OFFCURVE",
"436 712 OFFCURVE",
"394 712 CURVE SMOOTH",
"295 712 OFFCURVE",
"231 681 OFFCURVE",
"194 640 CURVE SMOOTH",
"150 591 OFFCURVE",
"133 537 OFFCURVE",
"125 480 CURVE SMOOTH",
"124 473 OFFCURVE",
"121 472 OFFCURVE",
"116 472 CURVE SMOOTH",
"108 472 OFFCURVE",
"113 472 OFFCURVE",
"77 472 CURVE SMOOTH",
"63 472 OFFCURVE",
"59 473 OFFCURVE",
"56 455 CURVE",
"50 430 OFFCURVE",
"45 406 OFFCURVE",
"39 381 CURVE",
"36 366 OFFCURVE",
"42 366 OFFCURVE",
"51 366 CURVE SMOOTH",
"63 366 OFFCURVE",
"77 366 OFFCURVE",
"90 366 CURVE SMOOTH",
"96 366 OFFCURVE",
"99 363 OFFCURVE",
"97 355 CURVE",
"65 200 OFFCURVE",
"67 154 OFFCURVE",
"33 -30 CURVE SMOOTH",
"18 -103 OFFCURVE",
"-18 -129 OFFCURVE",
"-64 -129 CURVE SMOOTH",
"-85 -129 OFFCURVE",
"-96 -130 OFFCURVE",
"-116 -122 CURVE",
"-124 -119 OFFCURVE",
"-126 -117 OFFCURVE",
"-129 -129 CURVE SMOOTH",
"-131 -136 OFFCURVE",
"-142 -191 OFFCURVE",
"-144 -198 CURVE",
"-146 -207 OFFCURVE",
"-144 -216 OFFCURVE",
"-137 -219 CURVE",
"-139 -219 OFFCURVE",
"-115 -230 OFFCURVE",
"-70 -230 CURVE SMOOTH"
);
}
);
};
layerId = "D1BC8BBB-1669-4C46-BC21-42BF6808B2B9";
paths = (
{
closed = 1;
nodes = (
"85 -230 OFFCURVE",
"152 -157 OFFCURVE",
"175 -28 CURVE SMOOTH",
"206 145 OFFCURVE",
"206 178 OFFCURVE",
"230 296 CURVE SMOOTH",
"232 306 OFFCURVE",
"241 348 OFFCURVE",
"242 356 CURVE SMOOTH",
"243 362 OFFCURVE",
"250 366 OFFCURVE",
"253 366 CURVE SMOOTH",
"309 366 OFFCURVE",
"309 366 OFFCURVE",
"365 366 CURVE SMOOTH",
"380 366 OFFCURVE",
"384 367 OFFCURVE",
"386 382 CURVE",
"391 406 OFFCURVE",
"399 446 OFFCURVE",
"401 453 CURVE",
"405 471 OFFCURVE",
"401 472 OFFCURVE",
"391 472 CURVE SMOOTH",
"335 472 OFFCURVE",
"289 472 OFFCURVE",
"275 472 CURVE SMOOTH",
"269 472 OFFCURVE",
"268 476 OFFCURVE",
"269 481 CURVE SMOOTH",
"271 491 OFFCURVE",
"278 524 OFFCURVE",
"282 537 CURVE SMOOTH",
"297 583 OFFCURVE",
"328 608 OFFCURVE",
"365 608 CURVE SMOOTH",
"396 608 OFFCURVE",
"426 596 OFFCURVE",
"444 583 CURVE",
"452 576 OFFCURVE",
"456 577 OFFCURVE",
"466 595 CURVE",
"477 616 OFFCURVE",
"489 637 OFFCURVE",
"500 658 CURVE SMOOTH",
"506 670 OFFCURVE",
"505 676 OFFCURVE",
"489 685 CURVE SMOOTH",
"472 695 OFFCURVE",
"436 712 OFFCURVE",
"394 712 CURVE SMOOTH",
"295 712 OFFCURVE",
"231 681 OFFCURVE",
"194 640 CURVE SMOOTH",
"150 591 OFFCURVE",
"133 537 OFFCURVE",
"125 480 CURVE SMOOTH",
"124 473 OFFCURVE",
"121 472 OFFCURVE",
"116 472 CURVE SMOOTH",
"108 472 OFFCURVE",
"113 472 OFFCURVE",
"77 472 CURVE SMOOTH",
"63 472 OFFCURVE",
"59 473 OFFCURVE",
"56 455 CURVE",
"50 430 OFFCURVE",
"45 406 OFFCURVE",
"39 381 CURVE",
"36 366 OFFCURVE",
"42 366 OFFCURVE",
"51 366 CURVE SMOOTH",
"63 366 OFFCURVE",
"77 366 OFFCURVE",
"90 366 CURVE SMOOTH",
"96 366 OFFCURVE",
"99 363 OFFCURVE",
"97 355 CURVE",
"65 200 OFFCURVE",
"67 154 OFFCURVE",
"33 -30 CURVE SMOOTH",
"18 -103 OFFCURVE",
"-18 -129 OFFCURVE",
"-64 -129 CURVE SMOOTH",
"-85 -129 OFFCURVE",
"-96 -130 OFFCURVE",
"-116 -122 CURVE",
"-124 -119 OFFCURVE",
"-126 -117 OFFCURVE",
"-129 -129 CURVE SMOOTH",
"-131 -136 OFFCURVE",
"-142 -191 OFFCURVE",
"-144 -198 CURVE",
"-146 -207 OFFCURVE",
"-144 -216 OFFCURVE",
"-137 -219 CURVE",
"-139 -219 OFFCURVE",
"-115 -230 OFFCURVE",
"-70 -230 CURVE SMOOTH"
);
}
);
width = 377;
}
);
leftKerningGroup = f;
note = f;
rightKerningGroup = f;
unicode = 0066;
},
{
color = 0;
glyphname = g;
lastChange = "2021-06-09 01:53:41 +0000";
layers = (
{
background = {
paths = (
{
closed = 1;
nodes = (
"9 104 OFFCURVE",
"41 9 OFFCURVE",
"178 9 CURVE SMOOTH",
"219 9 OFFCURVE",
"266 19 OFFCURVE",
"303 29 CURVE SMOOTH",
"314 32 OFFCURVE",
"323 35 OFFCURVE",
"320 26 CURVE SMOOTH",
"320 23 OFFCURVE",
"318 20 OFFCURVE",
"318 18 CURVE SMOOTH",
"282 -74 OFFCURVE",
"212 -112 OFFCURVE",
"139 -112 CURVE SMOOTH",
"84 -112 OFFCURVE",
"45 -93 OFFCURVE",
"11 -73 CURVE SMOOTH",
"9 -72 OFFCURVE",
"5 -71 OFFCURVE",
"3 -74 CURVE",
"-1 -79 OFFCURVE",
"-5 -85 OFFCURVE",
"-9 -90 CURVE",
"-11 -93 OFFCURVE",
"-12 -94 OFFCURVE",
"-5 -100 CURVE SMOOTH",
"28 -129 OFFCURVE",
"82 -140 OFFCURVE",
"127 -140 CURVE SMOOTH",
"241 -140 OFFCURVE",
"315 -91 OFFCURVE",
"352 22 CURVE SMOOTH",
"406 183 OFFCURVE",
"428 327 OFFCURVE",
"437 415 CURVE SMOOTH",
"440 439 OFFCURVE",
"436 450 OFFCURVE",
"425 454 CURVE SMOOTH",
"391 470 OFFCURVE",
"339 478 OFFCURVE",
"288 478 CURVE SMOOTH",
"134 478 OFFCURVE",
"69 374 OFFCURVE",
"40 242 CURVE SMOOTH"
);
},
{
closed = 1;
nodes = (
"99 364 OFFCURVE",
"160 448 OFFCURVE",
"284 448 CURVE SMOOTH",
"324 448 OFFCURVE",
"370 441 OFFCURVE",
"388 432 CURVE SMOOTH",
"405 423 OFFCURVE",
"403 407 OFFCURVE",
"402 397 CURVE SMOOTH",
"393 323 OFFCURVE",
"369 178 OFFCURVE",
"341 87 CURVE SMOOTH",
"338 76 OFFCURVE",
"322 64 OFFCURVE",
"302 57 CURVE SMOOTH",
"270 46 OFFCURVE",
"230 41 OFFCURVE",
"193 41 CURVE SMOOTH",
"70 41 OFFCURVE",
"48 123 OFFCURVE",
"73 242 CURVE SMOOTH"
);
}
);
};
hints = (
{
horizontal = 1;
place = "{-85, 76}";
type = Stem;
},
{
horizontal = 1;
place = "{53, 81}";
type = Stem;
},
{
horizontal = 1;
place = "{489, 78}";
type = Stem;
},
{
place = "{99, 81}";
type = Stem;
},
{
place = "{435, 82}";
type = Stem;
}
);
layerId = "707362F1-A677-446A-8636-E10BE3A7FAFF";
paths = (
{
closed = 1;
nodes = (
"27 104 OFFCURVE",
"59 9 OFFCURVE",
"196 9 CURVE SMOOTH",
"237 9 OFFCURVE",
"284 19 OFFCURVE",
"321 29 CURVE SMOOTH",
"332 32 OFFCURVE",
"341 35 OFFCURVE",
"338 26 CURVE SMOOTH",
"338 23 OFFCURVE",
"336 20 OFFCURVE",
"336 18 CURVE SMOOTH",
"300 -74 OFFCURVE",
"230 -112 OFFCURVE",
"157 -112 CURVE SMOOTH",
"102 -112 OFFCURVE",
"63 -93 OFFCURVE",
"29 -73 CURVE SMOOTH",
"27 -72 OFFCURVE",
"23 -71 OFFCURVE",
"21 -74 CURVE",
"17 -79 OFFCURVE",
"13 -85 OFFCURVE",
"9 -90 CURVE",
"7 -93 OFFCURVE",
"6 -94 OFFCURVE",
"13 -100 CURVE SMOOTH",
"46 -129 OFFCURVE",
"100 -140 OFFCURVE",
"145 -140 CURVE SMOOTH",
"259 -140 OFFCURVE",
"333 -91 OFFCURVE",
"370 22 CURVE SMOOTH",
"424 183 OFFCURVE",
"446 327 OFFCURVE",
"455 415 CURVE SMOOTH",
"458 439 OFFCURVE",
"454 450 OFFCURVE",
"443 454 CURVE SMOOTH",
"409 470 OFFCURVE",
"357 478 OFFCURVE",
"306 478 CURVE SMOOTH",
"152 478 OFFCURVE",
"87 374 OFFCURVE",
"58 242 CURVE SMOOTH"
);
},
{
closed = 1;
nodes = (
"117 364 OFFCURVE",
"178 448 OFFCURVE",
"302 448 CURVE SMOOTH",
"342 448 OFFCURVE",
"388 441 OFFCURVE",
"406 432 CURVE SMOOTH",
"423 423 OFFCURVE",
"421 407 OFFCURVE",
"420 397 CURVE SMOOTH",
"411 323 OFFCURVE",
"387 178 OFFCURVE",
"359 87 CURVE SMOOTH",
"356 76 OFFCURVE",
"340 64 OFFCURVE",
"320 57 CURVE SMOOTH",
"288 46 OFFCURVE",
"248 41 OFFCURVE",
"211 41 CURVE SMOOTH",
"88 41 OFFCURVE",
"66 123 OFFCURVE",
"91 242 CURVE SMOOTH"
);
}
);
width = 578;
},
{
background = {
paths = (
{
closed = 1;
nodes = (
"2 105 OFFCURVE",
"93 45 OFFCURVE",
"195 45 CURVE SMOOTH",
"210 45 OFFCURVE",
"227 46 OFFCURVE",
"234 47 CURVE SMOOTH",
"247 49 OFFCURVE",
"247 40 OFFCURVE",
"245 31 CURVE SMOOTH",
"244 29 OFFCURVE",
"243 28 OFFCURVE",
"243 27 CURVE SMOOTH",
"227 -17 OFFCURVE",
"178 -21 OFFCURVE",
"155 -21 CURVE SMOOTH",
"132 -21 OFFCURVE",
"76 1 OFFCURVE",
"61 14 CURVE SMOOTH",
"47 25 OFFCURVE",
"45 24 OFFCURVE",
"30 6 CURVE SMOOTH",
"21 -5 OFFCURVE",
"-5 -38 OFFCURVE",
"-13 -48 CURVE SMOOTH",
"-23 -59 OFFCURVE",
"-17 -71 OFFCURVE",
"-13 -75 CURVE SMOOTH",
"34 -115 OFFCURVE",
"95 -127 OFFCURVE",
"146 -127 CURVE SMOOTH",
"272 -127 OFFCURVE",
"359 -74 OFFCURVE",
"399 42 CURVE SMOOTH",
"437 153 OFFCURVE",
"464 281 OFFCURVE",
"475 394 CURVE SMOOTH",
"478 430 OFFCURVE",
"481 440 OFFCURVE",
"446 454 CURVE SMOOTH",
"410 469 OFFCURVE",
"358 478 OFFCURVE",
"305 478 CURVE SMOOTH",
"129 478 OFFCURVE",
"60 378 OFFCURVE",
"31 242 CURVE SMOOTH"
);
},
{
closed = 1;
nodes = (
"205 335 OFFCURVE",
"229 383 OFFCURVE",
"277 383 CURVE SMOOTH",
"298 383 OFFCURVE",
"307 380 OFFCURVE",
"317 375 CURVE SMOOTH",
"321 373 OFFCURVE",
"322 360 OFFCURVE",
"320 354 CURVE SMOOTH",
"317 328 OFFCURVE",
"297 221 OFFCURVE",
"284 176 CURVE SMOOTH",
"281 165 OFFCURVE",
"277 160 OFFCURVE",
"269 157 CURVE SMOOTH",
"257 152 OFFCURVE",
"243 151 OFFCURVE",
"228 151 CURVE SMOOTH",
"178 151 OFFCURVE",
"176 201 OFFCURVE",
"190 267 CURVE SMOOTH"
);
}
);
};
layerId = "D1BC8BBB-1669-4C46-BC21-42BF6808B2B9";
paths = (
{
closed = 1;
nodes = (
"2 105 OFFCURVE",
"93 45 OFFCURVE",
"195 45 CURVE SMOOTH",
"210 45 OFFCURVE",
"227 46 OFFCURVE",
"234 47 CURVE SMOOTH",
"247 49 OFFCURVE",
"247 40 OFFCURVE",
"245 31 CURVE SMOOTH",
"244 29 OFFCURVE",
"243 28 OFFCURVE",
"243 27 CURVE SMOOTH",
"227 -17 OFFCURVE",
"178 -21 OFFCURVE",
"155 -21 CURVE SMOOTH",
"132 -21 OFFCURVE",
"76 1 OFFCURVE",
"61 14 CURVE SMOOTH",
"47 25 OFFCURVE",
"45 24 OFFCURVE",
"30 6 CURVE SMOOTH",
"21 -5 OFFCURVE",
"-5 -38 OFFCURVE",
"-13 -48 CURVE SMOOTH",
"-23 -59 OFFCURVE",
"-17 -71 OFFCURVE",
"-13 -75 CURVE SMOOTH",
"34 -115 OFFCURVE",
"95 -127 OFFCURVE",
"146 -127 CURVE SMOOTH",
"272 -127 OFFCURVE",
"359 -74 OFFCURVE",
"399 42 CURVE SMOOTH",
"437 153 OFFCURVE",
"464 281 OFFCURVE",
"475 394 CURVE SMOOTH",
"478 430 OFFCURVE",
"481 440 OFFCURVE",
"446 454 CURVE SMOOTH",
"410 469 OFFCURVE",
"358 478 OFFCURVE",
"305 478 CURVE SMOOTH",
"129 478 OFFCURVE",
"60 378 OFFCURVE",
"31 242 CURVE SMOOTH"
);
},
{
closed = 1;
nodes = (
"205 335 OFFCURVE",
"229 383 OFFCURVE",
"277 383 CURVE SMOOTH",
"298 383 OFFCURVE",
"307 380 OFFCURVE",
"317 375 CURVE SMOOTH",
"321 373 OFFCURVE",
"322 360 OFFCURVE",
"320 354 CURVE SMOOTH",
"317 328 OFFCURVE",
"297 221 OFFCURVE",
"284 176 CURVE SMOOTH",
"281 165 OFFCURVE",
"277 160 OFFCURVE",
"269 157 CURVE SMOOTH",
"257 152 OFFCURVE",
"243 151 OFFCURVE",
"228 151 CURVE SMOOTH",
"178 151 OFFCURVE",
"176 201 OFFCURVE",
"190 267 CURVE SMOOTH"
);
}
);
width = 483;
}
);
leftKerningGroup = o;
leftMetricsKey = o;
note = g;
rightKerningGroup = d;
rightMetricsKey = d;
unicode = 0067;
},
{
glyphname = h;
lastChange = "2021-06-09 01:53:46 +0000";
layers = (
{
background = {
paths = (
{
closed = 1;
nodes = (
"71 1 OFFCURVE",
"72 0 OFFCURVE",
"75 0 CURVE SMOOTH",
"100 0 LINE SMOOTH",
"103 0 OFFCURVE",
"104 1 OFFCURVE",
"105 4 CURVE SMOOTH",
"189 401 LINE SMOOTH",
"193 419 OFFCURVE",
"203 424 OFFCURVE",
"213 426 CURVE SMOOTH",
"253 435 OFFCURVE",
"303 444 OFFCURVE",
"336 444 CURVE SMOOTH",
"401 444 OFFCURVE",
"469 414 OFFCURVE",
"430 230 CURVE SMOOTH",
"414 157 OFFCURVE",
"394 74 OFFCURVE",
"373 7 CURVE SMOOTH",
"372 1 OFFCURVE",
"373 0 OFFCURVE",
"379 0 CURVE SMOOTH",
"384 0 OFFCURVE",
"390 0 OFFCURVE",
"395 0 CURVE SMOOTH",
"401 0 OFFCURVE",
"404 1 OFFCURVE",
"405 5 CURVE SMOOTH",
"425 70 OFFCURVE",
"447 156 OFFCURVE",
"463 230 CURVE SMOOTH",
"506 433 OFFCURVE",
"428 476 OFFCURVE",
"343 476 CURVE SMOOTH",
"297 476 OFFCURVE",
"254 465 OFFCURVE",
"212 454 CURVE SMOOTH",
"201 451 OFFCURVE",
"201 455 OFFCURVE",
"202 463 CURVE SMOOTH",
"219 543 OFFCURVE",
"237 624 OFFCURVE",
"254 704 CURVE SMOOTH",
"254 707 OFFCURVE",
"253 708 OFFCURVE",
"250 708 CURVE SMOOTH",
"242 708 OFFCURVE",
"233 708 OFFCURVE",
"225 708 CURVE SMOOTH",
"222 708 OFFCURVE",
"221 707 OFFCURVE",
"221 704 CURVE SMOOTH",
"171 471 OFFCURVE",
"121 237 OFFCURVE",
"72 4 CURVE SMOOTH"
);
}
);
};
hints = (
{
horizontal = 1;
place = "{12, 21}";
target = up;
type = BottomGhost;
},
{
horizontal = 1;
place = "{461, 38}";
type = Stem;
},
{
place = "{68, 41}";
type = Stem;
},
{
place = "{382, 41}";
type = Stem;
}
);
layerId = "707362F1-A677-446A-8636-E10BE3A7FAFF";
paths = (
{
closed = 1;
nodes = (
"79 1 OFFCURVE",
"80 0 OFFCURVE",
"83 0 CURVE SMOOTH",
"108 0 LINE SMOOTH",
"111 0 OFFCURVE",
"112 1 OFFCURVE",
"113 4 CURVE SMOOTH",
"197 401 LINE SMOOTH",
"201 419 OFFCURVE",
"211 424 OFFCURVE",
"221 426 CURVE SMOOTH",
"261 435 OFFCURVE",
"311 444 OFFCURVE",
"344 444 CURVE SMOOTH",
"409 444 OFFCURVE",
"477 414 OFFCURVE",
"438 230 CURVE SMOOTH",
"422 157 OFFCURVE",
"402 74 OFFCURVE",
"381 7 CURVE SMOOTH",
"380 1 OFFCURVE",
"381 0 OFFCURVE",
"387 0 CURVE SMOOTH",
"392 0 OFFCURVE",
"398 0 OFFCURVE",
"403 0 CURVE SMOOTH",
"409 0 OFFCURVE",
"412 1 OFFCURVE",
"413 5 CURVE SMOOTH",
"433 70 OFFCURVE",
"455 156 OFFCURVE",
"471 230 CURVE SMOOTH",
"514 433 OFFCURVE",
"436 476 OFFCURVE",
"351 476 CURVE SMOOTH",
"305 476 OFFCURVE",
"262 465 OFFCURVE",
"220 454 CURVE SMOOTH",
"209 451 OFFCURVE",
"209 455 OFFCURVE",
"210 463 CURVE SMOOTH",
"227 543 OFFCURVE",
"245 624 OFFCURVE",
"262 704 CURVE SMOOTH",
"262 707 OFFCURVE",
"261 708 OFFCURVE",
"258 708 CURVE SMOOTH",
"250 708 OFFCURVE",
"241 708 OFFCURVE",
"233 708 CURVE SMOOTH",
"230 708 OFFCURVE",
"229 707 OFFCURVE",
"229 704 CURVE SMOOTH",
"179 471 OFFCURVE",
"129 237 OFFCURVE",
"80 4 CURVE SMOOTH"
);
}
);
width = 558;
},
{
background = {
paths = (
{
closed = 1;
nodes = (
"-9 6 OFFCURVE",
"-4 0 OFFCURVE",
"6 0 CURVE SMOOTH",
"123 0 LINE SMOOTH",
"131 0 OFFCURVE",
"138 6 OFFCURVE",
"140 14 CURVE SMOOTH",
"211 347 LINE SMOOTH",
"213 358 OFFCURVE",
"220 365 OFFCURVE",
"228 368 CURVE SMOOTH",
"235 371 OFFCURVE",
"242 372 OFFCURVE",
"249 372 CURVE SMOOTH",
"317 372 OFFCURVE",
"300 294 OFFCURVE",
"276 190 CURVE SMOOTH",
"263 135 OFFCURVE",
"247 78 OFFCURVE",
"230 27 CURVE",
"219 0 OFFCURVE",
"217 0 OFFCURVE",
"241 0 CURVE SMOOTH",
"277 0 OFFCURVE",
"313 0 OFFCURVE",
"349 0 CURVE SMOOTH",
"360 0 OFFCURVE",
"367 1 OFFCURVE",
"370 11 CURVE",
"392 65 OFFCURVE",
"423 163 OFFCURVE",
"438 249 CURVE SMOOTH",
"466 407 OFFCURVE",
"441 479 OFFCURVE",
"312 479 CURVE SMOOTH",
"290 479 OFFCURVE",
"257 473 OFFCURVE",
"250 471 CURVE SMOOTH",
"243 468 OFFCURVE",
"236 468 OFFCURVE",
"239 480 CURVE SMOOTH",
"254 551 OFFCURVE",
"269 623 OFFCURVE",
"285 694 CURVE SMOOTH",
"286 702 OFFCURVE",
"281 708 OFFCURVE",
"273 708 CURVE SMOOTH",
"234 708 OFFCURVE",
"195 708 OFFCURVE",
"156 708 CURVE SMOOTH",
"146 708 OFFCURVE",
"139 702 OFFCURVE",
"138 694 CURVE SMOOTH",
"89 467 OFFCURVE",
"41 241 OFFCURVE",
"-7 14 CURVE SMOOTH"
);
}
);
};
layerId = "D1BC8BBB-1669-4C46-BC21-42BF6808B2B9";
paths = (
{
closed = 1;
nodes = (
"-9 6 OFFCURVE",
"-4 0 OFFCURVE",
"6 0 CURVE SMOOTH",
"123 0 LINE SMOOTH",
"131 0 OFFCURVE",
"138 6 OFFCURVE",
"140 14 CURVE SMOOTH",
"211 347 LINE SMOOTH",
"213 358 OFFCURVE",
"220 365 OFFCURVE",
"228 368 CURVE SMOOTH",
"235 371 OFFCURVE",
"242 372 OFFCURVE",
"249 372 CURVE SMOOTH",
"317 372 OFFCURVE",
"300 294 OFFCURVE",
"276 190 CURVE SMOOTH",
"263 135 OFFCURVE",
"247 78 OFFCURVE",
"230 27 CURVE",
"219 0 OFFCURVE",
"217 0 OFFCURVE",
"241 0 CURVE SMOOTH",
"277 0 OFFCURVE",
"313 0 OFFCURVE",
"349 0 CURVE SMOOTH",
"360 0 OFFCURVE",
"367 1 OFFCURVE",
"370 11 CURVE",
"392 65 OFFCURVE",
"423 163 OFFCURVE",
"438 249 CURVE SMOOTH",
"466 407 OFFCURVE",
"441 479 OFFCURVE",
"312 479 CURVE SMOOTH",
"290 479 OFFCURVE",
"257 473 OFFCURVE",
"250 471 CURVE SMOOTH",
"243 468 OFFCURVE",
"236 468 OFFCURVE",
"239 480 CURVE SMOOTH",
"254 551 OFFCURVE",
"269 623 OFFCURVE",
"285 694 CURVE SMOOTH",
"286 702 OFFCURVE",
"281 708 OFFCURVE",
"273 708 CURVE SMOOTH",
"234 708 OFFCURVE",
"195 708 OFFCURVE",
"156 708 CURVE SMOOTH",
"146 708 OFFCURVE",
"139 702 OFFCURVE",
"138 694 CURVE SMOOTH",
"89 467 OFFCURVE",
"41 241 OFFCURVE",
"-7 14 CURVE SMOOTH"
);
}
);
width = 466;
}
);
leftKerningGroup = h;
leftMetricsKey = n;
note = h;
rightKerningGroup = n;
rightMetricsKey = n;
unicode = 0068;
},
{
glyphname = i;
lastChange = "2021-06-09 01:53:48 +0000";
layers = (
{
background = {
paths = (
{
closed = 1;
nodes = (
"221 617 OFFCURVE",
"221 624 OFFCURVE",
"201 624 CURVE SMOOTH",
"182 624 OFFCURVE",
"176 617 OFFCURVE",
"173 603 CURVE SMOOTH",
"170 588 OFFCURVE",
"173 582 OFFCURVE",
"192 582 CURVE SMOOTH",
"212 582 OFFCURVE",
"215 588 OFFCURVE",
"218 603 CURVE SMOOTH"
);
},
{
closed = 1;
nodes = (
"184 468 LINE SMOOTH",
"185 471 OFFCURVE",
"183 472 OFFCURVE",
"182 472 CURVE SMOOTH",
"156 472 LINE SMOOTH",
"153 472 OFFCURVE",
"152 471 OFFCURVE",
"151 468 CURVE SMOOTH",
"53 4 LINE SMOOTH",
"52 1 OFFCURVE",
"53 0 OFFCURVE",
"56 0 CURVE SMOOTH",
"82 0 LINE SMOOTH",
"83 0 OFFCURVE",
"85 1 OFFCURVE",
"86 4 CURVE SMOOTH"
);
}
);
};
hints = (
{
horizontal = 1;
place = "{38, 21}";
target = up;
type = BottomGhost;
},
{
horizontal = 1;
place = "{506, -20}";
target = down;
type = TopGhost;
},
{
horizontal = 1;
place = "{617, 74}";
type = Stem;
},
{
place = "{121, 67}";
type = Stem;
}
);
layerId = "707362F1-A677-446A-8636-E10BE3A7FAFF";
paths = (
{
closed = 1;
nodes = (
"255 617 OFFCURVE",
"255 624 OFFCURVE",
"235 624 CURVE SMOOTH",
"216 624 OFFCURVE",
"210 617 OFFCURVE",
"207 603 CURVE SMOOTH",
"204 588 OFFCURVE",
"207 582 OFFCURVE",
"226 582 CURVE SMOOTH",
"246 582 OFFCURVE",
"249 588 OFFCURVE",
"252 603 CURVE SMOOTH"
);
},
{
closed = 1;
nodes = (
"218 468 LINE SMOOTH",
"219 471 OFFCURVE",
"217 472 OFFCURVE",
"216 472 CURVE SMOOTH",
"190 472 LINE SMOOTH",
"187 472 OFFCURVE",
"186 471 OFFCURVE",
"185 468 CURVE SMOOTH",
"87 4 LINE SMOOTH",
"86 1 OFFCURVE",
"87 0 OFFCURVE",
"90 0 CURVE SMOOTH",
"116 0 LINE SMOOTH",
"117 0 OFFCURVE",
"119 1 OFFCURVE",
"120 4 CURVE SMOOTH"
);
}
);
width = 325;
},
{
background = {
paths = (
{
closed = 1;
nodes = (
"279 640 OFFCURVE",
"274 667 OFFCURVE",
"209 667 CURVE SMOOTH",
"150 667 OFFCURVE",
"126 640 OFFCURVE",
"118 601 CURVE SMOOTH",
"108 556 OFFCURVE",
"121 532 OFFCURVE",
"180 532 CURVE SMOOTH",
"241 532 OFFCURVE",
"261 556 OFFCURVE",
"271 601 CURVE SMOOTH"
);
},
{
closed = 1;
nodes = (
"237 458 LINE SMOOTH",
"239 466 OFFCURVE",
"233 472 OFFCURVE",
"225 472 CURVE SMOOTH",
"108 472 LINE SMOOTH",
"100 472 OFFCURVE",
"93 466 OFFCURVE",
"91 458 CURVE SMOOTH",
"-3 14 LINE SMOOTH",
"-5 6 OFFCURVE",
"0 0 OFFCURVE",
"8 0 CURVE SMOOTH",
"125 0 LINE SMOOTH",
"133 0 OFFCURVE",
"141 6 OFFCURVE",
"143 14 CURVE SMOOTH"
);
}
);
};
layerId = "D1BC8BBB-1669-4C46-BC21-42BF6808B2B9";
paths = (
{
closed = 1;
nodes = (
"279 640 OFFCURVE",
"274 667 OFFCURVE",
"209 667 CURVE SMOOTH",
"150 667 OFFCURVE",
"126 640 OFFCURVE",
"118 601 CURVE SMOOTH",
"108 556 OFFCURVE",
"121 532 OFFCURVE",
"180 532 CURVE SMOOTH",
"241 532 OFFCURVE",
"261 556 OFFCURVE",
"271 601 CURVE SMOOTH"
);
},
{
closed = 1;
nodes = (
"237 458 LINE SMOOTH",
"239 466 OFFCURVE",
"233 472 OFFCURVE",
"225 472 CURVE SMOOTH",
"108 472 LINE SMOOTH",
"100 472 OFFCURVE",
"93 466 OFFCURVE",
"91 458 CURVE SMOOTH",
"-3 14 LINE SMOOTH",
"-5 6 OFFCURVE",
"0 0 OFFCURVE",
"8 0 CURVE SMOOTH",
"125 0 LINE SMOOTH",
"133 0 OFFCURVE",
"141 6 OFFCURVE",
"143 14 CURVE SMOOTH"
);
}
);
width = 225;
}
);
leftKerningGroup = i;
leftMetricsKey = n;
note = i;
rightKerningGroup = i;
rightMetricsKey = d;
unicode = 0069;
},
{
color = 0;
glyphname = j;
lastChange = "2021-06-09 01:53:51 +0000";
layers = (
{
background = {
paths = (
{
closed = 1;
nodes = (
"-87 -127 OFFCURVE",
"-48 -70 OFFCURVE",
"-27 30 CURVE SMOOTH",
"67 468 LINE SMOOTH",
"68 471 OFFCURVE",
"65 472 OFFCURVE",
"64 472 CURVE SMOOTH",
"38 472 LINE SMOOTH",
"36 472 OFFCURVE",
"35 471 OFFCURVE",
"34 468 CURVE SMOOTH",
"-60 30 LINE SMOOTH",
"-78 -53 OFFCURVE",
"-104 -98 OFFCURVE",
"-186 -98 CURVE SMOOTH",
"-208 -98 OFFCURVE",
"-233 -93 OFFCURVE",
"-251 -85 CURVE SMOOTH",
"-255 -83 OFFCURVE",
"-257 -84 OFFCURVE",
"-260 -88 CURVE SMOOTH",
"-269 -101 LINE SMOOTH",
"-272 -106 OFFCURVE",
"-271 -109 OFFCURVE",
"-263 -114 CURVE SMOOTH",
"-249 -123 OFFCURVE",
"-211 -127 OFFCURVE",
"-188 -127 CURVE SMOOTH"
);
},
{
closed = 1;
nodes = (
"95 582 OFFCURVE",
"99 588 OFFCURVE",
"102 603 CURVE SMOOTH",
"105 617 OFFCURVE",
"104 624 OFFCURVE",
"84 624 CURVE SMOOTH",
"65 624 OFFCURVE",
"60 617 OFFCURVE",
"57 603 CURVE SMOOTH",
"54 588 OFFCURVE",
"56 582 OFFCURVE",
"75 582 CURVE SMOOTH"
);
}
);
};
hints = (
{
horizontal = 1;
place = "{197, 320}";
type = Stem;
},
{
horizontal = 1;
place = "{763, -20}";
target = down;
type = TopGhost;
},
{
horizontal = 1;
place = "{874, 331}";
type = Stem;
},
{
place = "{469, 332}";
type = Stem;
},
{
place = "{474, 324}";
type = Stem;
},
{
horizontal = 1;
place = "{210, 320}";
type = Stem;
}
);
layerId = "707362F1-A677-446A-8636-E10BE3A7FAFF";
paths = (
{
closed = 1;
nodes = (
"184 -127 OFFCURVE",
"223 -70 OFFCURVE",
"244 30 CURVE SMOOTH",
"338 468 LINE SMOOTH",
"339 471 OFFCURVE",
"336 472 OFFCURVE",
"335 472 CURVE SMOOTH",
"309 472 LINE SMOOTH",
"307 472 OFFCURVE",
"306 471 OFFCURVE",
"305 468 CURVE SMOOTH",
"211 30 LINE SMOOTH",
"193 -53 OFFCURVE",
"167 -98 OFFCURVE",
"85 -98 CURVE SMOOTH",
"63 -98 OFFCURVE",
"38 -93 OFFCURVE",
"20 -85 CURVE SMOOTH",
"16 -83 OFFCURVE",
"14 -84 OFFCURVE",
"11 -88 CURVE SMOOTH",
"2 -101 LINE SMOOTH",
"-1 -106 OFFCURVE",
"0 -109 OFFCURVE",
"8 -114 CURVE SMOOTH",
"22 -123 OFFCURVE",
"60 -127 OFFCURVE",
"83 -127 CURVE SMOOTH"
);
},
{
closed = 1;
nodes = (
"366 582 OFFCURVE",
"370 588 OFFCURVE",
"373 603 CURVE SMOOTH",
"376 617 OFFCURVE",
"375 624 OFFCURVE",
"355 624 CURVE SMOOTH",
"336 624 OFFCURVE",
"331 617 OFFCURVE",
"328 603 CURVE SMOOTH",
"325 588 OFFCURVE",
"327 582 OFFCURVE",
"346 582 CURVE SMOOTH"
);
}
);
width = 434;
},
{
background = {
paths = (
{
closed = 1;
nodes = (
"83 -127 OFFCURVE",
"137 -63 OFFCURVE",
"159 43 CURVE SMOOTH",
"247 458 LINE SMOOTH",
"249 466 OFFCURVE",
"243 472 OFFCURVE",
"235 472 CURVE SMOOTH",
"118 472 LINE SMOOTH",
"110 472 OFFCURVE",
"103 466 OFFCURVE",
"101 458 CURVE SMOOTH",
"12 43 LINE SMOOTH",
"3 -1 OFFCURVE",
"-30 -27 OFFCURVE",
"-51 -29 CURVE SMOOTH",
"-60 -30 OFFCURVE",
"-71 -27 OFFCURVE",
"-81 -21 CURVE SMOOTH",
"-90 -16 OFFCURVE",
"-97 -12 OFFCURVE",
"-105 -23 CURVE SMOOTH",
"-142 -71 LINE SMOOTH",
"-152 -85 OFFCURVE",
"-151 -89 OFFCURVE",
"-130 -104 CURVE SMOOTH",
"-107 -119 OFFCURVE",
"-70 -127 OFFCURVE",
"-33 -127 CURVE SMOOTH"
);
},
{
closed = 1;
nodes = (
"249 532 OFFCURVE",
"269 556 OFFCURVE",
"279 601 CURVE SMOOTH",
"287 640 OFFCURVE",
"282 667 OFFCURVE",
"217 667 CURVE SMOOTH",
"158 667 OFFCURVE",
"134 640 OFFCURVE",
"126 601 CURVE SMOOTH",
"116 556 OFFCURVE",
"129 532 OFFCURVE",
"188 532 CURVE SMOOTH"
);
},
{
closed = 1;
nodes = (
"83 -127 OFFCURVE",
"137 -63 OFFCURVE",
"159 43 CURVE SMOOTH",
"247 458 LINE SMOOTH",
"249 466 OFFCURVE",
"243 472 OFFCURVE",
"235 472 CURVE SMOOTH",
"118 472 LINE SMOOTH",
"110 472 OFFCURVE",
"103 466 OFFCURVE",
"101 458 CURVE SMOOTH",
"12 43 LINE SMOOTH",
"3 -1 OFFCURVE",
"-30 -27 OFFCURVE",
"-51 -29 CURVE SMOOTH",
"-60 -30 OFFCURVE",
"-71 -27 OFFCURVE",
"-81 -21 CURVE SMOOTH",
"-90 -16 OFFCURVE",
"-97 -12 OFFCURVE",
"-105 -23 CURVE SMOOTH",
"-142 -71 LINE SMOOTH",
"-152 -85 OFFCURVE",
"-151 -89 OFFCURVE",
"-130 -104 CURVE SMOOTH",
"-107 -119 OFFCURVE",
"-70 -127 OFFCURVE",
"-33 -127 CURVE SMOOTH"
);
},
{
closed = 1;
nodes = (
"249 532 OFFCURVE",
"269 556 OFFCURVE",
"279 601 CURVE SMOOTH",
"287 640 OFFCURVE",
"282 667 OFFCURVE",
"217 667 CURVE SMOOTH",
"158 667 OFFCURVE",
"134 640 OFFCURVE",
"126 601 CURVE SMOOTH",
"116 556 OFFCURVE",
"129 532 OFFCURVE",
"188 532 CURVE SMOOTH"
);
}
);
};
layerId = "D1BC8BBB-1669-4C46-BC21-42BF6808B2B9";
paths = (
{
closed = 1;
nodes = (
"81 -126 OFFCURVE",
"133 -62 OFFCURVE",
"155 44 CURVE SMOOTH",
"243 458 LINE SMOOTH",
"245 466 OFFCURVE",
"239 472 OFFCURVE",
"231 472 CURVE SMOOTH",
"114 472 LINE SMOOTH",
"106 472 OFFCURVE",
"99 466 OFFCURVE",
"97 458 CURVE SMOOTH",
"9 44 LINE SMOOTH",
"0 0 OFFCURVE",
"-32 -26 OFFCURVE",
"-53 -28 CURVE SMOOTH",
"-62 -29 OFFCURVE",
"-73 -26 OFFCURVE",
"-83 -20 CURVE SMOOTH",
"-92 -15 OFFCURVE",
"-99 -11 OFFCURVE",
"-107 -22 CURVE SMOOTH",
"-143 -71 LINE SMOOTH",
"-154 -84 OFFCURVE",
"-153 -88 OFFCURVE",
"-132 -103 CURVE SMOOTH",
"-109 -118 OFFCURVE",
"-72 -126 OFFCURVE",
"-35 -126 CURVE SMOOTH"
);
},
{
closed = 1;
nodes = (
"246 532 OFFCURVE",
"266 556 OFFCURVE",
"276 601 CURVE SMOOTH",
"284 640 OFFCURVE",
"279 667 OFFCURVE",
"214 667 CURVE SMOOTH",
"155 667 OFFCURVE",
"131 640 OFFCURVE",
"123 601 CURVE SMOOTH",
"113 556 OFFCURVE",
"126 532 OFFCURVE",
"185 532 CURVE SMOOTH"
);
}
);
width = 228;
}
);
leftKerningGroup = j;
note = j;
rightKerningGroup = j;
unicode = 006A;
},
{
glyphname = k;
lastChange = "2021-06-09 01:54:03 +0000";
layers = (
{
background = {
paths = (
{
closed = 1;
nodes = (
"71 1 OFFCURVE",
"72 0 OFFCURVE",
"75 0 CURVE SMOOTH",
"100 0 LINE SMOOTH",
"103 0 OFFCURVE",
"104 1 OFFCURVE",
"105 4 CURVE SMOOTH",
"155 240 LINE SMOOTH",
"156 243 OFFCURVE",
"159 247 OFFCURVE",
"163 247 CURVE SMOOTH",
"248 247 OFFCURVE",
"259 246 OFFCURVE",
"269 230 CURVE SMOOTH",
"315 164 OFFCURVE",
"339 7 OFFCURVE",
"339 7 CURVE",
"342 -1 OFFCURVE",
"342 0 OFFCURVE",
"347 0 CURVE SMOOTH",
"356 0 OFFCURVE",
"365 0 OFFCURVE",
"374 0 CURVE SMOOTH",
"379 0 OFFCURVE",
"380 4 OFFCURVE",
"379 8 CURVE SMOOTH",
"377 14 OFFCURVE",
"340 195 OFFCURVE",
"297 255 CURVE SMOOTH",
"296 257 OFFCURVE",
"293 260 OFFCURVE",
"292 262 CURVE",
"297 267 OFFCURVE",
"302 272 OFFCURVE",
"308 277 CURVE SMOOTH",
"382 351 OFFCURVE",
"456 466 OFFCURVE",
"456 466 CURVE",
"459 471 OFFCURVE",
"457 472 OFFCURVE",
"453 472 CURVE SMOOTH",
"427 472 LINE SMOOTH",
"423 472 OFFCURVE",
"421 471 OFFCURVE",
"418 465 CURVE",
"387 415 OFFCURVE",
"330 335 OFFCURVE",
"275 286 CURVE SMOOTH",
"262 275 OFFCURVE",
"258 275 OFFCURVE",
"245 275 CURVE SMOOTH",
"219 275 OFFCURVE",
"194 275 OFFCURVE",
"168 275 CURVE SMOOTH",
"163 275 OFFCURVE",
"163 278 OFFCURVE",
"164 281 CURVE SMOOTH",
"254 704 LINE SMOOTH",
"254 707 OFFCURVE",
"253 708 OFFCURVE",
"250 708 CURVE SMOOTH",
"225 708 LINE SMOOTH",
"222 708 OFFCURVE",
"221 707 OFFCURVE",
"221 704 CURVE SMOOTH",
"72 4 LINE SMOOTH"
);
}
);
};
hints = (
{
horizontal = 1;
place = "{12, 21}";
target = up;
type = BottomGhost;
},
{
horizontal = 1;
place = "{255, 36}";
type = Stem;
},
{
horizontal = 1;
place = "{480, -20}";
target = down;
type = TopGhost;
},
{
place = "{68, 41}";
type = Stem;
}
);
layerId = "707362F1-A677-446A-8636-E10BE3A7FAFF";
paths = (
{
closed = 1;
nodes = (
"79 1 OFFCURVE",
"80 0 OFFCURVE",
"83 0 CURVE SMOOTH",
"108 0 LINE SMOOTH",
"111 0 OFFCURVE",
"112 1 OFFCURVE",
"113 4 CURVE SMOOTH",
"163 240 LINE SMOOTH",
"164 243 OFFCURVE",
"167 247 OFFCURVE",
"171 247 CURVE SMOOTH",
"256 247 OFFCURVE",
"267 246 OFFCURVE",
"277 230 CURVE SMOOTH",
"323 164 OFFCURVE",
"347 7 OFFCURVE",
"347 7 CURVE",
"350 -1 OFFCURVE",
"350 0 OFFCURVE",
"355 0 CURVE SMOOTH",
"364 0 OFFCURVE",
"373 0 OFFCURVE",
"382 0 CURVE SMOOTH",
"387 0 OFFCURVE",
"388 4 OFFCURVE",
"387 8 CURVE SMOOTH",
"385 14 OFFCURVE",
"348 195 OFFCURVE",
"305 255 CURVE SMOOTH",
"304 257 OFFCURVE",
"301 260 OFFCURVE",
"300 262 CURVE",
"305 267 OFFCURVE",
"310 272 OFFCURVE",
"316 277 CURVE SMOOTH",
"390 351 OFFCURVE",
"464 466 OFFCURVE",
"464 466 CURVE",
"467 471 OFFCURVE",
"465 472 OFFCURVE",
"461 472 CURVE SMOOTH",
"435 472 LINE SMOOTH",
"431 472 OFFCURVE",
"429 471 OFFCURVE",
"426 465 CURVE",
"395 415 OFFCURVE",
"338 335 OFFCURVE",
"283 286 CURVE SMOOTH",
"270 275 OFFCURVE",
"266 275 OFFCURVE",
"253 275 CURVE SMOOTH",
"227 275 OFFCURVE",
"202 275 OFFCURVE",
"176 275 CURVE SMOOTH",
"171 275 OFFCURVE",
"171 278 OFFCURVE",
"172 281 CURVE SMOOTH",
"262 704 LINE SMOOTH",
"262 707 OFFCURVE",
"261 708 OFFCURVE",
"258 708 CURVE SMOOTH",
"233 708 LINE SMOOTH",
"230 708 OFFCURVE",
"229 707 OFFCURVE",
"229 704 CURVE SMOOTH",
"80 4 LINE SMOOTH"
);
}
);
width = 500;
},
{
background = {
paths = (
{
closed = 1;
nodes = (
"-10 1 OFFCURVE",
"-9 0 OFFCURVE",
"-6 0 CURVE SMOOTH",
"133 0 LINE SMOOTH",
"136 0 OFFCURVE",
"137 1 OFFCURVE",
"138 4 CURVE SMOOTH",
"176 185 LINE SMOOTH",
"178 193 OFFCURVE",
"179 198 OFFCURVE",
"182 201 CURVE SMOOTH",
"193 214 OFFCURVE",
"205 183 OFFCURVE",
"209 168 CURVE SMOOTH",
"216 144 OFFCURVE",
"261 7 OFFCURVE",
"261 7 CURVE",
"264 -1 OFFCURVE",
"264 0 OFFCURVE",
"269 0 CURVE SMOOTH",
"278 0 OFFCURVE",
"398 0 OFFCURVE",
"407 0 CURVE SMOOTH",
"412 0 OFFCURVE",
"413 4 OFFCURVE",
"412 8 CURVE SMOOTH",
"410 14 OFFCURVE",
"376 197 OFFCURVE",
"330 255 CURVE SMOOTH",
"329 257 OFFCURVE",
"321 260 OFFCURVE",
"320 262 CURVE",
"325 267 OFFCURVE",
"328 270 OFFCURVE",
"336 277 CURVE SMOOTH",
"405 343 OFFCURVE",
"469 441 OFFCURVE",
"477 455 CURVE",
"480 460 OFFCURVE",
"485 472 OFFCURVE",
"472 472 CURVE SMOOTH",
"354 472 LINE SMOOTH",
"335 472 OFFCURVE",
"330 472 OFFCURVE",
"321 458 CURVE SMOOTH",
"291 408 OFFCURVE",
"273 383 OFFCURVE",
"240 343 CURVE SMOOTH",
"229 330 OFFCURVE",
"225 326 OFFCURVE",
"214 317 CURVE SMOOTH",
"212 315 OFFCURVE",
"207 312 OFFCURVE",
"205 312 CURVE SMOOTH",
"203 312 OFFCURVE",
"205 320 OFFCURVE",
"206 323 CURVE SMOOTH",
"280 674 LINE SMOOTH",
"281 677 OFFCURVE",
"280 678 OFFCURVE",
"277 678 CURVE SMOOTH",
"138 678 LINE SMOOTH",
"135 678 OFFCURVE",
"134 677 OFFCURVE",
"133 674 CURVE SMOOTH",
"-9 4 LINE SMOOTH"
);
}
);
};
layerId = "D1BC8BBB-1669-4C46-BC21-42BF6808B2B9";
paths = (
{
closed = 1;
nodes = (
"-10 1 OFFCURVE",
"-9 0 OFFCURVE",
"-6 0 CURVE SMOOTH",
"133 0 LINE SMOOTH",
"136 0 OFFCURVE",
"137 1 OFFCURVE",
"138 4 CURVE SMOOTH",
"176 185 LINE SMOOTH",
"178 193 OFFCURVE",
"179 198 OFFCURVE",
"182 201 CURVE SMOOTH",
"193 214 OFFCURVE",
"205 183 OFFCURVE",
"209 168 CURVE SMOOTH",
"216 144 OFFCURVE",
"261 7 OFFCURVE",
"261 7 CURVE",
"264 -1 OFFCURVE",
"264 0 OFFCURVE",
"269 0 CURVE SMOOTH",
"278 0 OFFCURVE",
"398 0 OFFCURVE",
"407 0 CURVE SMOOTH",
"412 0 OFFCURVE",
"413 4 OFFCURVE",
"412 8 CURVE SMOOTH",
"410 14 OFFCURVE",
"376 197 OFFCURVE",
"330 255 CURVE SMOOTH",
"329 257 OFFCURVE",
"321 260 OFFCURVE",
"320 262 CURVE",
"325 267 OFFCURVE",
"328 270 OFFCURVE",
"336 277 CURVE SMOOTH",
"405 343 OFFCURVE",
"469 441 OFFCURVE",
"477 455 CURVE",
"480 460 OFFCURVE",
"485 472 OFFCURVE",
"472 472 CURVE SMOOTH",
"354 472 LINE SMOOTH",
"335 472 OFFCURVE",
"330 472 OFFCURVE",
"321 458 CURVE SMOOTH",
"291 408 OFFCURVE",
"273 383 OFFCURVE",
"240 343 CURVE SMOOTH",
"229 330 OFFCURVE",
"225 326 OFFCURVE",
"214 317 CURVE SMOOTH",
"212 315 OFFCURVE",
"207 312 OFFCURVE",
"205 312 CURVE SMOOTH",
"203 312 OFFCURVE",
"205 320 OFFCURVE",
"206 323 CURVE SMOOTH",
"280 674 LINE SMOOTH",
"281 677 OFFCURVE",
"280 678 OFFCURVE",
"277 678 CURVE SMOOTH",
"138 678 LINE SMOOTH",
"135 678 OFFCURVE",
"134 677 OFFCURVE",
"133 674 CURVE SMOOTH",
"-9 4 LINE SMOOTH"
);
}
);
width = 456;
}
);
leftKerningGroup = l;
leftMetricsKey = n;
note = k;
rightKerningGroup = k;
unicode = 006B;
},
{
glyphname = l;
lastChange = "2021-06-09 01:54:05 +0000";
layers = (
{
background = {
paths = (
{
closed = 1;
nodes = (
"31 1 OFFCURVE",
"32 0 OFFCURVE",
"34 0 CURVE SMOOTH",
"60 0 LINE SMOOTH",
"62 0 OFFCURVE",
"64 1 OFFCURVE",
"65 4 CURVE SMOOTH",
"214 704 LINE SMOOTH",
"214 707 OFFCURVE",
"212 708 OFFCURVE",
"210 708 CURVE SMOOTH",
"184 708 LINE SMOOTH",
"182 708 OFFCURVE",
"181 707 OFFCURVE",
"181 704 CURVE SMOOTH",
"32 4 LINE SMOOTH"
);
}
);
};
hints = (
{
horizontal = 1;
place = "{52, 21}";
target = up;
type = BottomGhost;
},
{
place = "{128, 81}";
type = Stem;
}
);
layerId = "707362F1-A677-446A-8636-E10BE3A7FAFF";
paths = (
{
closed = 1;
nodes = (
"79 1 OFFCURVE",
"80 0 OFFCURVE",
"82 0 CURVE SMOOTH",
"108 0 LINE SMOOTH",
"110 0 OFFCURVE",
"112 1 OFFCURVE",
"113 4 CURVE SMOOTH",
"262 704 LINE SMOOTH",
"262 707 OFFCURVE",
"260 708 OFFCURVE",
"258 708 CURVE SMOOTH",
"232 708 LINE SMOOTH",
"230 708 OFFCURVE",
"229 707 OFFCURVE",
"229 704 CURVE SMOOTH",
"80 4 LINE SMOOTH"
);
}
);
width = 314;
},
{
background = {
paths = (
{
closed = 1;
nodes = (
"-9 6 OFFCURVE",
"-4 0 OFFCURVE",
"6 0 CURVE SMOOTH",
"121 0 LINE SMOOTH",
"131 0 OFFCURVE",
"138 6 OFFCURVE",
"140 14 CURVE SMOOTH",
"285 694 LINE SMOOTH",
"286 702 OFFCURVE",
"281 708 OFFCURVE",
"271 708 CURVE SMOOTH",
"156 708 LINE SMOOTH",
"146 708 OFFCURVE",
"139 702 OFFCURVE",
"138 694 CURVE SMOOTH",
"-7 14 LINE SMOOTH"
);
}
);
};
layerId = "D1BC8BBB-1669-4C46-BC21-42BF6808B2B9";
paths = (
{
closed = 1;
nodes = (
"-9 6 OFFCURVE",
"-4 0 OFFCURVE",
"6 0 CURVE SMOOTH",
"121 0 LINE SMOOTH",
"131 0 OFFCURVE",
"138 6 OFFCURVE",
"140 14 CURVE SMOOTH",
"285 694 LINE SMOOTH",
"286 702 OFFCURVE",
"281 708 OFFCURVE",
"271 708 CURVE SMOOTH",
"156 708 LINE SMOOTH",
"146 708 OFFCURVE",
"139 702 OFFCURVE",
"138 694 CURVE SMOOTH",
"-7 14 LINE SMOOTH"
);
}
);
width = 220;
}
);
leftKerningGroup = l;
leftMetricsKey = n;
note = l;
rightKerningGroup = l;
rightMetricsKey = d;
unicode = 006C;
},
{
glyphname = m;
lastChange = "2021-06-09 01:54:07 +0000";
layers = (
{
background = {
paths = (
{
closed = 1;
nodes = (
"703 445 OFFCURVE",
"719 354 OFFCURVE",
"699 257 CURVE SMOOTH",
"676 152 OFFCURVE",
"643 28 OFFCURVE",
"637 7 CURVE SMOOTH",
"635 1 OFFCURVE",
"636 0 OFFCURVE",
"642 0 CURVE SMOOTH",
"660 0 LINE SMOOTH",
"666 0 OFFCURVE",
"668 1 OFFCURVE",
"670 5 CURVE",
"679 41 OFFCURVE",
"710 150 OFFCURVE",
"732 253 CURVE SMOOTH",
"758 378 OFFCURVE",
"741 476 OFFCURVE",
"599 476 CURVE SMOOTH",
"551 476 OFFCURVE",
"479 447 OFFCURVE",
"449 398 CURVE",
"434 445 OFFCURVE",
"393 476 OFFCURVE",
"312 476 CURVE SMOOTH",
"263 476 OFFCURVE",
"206 459 OFFCURVE",
"184 451 CURVE SMOOTH",
"171 446 OFFCURVE",
"163 435 OFFCURVE",
"163 431 CURVE SMOOTH",
"72 4 LINE SMOOTH",
"71 1 OFFCURVE",
"72 0 OFFCURVE",
"75 0 CURVE SMOOTH",
"100 0 LINE SMOOTH",
"103 0 OFFCURVE",
"104 1 OFFCURVE",
"105 4 CURVE SMOOTH",
"189 401 LINE SMOOTH",
"192 415 OFFCURVE",
"202 424 OFFCURVE",
"210 426 CURVE SMOOTH",
"267 446 OFFCURVE",
"336 457 OFFCURVE",
"383 424 CURVE SMOOTH",
"426 393 OFFCURVE",
"430 339 OFFCURVE",
"412 253 CURVE SMOOTH",
"359 7 LINE",
"357 1 OFFCURVE",
"358 0 OFFCURVE",
"364 0 CURVE SMOOTH",
"381 0 LINE SMOOTH",
"387 0 OFFCURVE",
"390 1 OFFCURVE",
"392 5 CURVE",
"401 41 OFFCURVE",
"423 150 OFFCURVE",
"445 253 CURVE SMOOTH",
"463 340 LINE SMOOTH",
"477 404 OFFCURVE",
"537 445 OFFCURVE",
"598 445 CURVE SMOOTH"
);
}
);
};
hints = (
{
horizontal = 1;
place = "{12, 21}";
target = up;
type = BottomGhost;
},
{
horizontal = 1;
place = "{455, 39}";
type = Stem;
},
{
horizontal = 1;
place = "{480, -20}";
target = down;
type = TopGhost;
}
);
layerId = "707362F1-A677-446A-8636-E10BE3A7FAFF";
paths = (
{
closed = 1;
nodes = (
"711 445 OFFCURVE",
"727 354 OFFCURVE",
"707 257 CURVE SMOOTH",
"684 152 OFFCURVE",
"651 28 OFFCURVE",
"645 7 CURVE SMOOTH",
"643 1 OFFCURVE",
"644 0 OFFCURVE",
"650 0 CURVE SMOOTH",
"668 0 LINE SMOOTH",
"674 0 OFFCURVE",
"676 1 OFFCURVE",
"678 5 CURVE",
"687 41 OFFCURVE",
"718 150 OFFCURVE",
"740 253 CURVE SMOOTH",
"766 378 OFFCURVE",
"749 476 OFFCURVE",
"607 476 CURVE SMOOTH",
"559 476 OFFCURVE",
"487 447 OFFCURVE",
"457 398 CURVE",
"442 445 OFFCURVE",
"401 476 OFFCURVE",
"320 476 CURVE SMOOTH",
"271 476 OFFCURVE",
"214 459 OFFCURVE",
"192 451 CURVE SMOOTH",
"179 446 OFFCURVE",
"171 435 OFFCURVE",
"171 431 CURVE SMOOTH",
"80 4 LINE SMOOTH",
"79 1 OFFCURVE",
"80 0 OFFCURVE",
"83 0 CURVE SMOOTH",
"108 0 LINE SMOOTH",
"111 0 OFFCURVE",
"112 1 OFFCURVE",
"113 4 CURVE SMOOTH",
"197 401 LINE SMOOTH",
"200 415 OFFCURVE",
"210 424 OFFCURVE",
"218 426 CURVE SMOOTH",
"275 446 OFFCURVE",
"344 457 OFFCURVE",
"391 424 CURVE SMOOTH",
"434 393 OFFCURVE",
"438 339 OFFCURVE",
"420 253 CURVE SMOOTH",
"367 7 LINE",
"365 1 OFFCURVE",
"366 0 OFFCURVE",
"372 0 CURVE SMOOTH",
"389 0 LINE SMOOTH",
"395 0 OFFCURVE",
"398 1 OFFCURVE",
"400 5 CURVE",
"409 41 OFFCURVE",
"431 150 OFFCURVE",
"453 253 CURVE SMOOTH",
"471 340 LINE SMOOTH",
"485 404 OFFCURVE",
"545 445 OFFCURVE",
"606 445 CURVE SMOOTH"
);
}
);
width = 822;
},
{
background = {
paths = (
{
closed = 1;
nodes = (
"558 363 OFFCURVE",
"545 283 OFFCURVE",
"539 254 CURVE SMOOTH",
"522 173 OFFCURVE",
"500 87 OFFCURVE",
"480 21 CURVE SMOOTH",
"475 4 OFFCURVE",
"475 0 OFFCURVE",
"485 0 CURVE SMOOTH",
"609 0 LINE SMOOTH",
"615 0 OFFCURVE",
"617 1 OFFCURVE",
"619 5 CURVE",
"651 96 OFFCURVE",
"668 147 OFFCURVE",
"690 250 CURVE SMOOTH",
"717 375 OFFCURVE",
"697 476 OFFCURVE",
"538 476 CURVE SMOOTH",
"490 476 OFFCURVE",
"455 461 OFFCURVE",
"408 438 CURVE",
"374 463 OFFCURVE",
"338 476 OFFCURVE",
"251 476 CURVE SMOOTH",
"229 476 OFFCURVE",
"151 460 OFFCURVE",
"108 447 CURVE SMOOTH",
"91 442 OFFCURVE",
"82 435 OFFCURVE",
"80 422 CURVE SMOOTH",
"-7 15 LINE SMOOTH",
"-10 1 OFFCURVE",
"1 0 OFFCURVE",
"7 0 CURVE SMOOTH",
"127 0 LINE SMOOTH",
"134 0 OFFCURVE",
"139 12 OFFCURVE",
"140 20 CURVE SMOOTH",
"210 346 LINE SMOOTH",
"213 363 OFFCURVE",
"237 363 OFFCURVE",
"246 363 CURVE SMOOTH",
"258 363 OFFCURVE",
"272 361 OFFCURVE",
"281 352 CURVE SMOOTH",
"302 331 OFFCURVE",
"299 293 OFFCURVE",
"291 253 CURVE SMOOTH",
"238 7 LINE",
"236 1 OFFCURVE",
"237 0 OFFCURVE",
"243 0 CURVE SMOOTH",
"373 0 LINE SMOOTH",
"384 0 OFFCURVE",
"387 12 OFFCURVE",
"388 20 CURVE",
"395 53 OFFCURVE",
"425 192 OFFCURVE",
"456 338 CURVE SMOOTH",
"458 347 LINE SMOOTH",
"461 363 OFFCURVE",
"490 363 OFFCURVE",
"500 363 CURVE SMOOTH"
);
}
);
};
layerId = "D1BC8BBB-1669-4C46-BC21-42BF6808B2B9";
paths = (
{
closed = 1;
nodes = (
"558 363 OFFCURVE",
"545 283 OFFCURVE",
"539 254 CURVE SMOOTH",
"522 173 OFFCURVE",
"500 87 OFFCURVE",
"480 21 CURVE SMOOTH",
"475 4 OFFCURVE",
"475 0 OFFCURVE",
"485 0 CURVE SMOOTH",
"609 0 LINE SMOOTH",
"615 0 OFFCURVE",
"617 1 OFFCURVE",
"619 5 CURVE",
"651 96 OFFCURVE",
"668 147 OFFCURVE",
"690 250 CURVE SMOOTH",
"717 375 OFFCURVE",
"697 476 OFFCURVE",
"538 476 CURVE SMOOTH",
"490 476 OFFCURVE",
"455 461 OFFCURVE",
"408 438 CURVE",
"374 463 OFFCURVE",
"338 476 OFFCURVE",
"251 476 CURVE SMOOTH",
"229 476 OFFCURVE",
"151 460 OFFCURVE",
"108 447 CURVE SMOOTH",
"91 442 OFFCURVE",
"82 435 OFFCURVE",
"80 422 CURVE SMOOTH",
"-7 15 LINE SMOOTH",
"-10 1 OFFCURVE",
"1 0 OFFCURVE",
"7 0 CURVE SMOOTH",
"127 0 LINE SMOOTH",
"134 0 OFFCURVE",
"139 12 OFFCURVE",
"140 20 CURVE SMOOTH",
"210 346 LINE SMOOTH",
"213 363 OFFCURVE",
"237 363 OFFCURVE",
"246 363 CURVE SMOOTH",
"258 363 OFFCURVE",
"272 361 OFFCURVE",
"281 352 CURVE SMOOTH",
"302 331 OFFCURVE",
"299 293 OFFCURVE",
"291 253 CURVE SMOOTH",
"238 7 LINE",
"236 1 OFFCURVE",
"237 0 OFFCURVE",
"243 0 CURVE SMOOTH",
"373 0 LINE SMOOTH",
"384 0 OFFCURVE",
"387 12 OFFCURVE",
"388 20 CURVE",
"395 53 OFFCURVE",
"425 192 OFFCURVE",
"456 338 CURVE SMOOTH",
"458 347 LINE SMOOTH",
"461 363 OFFCURVE",
"490 363 OFFCURVE",
"500 363 CURVE SMOOTH"
);
}
);
width = 717;
}
);
leftKerningGroup = n;
leftMetricsKey = n;
note = m;
rightKerningGroup = n;
rightMetricsKey = n;
unicode = 006D;
},
{
glyphname = n;
lastChange = "2021-06-09 01:54:10 +0000";
layers = (
{
background = {
paths = (
{
closed = 1;
nodes = (
"60 0 LINE",
"63 0 OFFCURVE",
"64 1 OFFCURVE",
"65 4 CURVE SMOOTH",
"93 136 OFFCURVE",
"121 269 OFFCURVE",
"149 401 CURVE SMOOTH",
"152 415 OFFCURVE",
"164 420 OFFCURVE",
"172 422 CURVE SMOOTH",
"205 434 OFFCURVE",
"249 444 OFFCURVE",
"288 443 CURVE SMOOTH",
"397 443 OFFCURVE",
"421 366 OFFCURVE",
"398 257 CURVE SMOOTH",
"375 152 OFFCURVE",
"341 28 OFFCURVE",
"335 7 CURVE SMOOTH",
"333 1 OFFCURVE",
"334 0 OFFCURVE",
"340 0 CURVE",
"358 0 LINE",
"364 0 OFFCURVE",
"366 1 OFFCURVE",
"368 5 CURVE",
"377 41 OFFCURVE",
"408 150 OFFCURVE",
"430 253 CURVE SMOOTH",
"456 378 OFFCURVE",
"440 476 OFFCURVE",
"294 476 CURVE SMOOTH",
"244 476 OFFCURVE",
"169 458 OFFCURVE",
"141 450 CURVE SMOOTH",
"128 446 OFFCURVE",
"125 440 OFFCURVE",
"123 435 CURVE SMOOTH",
"93 291 OFFCURVE",
"62 148 OFFCURVE",
"32 4 CURVE SMOOTH",
"31 1 OFFCURVE",
"32 0 OFFCURVE",
"35 0 CURVE"
);
}
);
};
guideLines = (
{
position = "{314, 443}";
}
);
hints = (
{
horizontal = 1;
place = "{52, 21}";
target = up;
type = BottomGhost;
},
{
horizontal = 1;
place = "{495, 79}";
type = Stem;
},
{
horizontal = 1;
place = "{520, -20}";
target = down;
type = TopGhost;
},
{
place = "{108, 81}";
type = Stem;
},
{
place = "{422, 81}";
type = Stem;
}
);
layerId = "707362F1-A677-446A-8636-E10BE3A7FAFF";
paths = (
{
closed = 1;
nodes = (
"108 0 LINE",
"111 0 OFFCURVE",
"112 1 OFFCURVE",
"113 4 CURVE SMOOTH",
"141 136 OFFCURVE",
"169 269 OFFCURVE",
"197 401 CURVE SMOOTH",
"200 415 OFFCURVE",
"212 420 OFFCURVE",
"220 422 CURVE SMOOTH",
"253 434 OFFCURVE",
"297 444 OFFCURVE",
"336 443 CURVE SMOOTH",
"445 443 OFFCURVE",
"469 366 OFFCURVE",
"446 257 CURVE SMOOTH",
"423 152 OFFCURVE",
"389 28 OFFCURVE",
"383 7 CURVE SMOOTH",
"381 1 OFFCURVE",
"382 0 OFFCURVE",
"388 0 CURVE",
"406 0 LINE",
"412 0 OFFCURVE",
"414 1 OFFCURVE",
"416 5 CURVE",
"425 41 OFFCURVE",
"456 150 OFFCURVE",
"478 253 CURVE SMOOTH",
"504 378 OFFCURVE",
"488 476 OFFCURVE",
"342 476 CURVE SMOOTH",
"292 476 OFFCURVE",
"217 458 OFFCURVE",
"189 450 CURVE SMOOTH",
"176 446 OFFCURVE",
"173 440 OFFCURVE",
"171 435 CURVE SMOOTH",
"141 291 OFFCURVE",
"110 148 OFFCURVE",
"80 4 CURVE SMOOTH",
"79 1 OFFCURVE",
"80 0 OFFCURVE",
"83 0 CURVE"
);
}
);
width = 560;
},
{
background = {
paths = (
{
closed = 1;
nodes = (
"126 0 LINE SMOOTH",
"136 0 OFFCURVE",
"139 12 OFFCURVE",
"140 20 CURVE SMOOTH",
"164 129 OFFCURVE",
"187 237 OFFCURVE",
"207 334 CURVE SMOOTH",
"211 351 OFFCURVE",
"216 361 OFFCURVE",
"227 362 CURVE SMOOTH",
"233 363 OFFCURVE",
"237 363 OFFCURVE",
"250 363 CURVE SMOOTH",
"289 363 OFFCURVE",
"313 349 OFFCURVE",
"290 248 CURVE SMOOTH",
"287 237 OFFCURVE",
"232 27 OFFCURVE",
"228 11 CURVE SMOOTH",
"226 3 OFFCURVE",
"228 0 OFFCURVE",
"235 0 CURVE SMOOTH",
"346 0 LINE SMOOTH",
"367 0 OFFCURVE",
"370 0 OFFCURVE",
"379 28 CURVE SMOOTH",
"402 96 OFFCURVE",
"425 181 OFFCURVE",
"439 250 CURVE SMOOTH",
"465 372 OFFCURVE",
"447 476 OFFCURVE",
"278 476 CURVE SMOOTH",
"229 476 OFFCURVE",
"151 460 OFFCURVE",
"125 452 CURVE SMOOTH",
"92 441 OFFCURVE",
"83 438 OFFCURVE",
"80 422 CURVE SMOOTH",
"51 286 OFFCURVE",
"22 151 OFFCURVE",
"-7 15 CURVE SMOOTH",
"-10 1 OFFCURVE",
"1 0 OFFCURVE",
"7 0 CURVE SMOOTH"
);
}
);
};
guideLines = (
{
angle = 78;
position = "{-10, 1}";
},
{
angle = 78;
position = "{679, -26}";
},
{
angle = 78;
position = "{828, -31}";
}
);
layerId = "D1BC8BBB-1669-4C46-BC21-42BF6808B2B9";
paths = (
{
closed = 1;
nodes = (
"126 0 LINE SMOOTH",
"136 0 OFFCURVE",
"139 12 OFFCURVE",
"140 20 CURVE SMOOTH",
"164 129 OFFCURVE",
"187 237 OFFCURVE",
"207 334 CURVE SMOOTH",
"211 351 OFFCURVE",
"216 361 OFFCURVE",
"227 362 CURVE SMOOTH",
"233 363 OFFCURVE",
"237 363 OFFCURVE",
"250 363 CURVE SMOOTH",
"289 363 OFFCURVE",
"313 349 OFFCURVE",
"290 248 CURVE SMOOTH",
"287 237 OFFCURVE",
"232 27 OFFCURVE",
"228 11 CURVE SMOOTH",
"226 3 OFFCURVE",
"228 0 OFFCURVE",
"235 0 CURVE SMOOTH",
"346 0 LINE SMOOTH",
"367 0 OFFCURVE",
"370 0 OFFCURVE",
"379 28 CURVE SMOOTH",
"402 96 OFFCURVE",
"425 181 OFFCURVE",
"439 250 CURVE SMOOTH",
"465 372 OFFCURVE",
"447 476 OFFCURVE",
"278 476 CURVE SMOOTH",
"229 476 OFFCURVE",
"151 460 OFFCURVE",
"125 452 CURVE SMOOTH",
"92 441 OFFCURVE",
"83 438 OFFCURVE",
"80 422 CURVE SMOOTH",
"51 286 OFFCURVE",
"22 151 OFFCURVE",
"-7 15 CURVE SMOOTH",
"-10 1 OFFCURVE",
"1 0 OFFCURVE",
"7 0 CURVE SMOOTH"
);
}
);
width = 466;
}
);
leftKerningGroup = n;
note = n;
rightKerningGroup = n;
unicode = 006E;
},
{
glyphname = o;
lastChange = "2021-06-09 01:54:11 +0000";
layers = (
{
background = {
paths = (
{
closed = 1;
nodes = (
"-7 93 OFFCURVE",
"13 -7 OFFCURVE",
"170 -7 CURVE SMOOTH",
"327 -7 OFFCURVE",
"389 94 OFFCURVE",
"420 238 CURVE SMOOTH",
"451 382 OFFCURVE",
"423 483 OFFCURVE",
"274 483 CURVE SMOOTH",
"126 483 OFFCURVE",
"55 382 OFFCURVE",
"24 238 CURVE SMOOTH"
);
},
{
closed = 1;
nodes = (
"86 375 OFFCURVE",
"155 453 OFFCURVE",
"268 453 CURVE SMOOTH",
"382 453 OFFCURVE",
"416 374 OFFCURVE",
"387 238 CURVE SMOOTH",
"358 103 OFFCURVE",
"298 22 OFFCURVE",
"176 22 CURVE SMOOTH",
"55 22 OFFCURVE",
"28 101 OFFCURVE",
"57 238 CURVE SMOOTH"
);
},
{
closed = 1;
nodes = (
"-37 93 OFFCURVE",
"-17 -7 OFFCURVE",
"140 -7 CURVE SMOOTH",
"297 -7 OFFCURVE",
"359 94 OFFCURVE",
"390 238 CURVE SMOOTH",
"421 382 OFFCURVE",
"393 483 OFFCURVE",
"244 483 CURVE SMOOTH",
"96 483 OFFCURVE",
"25 382 OFFCURVE",
"-6 238 CURVE SMOOTH"
);
},
{
closed = 1;
nodes = (
"56 375 OFFCURVE",
"125 453 OFFCURVE",
"238 453 CURVE SMOOTH",
"352 453 OFFCURVE",
"386 374 OFFCURVE",
"357 238 CURVE SMOOTH",
"328 103 OFFCURVE",
"268 22 OFFCURVE",
"146 22 CURVE SMOOTH",
"25 22 OFFCURVE",
"-2 101 OFFCURVE",
"27 238 CURVE SMOOTH"
);
}
);
};
hints = (
{
horizontal = 1;
place = "{-24, 12}";
type = Stem;
},
{
horizontal = 1;
place = "{436, 13}";
type = Stem;
},
{
place = "{29, 16}";
type = Stem;
},
{
place = "{392, 16}";
type = Stem;
}
);
layerId = "707362F1-A677-446A-8636-E10BE3A7FAFF";
paths = (
{
closed = 1;
nodes = (
"361 -5 OFFCURVE",
"423 94 OFFCURVE",
"453 236 CURVE SMOOTH",
"483 378 OFFCURVE",
"455 477 OFFCURVE",
"306 477 CURVE SMOOTH",
"158 477 OFFCURVE",
"87 378 OFFCURVE",
"57 236 CURVE SMOOTH",
"27 93 OFFCURVE",
"47 -5 OFFCURVE",
"204 -5 CURVE SMOOTH"
);
},
{
closed = 1;
nodes = (
"89 24 OFFCURVE",
"62 101 OFFCURVE",
"90 236 CURVE SMOOTH",
"119 371 OFFCURVE",
"187 447 OFFCURVE",
"300 447 CURVE SMOOTH",
"414 447 OFFCURVE",
"449 370 OFFCURVE",
"420 236 CURVE SMOOTH",
"392 103 OFFCURVE",
"332 24 OFFCURVE",
"210 24 CURVE SMOOTH"
);
}
);
width = 509;
},
{
background = {
paths = (
{
closed = 1;
nodes = (
"1 101 OFFCURVE",
"22 -6 OFFCURVE",
"201 -6 CURVE SMOOTH",
"379 -6 OFFCURVE",
"447 103 OFFCURVE",
"476 238 CURVE SMOOTH",
"505 374 OFFCURVE",
"471 477 OFFCURVE",
"304 477 CURVE SMOOTH",
"136 477 OFFCURVE",
"59 374 OFFCURVE",
"30 238 CURVE SMOOTH"
);
},
{
closed = 1;
nodes = (
"194 315 OFFCURVE",
"227 358 OFFCURVE",
"276 358 CURVE SMOOTH",
"326 358 OFFCURVE",
"341 315 OFFCURVE",
"324 234 CURVE SMOOTH",
"307 152 OFFCURVE",
"278 105 OFFCURVE",
"223 105 CURVE SMOOTH",
"170 105 OFFCURVE",
"159 151 OFFCURVE",
"177 234 CURVE SMOOTH"
);
}
);
};
layerId = "D1BC8BBB-1669-4C46-BC21-42BF6808B2B9";
paths = (
{
closed = 1;
nodes = (
"379 -8 OFFCURVE",
"447 101 OFFCURVE",
"477 239 CURVE SMOOTH",
"506 376 OFFCURVE",
"472 480 OFFCURVE",
"305 480 CURVE SMOOTH",
"137 480 OFFCURVE",
"60 377 OFFCURVE",
"31 239 CURVE SMOOTH",
"1 99 OFFCURVE",
"22 -8 OFFCURVE",
"201 -8 CURVE SMOOTH"
);
},
{
closed = 1;
nodes = (
"170 103 OFFCURVE",
"160 150 OFFCURVE",
"178 235 CURVE SMOOTH",
"195 317 OFFCURVE",
"228 361 OFFCURVE",
"277 361 CURVE SMOOTH",
"327 361 OFFCURVE",
"342 317 OFFCURVE",
"325 235 CURVE SMOOTH",
"307 151 OFFCURVE",
"278 103 OFFCURVE",
"223 103 CURVE SMOOTH"
);
}
);
width = 506;
}
);
leftKerningGroup = o;
note = o;
rightKerningGroup = o;
unicode = 006F;
},
{
glyphname = p;
lastChange = "2021-06-09 01:54:15 +0000";
layers = (
{
background = {
paths = (
{
closed = 1;
nodes = (
"-34 -112 OFFCURVE",
"-34 -117 OFFCURVE",
"-30 -117 CURVE SMOOTH",
"-8 -117 LINE SMOOTH",
"-1 -117 OFFCURVE",
"-1 -111 OFFCURVE",
"0 -109 CURVE SMOOTH",
"8 -59 OFFCURVE",
"20 -12 OFFCURVE",
"24 5 CURVE SMOOTH",
"25 11 OFFCURVE",
"30 13 OFFCURVE",
"36 9 CURVE",
"56 0 OFFCURVE",
"117 -7 OFFCURVE",
"154 -7 CURVE SMOOTH",
"301 -7 OFFCURVE",
"378 119 OFFCURVE",
"405 245 CURVE SMOOTH",
"439 407 OFFCURVE",
"398 480 OFFCURVE",
"273 480 CURVE SMOOTH",
"211 480 OFFCURVE",
"159 472 OFFCURVE",
"104 455 CURVE SMOOTH",
"93 452 OFFCURVE",
"89 445 OFFCURVE",
"88 439 CURVE SMOOTH",
"66 359 OFFCURVE",
"47 276 OFFCURVE",
"28 194 CURVE SMOOTH",
"6 93 OFFCURVE",
"-15 -9 OFFCURVE",
"-34 -110 CURVE SMOOTH"
);
},
{
closed = 1;
nodes = (
"38 92 OFFCURVE",
"90 327 OFFCURVE",
"117 417 CURVE SMOOTH",
"118 424 OFFCURVE",
"128 428 OFFCURVE",
"138 432 CURVE SMOOTH",
"174 444 OFFCURVE",
"220 452 OFFCURVE",
"263 452 CURVE SMOOTH",
"358 452 OFFCURVE",
"405 399 OFFCURVE",
"372 245 CURVE SMOOTH",
"333 61 OFFCURVE",
"232 24 OFFCURVE",
"164 24 CURVE SMOOTH",
"131 24 OFFCURVE",
"82 28 OFFCURVE",
"49 39 CURVE SMOOTH",
"42 41 OFFCURVE",
"30 45 OFFCURVE",
"33 58 CURVE SMOOTH"
);
}
);
};
hints = (
{
horizontal = 1;
place = "{4, 21}";
target = up;
type = BottomGhost;
},
{
horizontal = 1;
place = "{109, 146}";
type = Stem;
},
{
horizontal = 1;
place = "{589, -20}";
target = down;
type = TopGhost;
},
{
place = "{173, 150}";
type = Stem;
},
{
place = "{517, 150}";
type = Stem;
},
{
place = "{179, 150}";
type = Stem;
},
{
horizontal = 1;
place = "{110, 150}";
type = Stem;
},
{
horizontal = 1;
place = "{568, 146}";
type = Stem;
}
);
layerId = "707362F1-A677-446A-8636-E10BE3A7FAFF";
paths = (
{
closed = 1;
nodes = (
"58 -112 OFFCURVE",
"58 -117 OFFCURVE",
"62 -117 CURVE SMOOTH",
"84 -117 LINE SMOOTH",
"91 -117 OFFCURVE",
"91 -111 OFFCURVE",
"92 -109 CURVE SMOOTH",
"100 -59 OFFCURVE",
"112 -12 OFFCURVE",
"116 5 CURVE SMOOTH",
"117 11 OFFCURVE",
"122 13 OFFCURVE",
"128 9 CURVE",
"148 0 OFFCURVE",
"209 -7 OFFCURVE",
"246 -7 CURVE SMOOTH",
"393 -7 OFFCURVE",
"470 119 OFFCURVE",
"497 245 CURVE SMOOTH",
"531 407 OFFCURVE",
"490 480 OFFCURVE",
"365 480 CURVE SMOOTH",
"303 480 OFFCURVE",
"251 472 OFFCURVE",
"196 455 CURVE SMOOTH",
"185 452 OFFCURVE",
"181 445 OFFCURVE",
"180 439 CURVE SMOOTH",
"158 359 OFFCURVE",
"139 276 OFFCURVE",
"120 194 CURVE SMOOTH",
"98 93 OFFCURVE",
"77 -9 OFFCURVE",
"58 -110 CURVE SMOOTH"
);
},
{
closed = 1;
nodes = (
"130 92 OFFCURVE",
"182 327 OFFCURVE",
"209 417 CURVE SMOOTH",
"210 424 OFFCURVE",
"220 428 OFFCURVE",
"230 432 CURVE SMOOTH",
"266 444 OFFCURVE",
"312 452 OFFCURVE",
"355 452 CURVE SMOOTH",
"450 452 OFFCURVE",
"497 399 OFFCURVE",
"464 245 CURVE SMOOTH",
"425 61 OFFCURVE",
"324 24 OFFCURVE",
"256 24 CURVE SMOOTH",
"223 24 OFFCURVE",
"174 28 OFFCURVE",
"141 39 CURVE SMOOTH",
"134 41 OFFCURVE",
"122 45 OFFCURVE",
"125 58 CURVE SMOOTH"
);
}
);
width = 551;
},
{
background = {
paths = (
{
closed = 1;
nodes = (
"-23 -105 OFFCURVE",
"-16 -106 OFFCURVE",
"-4 -106 CURVE SMOOTH",
"105 -106 LINE SMOOTH",
"127 -106 OFFCURVE",
"125 -100 OFFCURVE",
"127 -79 CURVE SMOOTH",
"127 -72 OFFCURVE",
"135 -26 OFFCURVE",
"139 -12 CURVE SMOOTH",
"142 -2 OFFCURVE",
"148 -6 OFFCURVE",
"161 -7 CURVE SMOOTH",
"201 -11 OFFCURVE",
"259 -5 OFFCURVE",
"301 14 CURVE SMOOTH",
"367 45 OFFCURVE",
"432 114 OFFCURVE",
"460 247 CURVE SMOOTH",
"494 408 OFFCURVE",
"430 481 OFFCURVE",
"298 481 CURVE SMOOTH",
"228 481 OFFCURVE",
"165 466 OFFCURVE",
"140 458 CURVE SMOOTH",
"106 447 OFFCURVE",
"100 440 OFFCURVE",
"93 424 CURVE SMOOTH",
"74 386 OFFCURVE",
"48 275 OFFCURVE",
"35 212 CURVE SMOOTH",
"-2 42 OFFCURVE",
"-20 -58 OFFCURVE",
"-22 -96 CURVE SMOOTH"
);
},
{
closed = 1;
nodes = (
"186 212 OFFCURVE",
"201 281 OFFCURVE",
"218 349 CURVE SMOOTH",
"219 356 OFFCURVE",
"221 359 OFFCURVE",
"224 361 CURVE SMOOTH",
"236 366 OFFCURVE",
"254 369 OFFCURVE",
"273 369 CURVE SMOOTH",
"309 369 OFFCURVE",
"331 341 OFFCURVE",
"311 248 CURVE SMOOTH",
"288 137 OFFCURVE",
"247 122 OFFCURVE",
"220 122 CURVE SMOOTH",
"206 122 OFFCURVE",
"188 127 OFFCURVE",
"175 132 CURVE SMOOTH",
"170 133 OFFCURVE",
"169 136 OFFCURVE",
"171 144 CURVE SMOOTH"
);
}
);
};
layerId = "D1BC8BBB-1669-4C46-BC21-42BF6808B2B9";
paths = (
{
closed = 1;
nodes = (
"-23 -105 OFFCURVE",
"-16 -106 OFFCURVE",
"-4 -106 CURVE SMOOTH",
"105 -106 LINE SMOOTH",
"127 -106 OFFCURVE",
"125 -100 OFFCURVE",
"127 -79 CURVE SMOOTH",
"127 -72 OFFCURVE",
"135 -26 OFFCURVE",
"139 -12 CURVE SMOOTH",
"142 -2 OFFCURVE",
"148 -6 OFFCURVE",
"161 -7 CURVE SMOOTH",
"201 -11 OFFCURVE",
"259 -5 OFFCURVE",
"301 14 CURVE SMOOTH",
"367 45 OFFCURVE",
"432 114 OFFCURVE",
"460 247 CURVE SMOOTH",
"494 408 OFFCURVE",
"430 481 OFFCURVE",
"298 481 CURVE SMOOTH",
"228 481 OFFCURVE",
"165 466 OFFCURVE",
"140 458 CURVE SMOOTH",
"106 447 OFFCURVE",
"100 440 OFFCURVE",
"93 424 CURVE SMOOTH",
"74 386 OFFCURVE",
"48 275 OFFCURVE",
"35 212 CURVE SMOOTH",
"-2 42 OFFCURVE",
"-20 -58 OFFCURVE",
"-22 -96 CURVE SMOOTH"
);
},
{
closed = 1;
nodes = (
"186 212 OFFCURVE",
"201 281 OFFCURVE",
"218 349 CURVE SMOOTH",
"219 356 OFFCURVE",
"221 359 OFFCURVE",
"224 361 CURVE SMOOTH",
"236 366 OFFCURVE",
"254 369 OFFCURVE",
"273 369 CURVE SMOOTH",
"309 369 OFFCURVE",
"331 341 OFFCURVE",
"311 248 CURVE SMOOTH",
"288 137 OFFCURVE",
"247 122 OFFCURVE",
"220 122 CURVE SMOOTH",
"206 122 OFFCURVE",
"188 127 OFFCURVE",
"175 132 CURVE SMOOTH",
"170 133 OFFCURVE",
"169 136 OFFCURVE",
"171 144 CURVE SMOOTH"
);
}
);
width = 488;
}
);
leftKerningGroup = b;
leftMetricsKey = n;
note = p;
rightKerningGroup = o;
rightMetricsKey = o;
unicode = 0070;
},
{
glyphname = q;
lastChange = "2021-06-09 01:54:17 +0000";
layers = (
{
background = {
paths = (
{
closed = 1;
nodes = (
"264 -7 OFFCURVE",
"312 1 OFFCURVE",
"346 9 CURVE",
"353 12 OFFCURVE",
"358 11 OFFCURVE",
"357 5 CURVE SMOOTH",
"353 -12 OFFCURVE",
"342 -59 OFFCURVE",
"328 -109 CURVE SMOOTH",
"327 -111 OFFCURVE",
"325 -117 OFFCURVE",
"332 -117 CURVE SMOOTH",
"354 -117 LINE SMOOTH",
"358 -117 OFFCURVE",
"360 -112 OFFCURVE",
"360 -110 CURVE SMOOTH",
"408 58 OFFCURVE",
"469 295 OFFCURVE",
"495 439 CURVE SMOOTH",
"496 445 OFFCURVE",
"497 452 OFFCURVE",
"487 455 CURVE SMOOTH",
"438 472 OFFCURVE",
"393 480 OFFCURVE",
"331 480 CURVE SMOOTH",
"206 480 OFFCURVE",
"128 407 OFFCURVE",
"87 245 CURVE SMOOTH",
"37 42 OFFCURVE",
"130 -7 OFFCURVE",
"215 -7 CURVE SMOOTH"
);
},
{
closed = 1;
nodes = (
"160 399 OFFCURVE",
"231 452 OFFCURVE",
"327 452 CURVE SMOOTH",
"370 452 OFFCURVE",
"411 444 OFFCURVE",
"443 432 CURVE SMOOTH",
"452 428 OFFCURVE",
"459 424 OFFCURVE",
"456 417 CURVE",
"440 327 OFFCURVE",
"383 92 OFFCURVE",
"372 58 CURVE",
"369 45 OFFCURVE",
"360 41 OFFCURVE",
"351 39 CURVE SMOOTH",
"310 29 OFFCURVE",
"256 25 OFFCURVE",
"223 25 CURVE SMOOTH",
"158 25 OFFCURVE",
"74 61 OFFCURVE",
"120 245 CURVE SMOOTH"
);
}
);
};
hints = (
{
horizontal = 1;
place = "{-116, 21}";
target = up;
type = BottomGhost;
},
{
horizontal = 1;
place = "{-17, 30}";
type = Stem;
},
{
horizontal = 1;
place = "{438, 27}";
type = Stem;
},
{
place = "{36, 30}";
type = Stem;
},
{
place = "{372, 30}";
type = Stem;
}
);
layerId = "707362F1-A677-446A-8636-E10BE3A7FAFF";
paths = (
{
closed = 1;
nodes = (
"236 -7 OFFCURVE",
"284 1 OFFCURVE",
"318 9 CURVE",
"325 12 OFFCURVE",
"330 11 OFFCURVE",
"329 5 CURVE SMOOTH",
"325 -12 OFFCURVE",
"314 -59 OFFCURVE",
"300 -109 CURVE SMOOTH",
"299 -111 OFFCURVE",
"297 -117 OFFCURVE",
"304 -117 CURVE SMOOTH",
"326 -117 LINE SMOOTH",
"330 -117 OFFCURVE",
"332 -112 OFFCURVE",
"332 -110 CURVE SMOOTH",
"380 58 OFFCURVE",
"441 295 OFFCURVE",
"467 439 CURVE SMOOTH",
"468 445 OFFCURVE",
"469 452 OFFCURVE",
"459 455 CURVE SMOOTH",
"410 472 OFFCURVE",
"365 480 OFFCURVE",
"303 480 CURVE SMOOTH",
"178 480 OFFCURVE",
"100 407 OFFCURVE",
"59 245 CURVE SMOOTH",
"9 42 OFFCURVE",
"102 -7 OFFCURVE",
"187 -7 CURVE SMOOTH"
);
},
{
closed = 1;
nodes = (
"132 399 OFFCURVE",
"203 452 OFFCURVE",
"299 452 CURVE SMOOTH",
"342 452 OFFCURVE",
"383 444 OFFCURVE",
"415 432 CURVE SMOOTH",
"424 428 OFFCURVE",
"431 424 OFFCURVE",
"428 417 CURVE",
"412 327 OFFCURVE",
"355 92 OFFCURVE",
"344 58 CURVE",
"341 45 OFFCURVE",
"332 41 OFFCURVE",
"323 39 CURVE SMOOTH",
"282 29 OFFCURVE",
"228 25 OFFCURVE",
"195 25 CURVE SMOOTH",
"130 25 OFFCURVE",
"46 61 OFFCURVE",
"92 245 CURVE SMOOTH"
);
}
);
width = 576;
},
{
background = {
paths = (
{
closed = 1;
nodes = (
"115 -5 OFFCURVE",
"169 -11 OFFCURVE",
"211 -7 CURVE SMOOTH",
"227 -6 OFFCURVE",
"235 -2 OFFCURVE",
"233 -12 CURVE SMOOTH",
"231 -26 OFFCURVE",
"216 -72 OFFCURVE",
"214 -79 CURVE SMOOTH",
"207 -100 OFFCURVE",
"199 -106 OFFCURVE",
"221 -106 CURVE SMOOTH",
"331 -106 LINE SMOOTH",
"341 -106 OFFCURVE",
"349 -105 OFFCURVE",
"354 -96 CURVE",
"382 -30 OFFCURVE",
"488 367 OFFCURVE",
"486 424 CURVE SMOOTH",
"485 440 OFFCURVE",
"483 447 OFFCURVE",
"456 458 CURVE SMOOTH",
"434 466 OFFCURVE",
"376 481 OFFCURVE",
"307 481 CURVE SMOOTH",
"174 481 OFFCURVE",
"74 408 OFFCURVE",
"33 247 CURVE SMOOTH",
"-2 114 OFFCURVE",
"31 45 OFFCURVE",
"84 14 CURVE SMOOTH"
);
},
{
closed = 1;
nodes = (
"208 341 OFFCURVE",
"242 369 OFFCURVE",
"278 369 CURVE SMOOTH",
"297 369 OFFCURVE",
"313 366 OFFCURVE",
"324 361 CURVE",
"326 359 OFFCURVE",
"326 356 OFFCURVE",
"324 349 CURVE",
"308 281 OFFCURVE",
"293 212 OFFCURVE",
"274 144 CURVE SMOOTH",
"272 136 OFFCURVE",
"271 133 OFFCURVE",
"266 132 CURVE SMOOTH",
"250 127 OFFCURVE",
"227 122 OFFCURVE",
"214 122 CURVE SMOOTH",
"186 122 OFFCURVE",
"154 137 OFFCURVE",
"183 248 CURVE SMOOTH"
);
}
);
};
layerId = "D1BC8BBB-1669-4C46-BC21-42BF6808B2B9";
paths = (
{
closed = 1;
nodes = (
"115 -5 OFFCURVE",
"169 -11 OFFCURVE",
"211 -7 CURVE SMOOTH",
"227 -6 OFFCURVE",
"235 -2 OFFCURVE",
"233 -12 CURVE SMOOTH",
"231 -26 OFFCURVE",
"216 -72 OFFCURVE",
"214 -79 CURVE SMOOTH",
"207 -100 OFFCURVE",
"199 -106 OFFCURVE",
"221 -106 CURVE SMOOTH",
"331 -106 LINE SMOOTH",
"341 -106 OFFCURVE",
"349 -105 OFFCURVE",
"354 -96 CURVE",
"382 -30 OFFCURVE",
"488 367 OFFCURVE",
"486 424 CURVE SMOOTH",
"485 440 OFFCURVE",
"483 447 OFFCURVE",
"456 458 CURVE SMOOTH",
"434 466 OFFCURVE",
"376 481 OFFCURVE",
"307 481 CURVE SMOOTH",
"174 481 OFFCURVE",
"74 408 OFFCURVE",
"33 247 CURVE SMOOTH",
"-2 114 OFFCURVE",
"31 45 OFFCURVE",
"84 14 CURVE SMOOTH"
);
},
{
closed = 1;
nodes = (
"208 341 OFFCURVE",
"242 369 OFFCURVE",
"278 369 CURVE SMOOTH",
"297 369 OFFCURVE",
"313 366 OFFCURVE",
"324 361 CURVE",
"326 359 OFFCURVE",
"326 356 OFFCURVE",
"324 349 CURVE",
"308 281 OFFCURVE",
"293 212 OFFCURVE",
"274 144 CURVE SMOOTH",
"272 136 OFFCURVE",
"271 133 OFFCURVE",
"266 132 CURVE SMOOTH",
"250 127 OFFCURVE",
"227 122 OFFCURVE",
"214 122 CURVE SMOOTH",
"186 122 OFFCURVE",
"154 137 OFFCURVE",
"183 248 CURVE SMOOTH"
);
}
);
width = 483;
}
);
leftKerningGroup = o;
leftMetricsKey = o;
note = q;
rightKerningGroup = d;
rightMetricsKey = d;
unicode = 0071;
},
{
glyphname = r;
lastChange = "2021-06-09 01:54:25 +0000";
layers = (
{
background = {
paths = (
{
closed = 1;
nodes = (
"283 477 OFFCURVE",
"224 465 OFFCURVE",
"181 447 CURVE SMOOTH",
"170 442 OFFCURVE",
"164 438 OFFCURVE",
"160 419 CURVE SMOOTH",
"72 4 LINE SMOOTH",
"71 1 OFFCURVE",
"72 0 OFFCURVE",
"75 0 CURVE SMOOTH",
"100 0 LINE SMOOTH",
"103 0 OFFCURVE",
"104 1 OFFCURVE",
"105 4 CURVE SMOOTH",
"189 399 LINE SMOOTH",
"193 418 OFFCURVE",
"204 421 OFFCURVE",
"212 425 CURVE SMOOTH",
"229 432 OFFCURVE",
"288 446 OFFCURVE",
"321 446 CURVE SMOOTH",
"351 446 OFFCURVE",
"379 442 OFFCURVE",
"401 434 CURVE SMOOTH",
"404 433 OFFCURVE",
"407 433 OFFCURVE",
"409 437 CURVE SMOOTH",
"418 458 LINE SMOOTH",
"420 463 OFFCURVE",
"415 464 OFFCURVE",
"413 465 CURVE SMOOTH",
"390 473 OFFCURVE",
"361 477 OFFCURVE",
"327 477 CURVE SMOOTH"
);
}
);
};
hints = (
{
horizontal = 1;
place = "{12, 21}";
target = up;
type = BottomGhost;
},
{
horizontal = 1;
place = "{455, 38}";
type = Stem;
},
{
horizontal = 1;
place = "{480, -20}";
target = down;
type = TopGhost;
},
{
place = "{68, 41}";
type = Stem;
}
);
layerId = "707362F1-A677-446A-8636-E10BE3A7FAFF";
paths = (
{
closed = 1;
nodes = (
"291 477 OFFCURVE",
"232 465 OFFCURVE",
"189 447 CURVE SMOOTH",
"178 442 OFFCURVE",
"172 438 OFFCURVE",
"168 419 CURVE SMOOTH",
"80 4 LINE SMOOTH",
"79 1 OFFCURVE",
"80 0 OFFCURVE",
"83 0 CURVE SMOOTH",
"108 0 LINE SMOOTH",
"111 0 OFFCURVE",
"112 1 OFFCURVE",
"113 4 CURVE SMOOTH",
"197 399 LINE SMOOTH",
"201 418 OFFCURVE",
"212 421 OFFCURVE",
"220 425 CURVE SMOOTH",
"237 432 OFFCURVE",
"296 446 OFFCURVE",
"329 446 CURVE SMOOTH",
"359 446 OFFCURVE",
"387 442 OFFCURVE",
"409 434 CURVE SMOOTH",
"412 433 OFFCURVE",
"415 433 OFFCURVE",
"417 437 CURVE SMOOTH",
"426 458 LINE SMOOTH",
"428 463 OFFCURVE",
"423 464 OFFCURVE",
"421 465 CURVE SMOOTH",
"398 473 OFFCURVE",
"369 477 OFFCURVE",
"335 477 CURVE SMOOTH"
);
}
);
width = 456;
},
{
background = {
paths = (
{
closed = 1;
nodes = (
"212 476 OFFCURVE",
"147 466 OFFCURVE",
"103 447 CURVE SMOOTH",
"87 440 OFFCURVE",
"83 438 OFFCURVE",
"79 417 CURVE SMOOTH",
"-6 20 LINE SMOOTH",
"-10 2 OFFCURVE",
"-3 0 OFFCURVE",
"4 0 CURVE SMOOTH",
"116 0 LINE SMOOTH",
"131 0 OFFCURVE",
"136 2 OFFCURVE",
"141 24 CURVE SMOOTH",
"206 330 LINE SMOOTH",
"210 348 OFFCURVE",
"216 350 OFFCURVE",
"223 354 CURVE SMOOTH",
"230 358 OFFCURVE",
"237 361 OFFCURVE",
"269 361 CURVE SMOOTH",
"281 361 OFFCURVE",
"313 358 OFFCURVE",
"335 351 CURVE SMOOTH",
"347 347 OFFCURVE",
"350 348 OFFCURVE",
"356 360 CURVE SMOOTH",
"391 431 LINE SMOOTH",
"395 440 OFFCURVE",
"397 445 OFFCURVE",
"383 452 CURVE SMOOTH",
"351 468 OFFCURVE",
"309 476 OFFCURVE",
"255 476 CURVE SMOOTH"
);
}
);
};
layerId = "D1BC8BBB-1669-4C46-BC21-42BF6808B2B9";
paths = (
{
closed = 1;
nodes = (
"212 476 OFFCURVE",
"147 466 OFFCURVE",
"103 447 CURVE SMOOTH",
"87 440 OFFCURVE",
"83 438 OFFCURVE",
"79 417 CURVE SMOOTH",
"-6 20 LINE SMOOTH",
"-10 2 OFFCURVE",
"-3 0 OFFCURVE",
"4 0 CURVE SMOOTH",
"116 0 LINE SMOOTH",
"131 0 OFFCURVE",
"136 2 OFFCURVE",
"141 24 CURVE SMOOTH",
"206 330 LINE SMOOTH",
"210 348 OFFCURVE",
"216 350 OFFCURVE",
"223 354 CURVE SMOOTH",
"230 358 OFFCURVE",
"237 361 OFFCURVE",
"269 361 CURVE SMOOTH",
"281 361 OFFCURVE",
"313 358 OFFCURVE",
"335 351 CURVE SMOOTH",
"347 347 OFFCURVE",
"350 348 OFFCURVE",
"356 360 CURVE SMOOTH",
"391 431 LINE SMOOTH",
"395 440 OFFCURVE",
"397 445 OFFCURVE",
"383 452 CURVE SMOOTH",
"351 468 OFFCURVE",
"309 476 OFFCURVE",
"255 476 CURVE SMOOTH"
);
}
);
width = 361;
}
);
leftKerningGroup = n;
leftMetricsKey = n;
note = r;
rightKerningGroup = r;
unicode = 0072;
},
{
glyphname = s;
lastChange = "2021-06-09 01:54:27 +0000";
layers = (
{
background = {
paths = (
{
closed = 1;
nodes = (
"-7 35 LINE SMOOTH",
"-8 33 OFFCURVE",
"-8 31 OFFCURVE",
"-8 29 CURVE",
"27 6 OFFCURVE",
"93 -5 OFFCURVE",
"127 -5 CURVE SMOOTH",
"202 -5 OFFCURVE",
"301 31 OFFCURVE",
"324 142 CURVE SMOOTH",
"347 249 OFFCURVE",
"272 255 OFFCURVE",
"202 261 CURVE SMOOTH",
"139 267 OFFCURVE",
"78 273 OFFCURVE",
"95 352 CURVE SMOOTH",
"105 401 OFFCURVE",
"165 447 OFFCURVE",
"258 447 CURVE SMOOTH",
"288 447 OFFCURVE",
"342 432 OFFCURVE",
"360 415 CURVE",
"362 414 OFFCURVE",
"366 413 OFFCURVE",
"367 415 CURVE",
"378 437 LINE",
"378 439 OFFCURVE",
"379 441 OFFCURVE",
"378 442 CURVE SMOOTH",
"355 465 OFFCURVE",
"298 477 OFFCURVE",
"264 477 CURVE SMOOTH",
"164 477 OFFCURVE",
"78 430 OFFCURVE",
"62 352 CURVE SMOOTH",
"39 246 OFFCURVE",
"109 237 OFFCURVE",
"178 231 CURVE SMOOTH",
"244 225 OFFCURVE",
"308 222 OFFCURVE",
"291 142 CURVE SMOOTH",
"274 59 OFFCURVE",
"201 25 OFFCURVE",
"133 25 CURVE SMOOTH",
"99 25 OFFCURVE",
"33 39 OFFCURVE",
"7 60 CURVE",
"5 63 OFFCURVE",
"2 63 OFFCURVE",
"2 60 CURVE SMOOTH"
);
}
);
};
hints = (
{
horizontal = 1;
place = "{52, 88}";
type = Stem;
},
{
horizontal = 1;
place = "{504, 91}";
type = Stem;
},
{
place = "{117, 93}";
type = Stem;
},
{
place = "{385, 95}";
type = Stem;
}
);
layerId = "707362F1-A677-446A-8636-E10BE3A7FAFF";
paths = (
{
closed = 1;
nodes = (
"51 35 LINE SMOOTH",
"50 33 OFFCURVE",
"50 31 OFFCURVE",
"50 29 CURVE",
"85 6 OFFCURVE",
"151 -5 OFFCURVE",
"185 -5 CURVE SMOOTH",
"260 -5 OFFCURVE",
"359 31 OFFCURVE",
"382 142 CURVE SMOOTH",
"405 249 OFFCURVE",
"330 255 OFFCURVE",
"260 261 CURVE SMOOTH",
"197 267 OFFCURVE",
"136 273 OFFCURVE",
"153 352 CURVE SMOOTH",
"163 401 OFFCURVE",
"223 447 OFFCURVE",
"316 447 CURVE SMOOTH",
"346 447 OFFCURVE",
"400 432 OFFCURVE",
"418 415 CURVE",
"420 414 OFFCURVE",
"424 413 OFFCURVE",
"425 415 CURVE",
"436 437 LINE",
"436 439 OFFCURVE",
"437 441 OFFCURVE",
"436 442 CURVE SMOOTH",
"413 465 OFFCURVE",
"356 477 OFFCURVE",
"322 477 CURVE SMOOTH",
"222 477 OFFCURVE",
"136 430 OFFCURVE",
"120 352 CURVE SMOOTH",
"97 246 OFFCURVE",
"167 237 OFFCURVE",
"236 231 CURVE SMOOTH",
"302 225 OFFCURVE",
"366 222 OFFCURVE",
"349 142 CURVE SMOOTH",
"332 59 OFFCURVE",
"259 25 OFFCURVE",
"191 25 CURVE SMOOTH",
"157 25 OFFCURVE",
"91 39 OFFCURVE",
"65 60 CURVE",
"63 63 OFFCURVE",
"60 63 OFFCURVE",
"60 60 CURVE SMOOTH"
);
}
);
width = 486;
},
{
background = {
paths = (
{
closed = 1;
nodes = (
"-13 54 LINE SMOOTH",
"-17 46 OFFCURVE",
"-13 41 OFFCURVE",
"-8 37 CURVE SMOOTH",
"28 6 OFFCURVE",
"106 -5 OFFCURVE",
"145 -5 CURVE SMOOTH",
"232 -5 OFFCURVE",
"347 33 OFFCURVE",
"373 155 CURVE SMOOTH",
"397 267 OFFCURVE",
"295 298 OFFCURVE",
"247 302 CURVE SMOOTH",
"209 304 OFFCURVE",
"188 317 OFFCURVE",
"193 340 CURVE SMOOTH",
"197 358 OFFCURVE",
"221 369 OFFCURVE",
"257 369 CURVE SMOOTH",
"287 369 OFFCURVE",
"327 350 OFFCURVE",
"355 334 CURVE",
"364 330 OFFCURVE",
"374 333 OFFCURVE",
"378 341 CURVE",
"420 414 LINE",
"426 425 OFFCURVE",
"428 427 OFFCURVE",
"416 437 CURVE SMOOTH",
"383 466 OFFCURVE",
"315 477 OFFCURVE",
"281 477 CURVE SMOOTH",
"170 477 OFFCURVE",
"71 427 OFFCURVE",
"51 336 CURVE SMOOTH",
"26 217 OFFCURVE",
"110 194 OFFCURVE",
"160 185 CURVE SMOOTH",
"239 171 OFFCURVE",
"240 156 OFFCURVE",
"236 140 CURVE SMOOTH",
"228 114 OFFCURVE",
"201 105 OFFCURVE",
"166 105 CURVE SMOOTH",
"128 105 OFFCURVE",
"74 113 OFFCURVE",
"44 132 CURVE",
"36 138 OFFCURVE",
"26 144 OFFCURVE",
"18 127 CURVE SMOOTH"
);
}
);
};
layerId = "D1BC8BBB-1669-4C46-BC21-42BF6808B2B9";
paths = (
{
closed = 1;
nodes = (
"-13 54 LINE SMOOTH",
"-17 46 OFFCURVE",
"-13 41 OFFCURVE",
"-8 37 CURVE SMOOTH",
"28 6 OFFCURVE",
"106 -5 OFFCURVE",
"145 -5 CURVE SMOOTH",
"232 -5 OFFCURVE",
"347 33 OFFCURVE",
"373 155 CURVE SMOOTH",
"397 267 OFFCURVE",
"295 298 OFFCURVE",
"247 302 CURVE SMOOTH",
"209 304 OFFCURVE",
"188 317 OFFCURVE",
"193 340 CURVE SMOOTH",
"197 358 OFFCURVE",
"221 369 OFFCURVE",
"257 369 CURVE SMOOTH",
"287 369 OFFCURVE",
"327 350 OFFCURVE",
"355 334 CURVE",
"364 330 OFFCURVE",
"374 333 OFFCURVE",
"378 341 CURVE",
"420 414 LINE",
"426 425 OFFCURVE",
"428 427 OFFCURVE",
"416 437 CURVE SMOOTH",
"383 466 OFFCURVE",
"315 477 OFFCURVE",
"281 477 CURVE SMOOTH",
"170 477 OFFCURVE",
"71 427 OFFCURVE",
"51 336 CURVE SMOOTH",
"26 217 OFFCURVE",
"110 194 OFFCURVE",
"160 185 CURVE SMOOTH",
"239 171 OFFCURVE",
"240 156 OFFCURVE",
"236 140 CURVE SMOOTH",
"228 114 OFFCURVE",
"201 105 OFFCURVE",
"166 105 CURVE SMOOTH",
"128 105 OFFCURVE",
"74 113 OFFCURVE",
"44 132 CURVE",
"36 138 OFFCURVE",
"26 144 OFFCURVE",
"18 127 CURVE SMOOTH"
);
}
);
width = 415;
}
);
leftKerningGroup = s;
note = s;
rightKerningGroup = s;
unicode = 0073;
},
{
glyphname = t;
lastChange = "2021-06-09 01:54:31 +0000";
layers = (
{
background = {
paths = (
{
closed = 1;
nodes = (
"254 0 OFFCURVE",
"303 5 OFFCURVE",
"325 14 CURVE SMOOTH",
"333 18 OFFCURVE",
"335 19 OFFCURVE",
"334 25 CURVE SMOOTH",
"332 40 LINE SMOOTH",
"331 44 OFFCURVE",
"329 44 OFFCURVE",
"324 42 CURVE SMOOTH",
"299 34 OFFCURVE",
"277 29 OFFCURVE",
"256 29 CURVE SMOOTH",
"195 29 OFFCURVE",
"177 53 OFFCURVE",
"178 100 CURVE SMOOTH",
"178 160 OFFCURVE",
"195 224 OFFCURVE",
"207 283 CURVE SMOOTH",
"218 333 OFFCURVE",
"230 383 OFFCURVE",
"243 433 CURVE SMOOTH",
"244 439 OFFCURVE",
"250 442 OFFCURVE",
"253 442 CURVE SMOOTH",
"392 442 LINE SMOOTH",
"394 442 OFFCURVE",
"397 446 OFFCURVE",
"397 446 CURVE",
"401 468 LINE SMOOTH",
"402 470 OFFCURVE",
"400 472 OFFCURVE",
"398 472 CURVE SMOOTH",
"259 472 LINE SMOOTH",
"253 472 OFFCURVE",
"252 476 OFFCURVE",
"254 481 CURVE",
"278 572 LINE SMOOTH",
"278 575 OFFCURVE",
"276 576 OFFCURVE",
"274 576 CURVE SMOOTH",
"248 576 LINE SMOOTH",
"246 576 OFFCURVE",
"245 575 OFFCURVE",
"245 572 CURVE SMOOTH",
"220 480 LINE SMOOTH",
"218 473 OFFCURVE",
"215 472 OFFCURVE",
"210 472 CURVE SMOOTH",
"153 472 LINE SMOOTH",
"151 472 OFFCURVE",
"148 468 OFFCURVE",
"148 468 CURVE",
"144 446 LINE",
"144 446 OFFCURVE",
"145 442 OFFCURVE",
"147 442 CURVE SMOOTH",
"204 442 LINE SMOOTH",
"209 442 OFFCURVE",
"211 438 OFFCURVE",
"210 433 CURVE SMOOTH",
"197 385 OFFCURVE",
"185 336 OFFCURVE",
"175 287 CURVE SMOOTH",
"160 218 OFFCURVE",
"144 153 OFFCURVE",
"143 96 CURVE SMOOTH",
"141 34 OFFCURVE",
"167 0 OFFCURVE",
"245 0 CURVE SMOOTH"
);
}
);
};
hints = (
{
horizontal = 1;
place = "{-131, -93}";
type = Stem;
},
{
horizontal = 1;
place = "{131, -95}";
type = Stem;
},
{
horizontal = 1;
place = "{319, -93}";
type = Stem;
},
{
horizontal = 1;
place = "{559, -93}";
type = Stem;
},
{
place = "{-80, -89}";
type = Stem;
},
{
place = "{-34, -90}";
type = Stem;
},
{
place = "{7, -90}";
type = Stem;
},
{
place = "{261, -90}";
type = Stem;
},
{
horizontal = 1;
place = "{323, -92}";
type = Stem;
},
{
horizontal = 1;
place = "{-119, 21}";
target = up;
type = BottomGhost;
},
{
horizontal = 1;
place = "{-110, -94}";
type = Stem;
},
{
horizontal = 1;
place = "{-123, -94}";
type = Stem;
}
);
layerId = "707362F1-A677-446A-8636-E10BE3A7FAFF";
paths = (
{
closed = 1;
nodes = (
"131 0 OFFCURVE",
"180 5 OFFCURVE",
"202 14 CURVE SMOOTH",
"210 18 OFFCURVE",
"212 19 OFFCURVE",
"211 25 CURVE SMOOTH",
"209 40 LINE SMOOTH",
"208 44 OFFCURVE",
"206 44 OFFCURVE",
"201 42 CURVE SMOOTH",
"176 34 OFFCURVE",
"154 29 OFFCURVE",
"133 29 CURVE SMOOTH",
"72 29 OFFCURVE",
"54 53 OFFCURVE",
"55 100 CURVE SMOOTH",
"55 160 OFFCURVE",
"72 224 OFFCURVE",
"84 283 CURVE SMOOTH",
"95 333 OFFCURVE",
"107 383 OFFCURVE",
"120 433 CURVE SMOOTH",
"121 439 OFFCURVE",
"127 442 OFFCURVE",
"130 442 CURVE SMOOTH",
"269 442 LINE SMOOTH",
"271 442 OFFCURVE",
"274 446 OFFCURVE",
"274 446 CURVE",
"278 468 LINE SMOOTH",
"279 470 OFFCURVE",
"277 472 OFFCURVE",
"275 472 CURVE SMOOTH",
"136 472 LINE SMOOTH",
"130 472 OFFCURVE",
"129 476 OFFCURVE",
"131 481 CURVE",
"155 572 LINE SMOOTH",
"155 575 OFFCURVE",
"153 576 OFFCURVE",
"151 576 CURVE SMOOTH",
"125 576 LINE SMOOTH",
"123 576 OFFCURVE",
"122 575 OFFCURVE",
"122 572 CURVE SMOOTH",
"97 480 LINE SMOOTH",
"95 473 OFFCURVE",
"92 472 OFFCURVE",
"87 472 CURVE SMOOTH",
"30 472 LINE SMOOTH",
"28 472 OFFCURVE",
"25 468 OFFCURVE",
"25 468 CURVE",
"21 446 LINE",
"21 446 OFFCURVE",
"22 442 OFFCURVE",
"24 442 CURVE SMOOTH",
"81 442 LINE SMOOTH",
"86 442 OFFCURVE",
"88 438 OFFCURVE",
"87 433 CURVE SMOOTH",
"74 385 OFFCURVE",
"62 336 OFFCURVE",
"52 287 CURVE SMOOTH",
"37 218 OFFCURVE",
"21 153 OFFCURVE",
"20 96 CURVE SMOOTH",
"18 34 OFFCURVE",
"44 0 OFFCURVE",
"122 0 CURVE SMOOTH"
);
}
);
width = 318;
},
{
background = {
paths = (
{
closed = 1;
nodes = (
"215 0 OFFCURVE",
"243 5 OFFCURVE",
"270 14 CURVE SMOOTH",
"298 24 OFFCURVE",
"309 31 OFFCURVE",
"306 42 CURVE",
"301 111 LINE",
"298 125 OFFCURVE",
"298 130 OFFCURVE",
"279 120 CURVE",
"270 117 OFFCURVE",
"254 111 OFFCURVE",
"239 111 CURVE SMOOTH",
"223 111 OFFCURVE",
"210 118 OFFCURVE",
"209 140 CURVE SMOOTH",
"208 180 OFFCURVE",
"216 226 OFFCURVE",
"225 270 CURVE SMOOTH",
"234 304 OFFCURVE",
"242 337 OFFCURVE",
"249 368 CURVE SMOOTH",
"252 379 OFFCURVE",
"254 383 OFFCURVE",
"264 383 CURVE SMOOTH",
"336 383 LINE SMOOTH",
"351 383 OFFCURVE",
"355 385 OFFCURVE",
"358 400 CURVE SMOOTH",
"369 453 LINE SMOOTH",
"373 471 OFFCURVE",
"373 472 OFFCURVE",
"357 472 CURVE SMOOTH",
"284 472 LINE SMOOTH",
"276 472 OFFCURVE",
"276 473 OFFCURVE",
"280 490 CURVE SMOOTH",
"300 562 LINE SMOOTH",
"302 570 OFFCURVE",
"295 576 OFFCURVE",
"287 576 CURVE SMOOTH",
"173 576 LINE SMOOTH",
"164 576 OFFCURVE",
"158 570 OFFCURVE",
"156 562 CURVE SMOOTH",
"137 491 LINE SMOOTH",
"134 478 OFFCURVE",
"132 472 OFFCURVE",
"122 472 CURVE SMOOTH",
"83 472 LINE SMOOTH",
"67 472 OFFCURVE",
"66 473 OFFCURVE",
"62 455 CURVE SMOOTH",
"50 399 LINE SMOOTH",
"46 383 OFFCURVE",
"49 383 OFFCURVE",
"61 383 CURVE SMOOTH",
"99 383 LINE SMOOTH",
"105 383 OFFCURVE",
"108 381 OFFCURVE",
"106 373 CURVE SMOOTH",
"97 340 OFFCURVE",
"93 319 OFFCURVE",
"85 282 CURVE SMOOTH",
"73 225 OFFCURVE",
"59 166 OFFCURVE",
"58 110 CURVE SMOOTH",
"59 40 OFFCURVE",
"92 0 OFFCURVE",
"185 0 CURVE SMOOTH"
);
}
);
};
layerId = "D1BC8BBB-1669-4C46-BC21-42BF6808B2B9";
paths = (
{
closed = 1;
nodes = (
"215 0 OFFCURVE",
"243 5 OFFCURVE",
"270 14 CURVE SMOOTH",
"298 24 OFFCURVE",
"309 31 OFFCURVE",
"306 42 CURVE",
"301 111 LINE",
"298 125 OFFCURVE",
"298 130 OFFCURVE",
"279 120 CURVE",
"270 117 OFFCURVE",
"254 111 OFFCURVE",
"239 111 CURVE SMOOTH",
"223 111 OFFCURVE",
"210 118 OFFCURVE",
"209 140 CURVE SMOOTH",
"208 180 OFFCURVE",
"216 226 OFFCURVE",
"225 270 CURVE SMOOTH",
"234 304 OFFCURVE",
"242 337 OFFCURVE",
"249 368 CURVE SMOOTH",
"252 379 OFFCURVE",
"254 383 OFFCURVE",
"264 383 CURVE SMOOTH",
"336 383 LINE SMOOTH",
"351 383 OFFCURVE",
"355 385 OFFCURVE",
"358 400 CURVE SMOOTH",
"369 453 LINE SMOOTH",
"373 471 OFFCURVE",
"373 472 OFFCURVE",
"357 472 CURVE SMOOTH",
"284 472 LINE SMOOTH",
"276 472 OFFCURVE",
"276 473 OFFCURVE",
"280 490 CURVE SMOOTH",
"300 562 LINE SMOOTH",
"302 570 OFFCURVE",
"295 576 OFFCURVE",
"287 576 CURVE SMOOTH",
"173 576 LINE SMOOTH",
"164 576 OFFCURVE",
"158 570 OFFCURVE",
"156 562 CURVE SMOOTH",
"137 491 LINE SMOOTH",
"134 478 OFFCURVE",
"132 472 OFFCURVE",
"122 472 CURVE SMOOTH",
"83 472 LINE SMOOTH",
"67 472 OFFCURVE",
"66 473 OFFCURVE",
"62 455 CURVE SMOOTH",
"50 399 LINE SMOOTH",
"46 383 OFFCURVE",
"49 383 OFFCURVE",
"61 383 CURVE SMOOTH",
"99 383 LINE SMOOTH",
"105 383 OFFCURVE",
"108 381 OFFCURVE",
"106 373 CURVE SMOOTH",
"97 340 OFFCURVE",
"93 319 OFFCURVE",
"85 282 CURVE SMOOTH",
"73 225 OFFCURVE",
"59 166 OFFCURVE",
"58 110 CURVE SMOOTH",
"59 40 OFFCURVE",
"92 0 OFFCURVE",
"185 0 CURVE SMOOTH"
);
}
);
width = 369;
}
);
leftKerningGroup = t;
note = t;
rightKerningGroup = t;
unicode = 0074;
},
{
glyphname = u;
lastChange = "2021-06-09 01:54:36 +0000";
layers = (
{
background = {
paths = (
{
closed = 1;
nodes = (
"290 -4 OFFCURVE",
"365 13 OFFCURVE",
"380 19 CURVE SMOOTH",
"404 27 OFFCURVE",
"411 32 OFFCURVE",
"414 48 CURVE SMOOTH",
"503 468 LINE SMOOTH",
"504 471 OFFCURVE",
"502 472 OFFCURVE",
"500 472 CURVE SMOOTH",
"474 472 LINE SMOOTH",
"472 472 OFFCURVE",
"471 471 OFFCURVE",
"470 468 CURVE SMOOTH",
"386 71 LINE SMOOTH",
"379 38 OFFCURVE",
"273 28 OFFCURVE",
"246 28 CURVE SMOOTH",
"140 28 OFFCURVE",
"114 104 OFFCURVE",
"138 215 CURVE SMOOTH",
"160 320 OFFCURVE",
"193 444 OFFCURVE",
"199 465 CURVE SMOOTH",
"201 471 OFFCURVE",
"200 472 OFFCURVE",
"194 472 CURVE SMOOTH",
"177 472 LINE SMOOTH",
"171 472 OFFCURVE",
"168 471 OFFCURVE",
"166 467 CURVE",
"157 431 OFFCURVE",
"127 322 OFFCURVE",
"105 219 CURVE SMOOTH",
"79 94 OFFCURVE",
"95 -4 OFFCURVE",
"241 -4 CURVE SMOOTH"
);
}
);
};
hints = (
{
horizontal = 1;
place = "{-40, -3}";
type = Stem;
},
{
horizontal = 1;
place = "{413, -3}";
type = Stem;
},
{
place = "{24, -1}";
type = Stem;
},
{
place = "{349, -1}";
type = Stem;
},
{
horizontal = 1;
place = "{438, -20}";
target = down;
type = TopGhost;
},
{
place = "{338, -1}";
type = Stem;
}
);
layerId = "707362F1-A677-446A-8636-E10BE3A7FAFF";
paths = (
{
closed = 1;
nodes = (
"255 -4 OFFCURVE",
"330 13 OFFCURVE",
"345 19 CURVE SMOOTH",
"369 27 OFFCURVE",
"376 32 OFFCURVE",
"379 48 CURVE SMOOTH",
"468 468 LINE SMOOTH",
"469 471 OFFCURVE",
"467 472 OFFCURVE",
"465 472 CURVE SMOOTH",
"439 472 LINE SMOOTH",
"437 472 OFFCURVE",
"436 471 OFFCURVE",
"435 468 CURVE SMOOTH",
"351 71 LINE SMOOTH",
"344 38 OFFCURVE",
"238 28 OFFCURVE",
"211 28 CURVE SMOOTH",
"105 28 OFFCURVE",
"79 104 OFFCURVE",
"103 215 CURVE SMOOTH",
"125 320 OFFCURVE",
"158 444 OFFCURVE",
"164 465 CURVE SMOOTH",
"166 471 OFFCURVE",
"165 472 OFFCURVE",
"159 472 CURVE SMOOTH",
"142 472 LINE SMOOTH",
"136 472 OFFCURVE",
"133 471 OFFCURVE",
"131 467 CURVE",
"122 431 OFFCURVE",
"92 322 OFFCURVE",
"70 219 CURVE SMOOTH",
"44 94 OFFCURVE",
"60 -4 OFFCURVE",
"206 -4 CURVE SMOOTH"
);
}
);
width = 570;
},
{
background = {
paths = (
{
closed = 1;
nodes = (
"238 -4 OFFCURVE",
"316 12 OFFCURVE",
"342 20 CURVE SMOOTH",
"375 31 OFFCURVE",
"383 34 OFFCURVE",
"386 50 CURVE SMOOTH",
"473 457 LINE SMOOTH",
"476 471 OFFCURVE",
"465 472 OFFCURVE",
"460 472 CURVE SMOOTH",
"340 472 LINE SMOOTH",
"331 472 OFFCURVE",
"329 460 OFFCURVE",
"327 452 CURVE SMOOTH",
"257 125 LINE SMOOTH",
"254 109 OFFCURVE",
"228 109 OFFCURVE",
"217 109 CURVE SMOOTH",
"172 109 OFFCURVE",
"161 139 OFFCURVE",
"178 218 CURVE SMOOTH",
"195 298 OFFCURVE",
"233 440 OFFCURVE",
"237 451 CURVE SMOOTH",
"246 478 OFFCURVE",
"235 472 OFFCURVE",
"215 472 CURVE SMOOTH",
"121 472 LINE SMOOTH",
"100 472 OFFCURVE",
"97 472 OFFCURVE",
"88 444 CURVE SMOOTH",
"65 376 OFFCURVE",
"42 291 OFFCURVE",
"27 222 CURVE SMOOTH",
"1 100 OFFCURVE",
"20 -4 OFFCURVE",
"189 -4 CURVE SMOOTH"
);
}
);
};
layerId = "D1BC8BBB-1669-4C46-BC21-42BF6808B2B9";
paths = (
{
closed = 1;
nodes = (
"238 -4 OFFCURVE",
"316 12 OFFCURVE",
"342 20 CURVE SMOOTH",
"375 31 OFFCURVE",
"383 34 OFFCURVE",
"386 50 CURVE SMOOTH",
"473 457 LINE SMOOTH",
"476 471 OFFCURVE",
"465 472 OFFCURVE",
"460 472 CURVE SMOOTH",
"340 472 LINE SMOOTH",
"331 472 OFFCURVE",
"329 460 OFFCURVE",
"327 452 CURVE SMOOTH",
"257 125 LINE SMOOTH",
"254 109 OFFCURVE",
"228 109 OFFCURVE",
"217 109 CURVE SMOOTH",
"172 109 OFFCURVE",
"161 139 OFFCURVE",
"178 218 CURVE SMOOTH",
"195 298 OFFCURVE",
"233 440 OFFCURVE",
"237 451 CURVE SMOOTH",
"246 478 OFFCURVE",
"235 472 OFFCURVE",
"215 472 CURVE SMOOTH",
"121 472 LINE SMOOTH",
"100 472 OFFCURVE",
"97 472 OFFCURVE",
"88 444 CURVE SMOOTH",
"65 376 OFFCURVE",
"42 291 OFFCURVE",
"27 222 CURVE SMOOTH",
"1 100 OFFCURVE",
"20 -4 OFFCURVE",
"189 -4 CURVE SMOOTH"
);
}
);
width = 458;
}
);
leftKerningGroup = u;
note = u;
rightKerningGroup = l;
rightMetricsKey = l;
unicode = 0075;
},
{
glyphname = v;
lastChange = "2021-06-09 01:54:39 +0000";
layers = (
{
background = {
paths = (
{
closed = 1;
nodes = (
"245 0 LINE SMOOTH",
"249 0 OFFCURVE",
"252 3 OFFCURVE",
"254 6 CURVE SMOOTH",
"298 67 OFFCURVE",
"340 137 OFFCURVE",
"381 214 CURVE SMOOTH",
"431 306 OFFCURVE",
"474 403 OFFCURVE",
"495 465 CURVE SMOOTH",
"497 471 OFFCURVE",
"495 472 OFFCURVE",
"491 472 CURVE SMOOTH",
"468 472 LINE SMOOTH",
"464 472 OFFCURVE",
"460 471 OFFCURVE",
"458 465 CURVE SMOOTH",
"439 409 OFFCURVE",
"400 317 OFFCURVE",
"354 230 CURVE SMOOTH",
"312 150 OFFCURVE",
"269 76 OFFCURVE",
"248 51 CURVE SMOOTH",
"239 41 OFFCURVE",
"230 34 OFFCURVE",
"224 52 CURVE SMOOTH",
"213 80 OFFCURVE",
"200 168 OFFCURVE",
"193 257 CURVE SMOOTH",
"187 336 OFFCURVE",
"184 416 OFFCURVE",
"189 465 CURVE SMOOTH",
"189 471 OFFCURVE",
"185 472 OFFCURVE",
"182 472 CURVE SMOOTH",
"163 472 LINE SMOOTH",
"160 472 OFFCURVE",
"157 471 OFFCURVE",
"157 465 CURVE SMOOTH",
"152 400 OFFCURVE",
"154 296 OFFCURVE",
"166 190 CURVE SMOOTH",
"174 127 OFFCURVE",
"185 61 OFFCURVE",
"202 6 CURVE SMOOTH",
"204 1 OFFCURVE",
"206 0 OFFCURVE",
"211 0 CURVE SMOOTH"
);
}
);
};
hints = (
{
horizontal = 1;
place = "{-129, -92}";
type = Stem;
},
{
horizontal = 1;
place = "{343, -20}";
target = down;
type = TopGhost;
},
{
place = "{-91, 206}";
type = Stem;
}
);
layerId = "707362F1-A677-446A-8636-E10BE3A7FAFF";
paths = (
{
closed = 1;
nodes = (
"116 0 LINE SMOOTH",
"120 0 OFFCURVE",
"123 3 OFFCURVE",
"125 6 CURVE SMOOTH",
"169 67 OFFCURVE",
"211 137 OFFCURVE",
"252 214 CURVE SMOOTH",
"302 306 OFFCURVE",
"345 403 OFFCURVE",
"366 465 CURVE SMOOTH",
"368 471 OFFCURVE",
"366 472 OFFCURVE",
"362 472 CURVE SMOOTH",
"339 472 LINE SMOOTH",
"335 472 OFFCURVE",
"331 471 OFFCURVE",
"329 465 CURVE SMOOTH",
"310 409 OFFCURVE",
"271 317 OFFCURVE",
"225 230 CURVE SMOOTH",
"183 150 OFFCURVE",
"140 76 OFFCURVE",
"119 51 CURVE SMOOTH",
"110 41 OFFCURVE",
"101 34 OFFCURVE",
"95 52 CURVE SMOOTH",
"84 80 OFFCURVE",
"71 168 OFFCURVE",
"64 257 CURVE SMOOTH",
"58 336 OFFCURVE",
"55 416 OFFCURVE",
"60 465 CURVE SMOOTH",
"60 471 OFFCURVE",
"56 472 OFFCURVE",
"53 472 CURVE SMOOTH",
"34 472 LINE SMOOTH",
"31 472 OFFCURVE",
"28 471 OFFCURVE",
"28 465 CURVE SMOOTH",
"23 400 OFFCURVE",
"25 296 OFFCURVE",
"37 190 CURVE SMOOTH",
"45 127 OFFCURVE",
"56 61 OFFCURVE",
"73 6 CURVE SMOOTH",
"75 1 OFFCURVE",
"77 0 OFFCURVE",
"82 0 CURVE SMOOTH"
);
}
);
width = 392;
},
{
background = {
paths = (
{
closed = 1;
nodes = (
"207 -1 LINE SMOOTH",
"211 -1 OFFCURVE",
"213 0 OFFCURVE",
"217 5 CURVE SMOOTH",
"268 70 OFFCURVE",
"306 129 OFFCURVE",
"338 186 CURVE SMOOTH",
"392 281 OFFCURVE",
"434 373 OFFCURVE",
"467 464 CURVE SMOOTH",
"469 470 OFFCURVE",
"467 471 OFFCURVE",
"463 471 CURVE SMOOTH",
"331 471 LINE SMOOTH",
"329 471 OFFCURVE",
"327 470 OFFCURVE",
"325 466 CURVE",
"314 429 OFFCURVE",
"291 366 OFFCURVE",
"268 308 CURVE SMOOTH",
"245 254 OFFCURVE",
"235 228 OFFCURVE",
"223 206 CURVE SMOOTH",
"217 194 OFFCURVE",
"208 192 OFFCURVE",
"207 206 CURVE SMOOTH",
"205 241 OFFCURVE",
"203 272 OFFCURVE",
"204 332 CURVE SMOOTH",
"204 385 OFFCURVE",
"204 420 OFFCURVE",
"209 457 CURVE SMOOTH",
"210 464 OFFCURVE",
"206 472 OFFCURVE",
"195 472 CURVE SMOOTH",
"72 472 LINE SMOOTH",
"57 472 OFFCURVE",
"55 454 OFFCURVE",
"54 432 CURVE SMOOTH",
"52 370 OFFCURVE",
"54 296 OFFCURVE",
"72 190 CURVE SMOOTH",
"82 127 OFFCURVE",
"92 61 OFFCURVE",
"117 6 CURVE SMOOTH",
"120 0 OFFCURVE",
"122 0 OFFCURVE",
"128 0 CURVE SMOOTH"
);
}
);
};
layerId = "D1BC8BBB-1669-4C46-BC21-42BF6808B2B9";
paths = (
{
closed = 1;
nodes = (
"207 -1 LINE SMOOTH",
"211 -1 OFFCURVE",
"213 0 OFFCURVE",
"217 5 CURVE SMOOTH",
"268 70 OFFCURVE",
"306 129 OFFCURVE",
"338 186 CURVE SMOOTH",
"392 281 OFFCURVE",
"434 373 OFFCURVE",
"467 464 CURVE SMOOTH",
"469 470 OFFCURVE",
"467 471 OFFCURVE",
"463 471 CURVE SMOOTH",
"331 471 LINE SMOOTH",
"329 471 OFFCURVE",
"327 470 OFFCURVE",
"325 466 CURVE",
"314 429 OFFCURVE",
"291 366 OFFCURVE",
"268 308 CURVE SMOOTH",
"245 254 OFFCURVE",
"235 228 OFFCURVE",
"223 206 CURVE SMOOTH",
"217 194 OFFCURVE",
"208 192 OFFCURVE",
"207 206 CURVE SMOOTH",
"205 241 OFFCURVE",
"203 272 OFFCURVE",
"204 332 CURVE SMOOTH",
"204 385 OFFCURVE",
"204 420 OFFCURVE",
"209 457 CURVE SMOOTH",
"210 464 OFFCURVE",
"206 472 OFFCURVE",
"195 472 CURVE SMOOTH",
"72 472 LINE SMOOTH",
"57 472 OFFCURVE",
"55 454 OFFCURVE",
"54 432 CURVE SMOOTH",
"52 370 OFFCURVE",
"54 296 OFFCURVE",
"72 190 CURVE SMOOTH",
"82 127 OFFCURVE",
"92 61 OFFCURVE",
"117 6 CURVE SMOOTH",
"120 0 OFFCURVE",
"122 0 OFFCURVE",
"128 0 CURVE SMOOTH"
);
}
);
width = 429;
}
);
leftKerningGroup = v;
note = v;
rightKerningGroup = v;
unicode = 0076;
},
{
glyphname = w;
lastChange = "2021-06-09 01:54:45 +0000";
layers = (
{
background = {
paths = (
{
closed = 1;
nodes = (
"259 0 LINE SMOOTH",
"262 0 OFFCURVE",
"265 1 OFFCURVE",
"268 6 CURVE SMOOTH",
"281 25 OFFCURVE",
"296 45 OFFCURVE",
"309 65 CURVE SMOOTH",
"337 110 OFFCURVE",
"365 160 OFFCURVE",
"389 205 CURVE SMOOTH",
"393 213 OFFCURVE",
"400 214 OFFCURVE",
"401 204 CURVE SMOOTH",
"406 154 OFFCURVE",
"423 65 OFFCURVE",
"442 6 CURVE SMOOTH",
"443 2 OFFCURVE",
"446 0 OFFCURVE",
"450 0 CURVE SMOOTH",
"481 0 LINE SMOOTH",
"484 0 OFFCURVE",
"487 1 OFFCURVE",
"490 6 CURVE SMOOTH",
"600 158 OFFCURVE",
"695 362 OFFCURVE",
"731 465 CURVE SMOOTH",
"733 471 OFFCURVE",
"731 472 OFFCURVE",
"727 472 CURVE SMOOTH",
"703 472 LINE SMOOTH",
"700 472 OFFCURVE",
"696 471 OFFCURVE",
"694 465 CURVE SMOOTH",
"659 360 OFFCURVE",
"536 111 OFFCURVE",
"480 47 CURVE SMOOTH",
"472 37 OFFCURVE",
"468 39 OFFCURVE",
"466 48 CURVE SMOOTH",
"454 81 OFFCURVE",
"418 259 OFFCURVE",
"431 317 CURVE SMOOTH",
"449 395 OFFCURVE",
"456 439 OFFCURVE",
"462 465 CURVE SMOOTH",
"463 471 OFFCURVE",
"458 472 OFFCURVE",
"455 472 CURVE SMOOTH",
"433 472 LINE SMOOTH",
"429 472 OFFCURVE",
"428 471 OFFCURVE",
"427 465 CURVE SMOOTH",
"421 439 OFFCURVE",
"402 344 OFFCURVE",
"394 306 CURVE SMOOTH",
"384 259 OFFCURVE",
"311 108 OFFCURVE",
"262 51 CURVE SMOOTH",
"253 40 OFFCURVE",
"246 41 OFFCURVE",
"240 57 CURVE SMOOTH",
"220 111 OFFCURVE",
"194 355 OFFCURVE",
"204 465 CURVE SMOOTH",
"205 471 OFFCURVE",
"202 472 OFFCURVE",
"197 472 CURVE SMOOTH",
"179 472 LINE SMOOTH",
"173 472 OFFCURVE",
"171 470 OFFCURVE",
"171 465 CURVE SMOOTH",
"164 362 OFFCURVE",
"172 159 OFFCURVE",
"219 6 CURVE SMOOTH",
"221 0 OFFCURVE",
"223 0 OFFCURVE",
"228 0 CURVE SMOOTH"
);
}
);
};
hints = (
{
horizontal = 1;
place = "{-144, -107}";
type = Stem;
},
{
horizontal = 1;
place = "{328, -20}";
target = down;
type = TopGhost;
},
{
place = "{-106, 405}";
type = Stem;
}
);
layerId = "707362F1-A677-446A-8636-E10BE3A7FAFF";
paths = (
{
closed = 1;
nodes = (
"115 0 LINE SMOOTH",
"118 0 OFFCURVE",
"121 1 OFFCURVE",
"124 6 CURVE SMOOTH",
"137 25 OFFCURVE",
"152 45 OFFCURVE",
"165 65 CURVE SMOOTH",
"193 110 OFFCURVE",
"221 160 OFFCURVE",
"245 205 CURVE SMOOTH",
"249 213 OFFCURVE",
"256 214 OFFCURVE",
"257 204 CURVE SMOOTH",
"262 154 OFFCURVE",
"279 65 OFFCURVE",
"298 6 CURVE SMOOTH",
"299 2 OFFCURVE",
"302 0 OFFCURVE",
"306 0 CURVE SMOOTH",
"337 0 LINE SMOOTH",
"340 0 OFFCURVE",
"343 1 OFFCURVE",
"346 6 CURVE SMOOTH",
"456 158 OFFCURVE",
"551 362 OFFCURVE",
"587 465 CURVE SMOOTH",
"589 471 OFFCURVE",
"587 472 OFFCURVE",
"583 472 CURVE SMOOTH",
"559 472 LINE SMOOTH",
"556 472 OFFCURVE",
"552 471 OFFCURVE",
"550 465 CURVE SMOOTH",
"515 360 OFFCURVE",
"392 111 OFFCURVE",
"336 47 CURVE SMOOTH",
"328 37 OFFCURVE",
"324 39 OFFCURVE",
"322 48 CURVE SMOOTH",
"310 81 OFFCURVE",
"274 259 OFFCURVE",
"287 317 CURVE SMOOTH",
"305 395 OFFCURVE",
"312 439 OFFCURVE",
"318 465 CURVE SMOOTH",
"319 471 OFFCURVE",
"314 472 OFFCURVE",
"311 472 CURVE SMOOTH",
"289 472 LINE SMOOTH",
"285 472 OFFCURVE",
"284 471 OFFCURVE",
"283 465 CURVE SMOOTH",
"277 439 OFFCURVE",
"258 344 OFFCURVE",
"250 306 CURVE SMOOTH",
"240 259 OFFCURVE",
"167 108 OFFCURVE",
"118 51 CURVE SMOOTH",
"109 40 OFFCURVE",
"102 41 OFFCURVE",
"96 57 CURVE SMOOTH",
"76 111 OFFCURVE",
"50 355 OFFCURVE",
"60 465 CURVE SMOOTH",
"61 471 OFFCURVE",
"58 472 OFFCURVE",
"53 472 CURVE SMOOTH",
"35 472 LINE SMOOTH",
"29 472 OFFCURVE",
"27 470 OFFCURVE",
"27 465 CURVE SMOOTH",
"20 362 OFFCURVE",
"28 159 OFFCURVE",
"75 6 CURVE SMOOTH",
"77 0 OFFCURVE",
"79 0 OFFCURVE",
"84 0 CURVE SMOOTH"
);
}
);
width = 613;
},
{
background = {
paths = (
{
closed = 1;
nodes = (
"199 0 LINE SMOOTH",
"210 0 OFFCURVE",
"217 6 OFFCURVE",
"223 12 CURVE SMOOTH",
"228 18 OFFCURVE",
"247 43 OFFCURVE",
"260 61 CURVE SMOOTH",
"269 73 OFFCURVE",
"292 108 OFFCURVE",
"296 114 CURVE SMOOTH",
"303 126 OFFCURVE",
"311 127 OFFCURVE",
"314 112 CURVE SMOOTH",
"320 77 OFFCURVE",
"336 26 OFFCURVE",
"342 12 CURVE SMOOTH",
"346 3 OFFCURVE",
"349 0 OFFCURVE",
"362 0 CURVE SMOOTH",
"428 0 LINE SMOOTH",
"441 0 OFFCURVE",
"446 6 OFFCURVE",
"457 18 CURVE SMOOTH",
"524 90 OFFCURVE",
"644 315 OFFCURVE",
"688 437 CURVE SMOOTH",
"695 457 OFFCURVE",
"699 472 OFFCURVE",
"684 472 CURVE SMOOTH",
"579 472 LINE SMOOTH",
"565 472 OFFCURVE",
"556 467 OFFCURVE",
"551 453 CURVE SMOOTH",
"513 350 OFFCURVE",
"465 243 OFFCURVE",
"442 194 CURVE SMOOTH",
"438 185 OFFCURVE",
"434 185 OFFCURVE",
"432 194 CURVE SMOOTH",
"427 219 OFFCURVE",
"427 264 OFFCURVE",
"432 315 CURVE SMOOTH",
"436 363 OFFCURVE",
"448 417 OFFCURVE",
"456 456 CURVE SMOOTH",
"458 466 OFFCURVE",
"453 471 OFFCURVE",
"445 471 CURVE SMOOTH",
"317 471 LINE SMOOTH",
"308 471 OFFCURVE",
"301 467 OFFCURVE",
"299 455 CURVE SMOOTH",
"293 428 OFFCURVE",
"285 380 OFFCURVE",
"274 329 CURVE SMOOTH",
"266 293 OFFCURVE",
"240 225 OFFCURVE",
"224 201 CURVE SMOOTH",
"218 192 OFFCURVE",
"214 191 OFFCURVE",
"213 204 CURVE SMOOTH",
"211 235 OFFCURVE",
"209 358 OFFCURVE",
"210 457 CURVE SMOOTH",
"210 467 OFFCURVE",
"206 472 OFFCURVE",
"195 472 CURVE SMOOTH",
"72 472 LINE SMOOTH",
"57 472 OFFCURVE",
"56 454 OFFCURVE",
"55 432 CURVE SMOOTH",
"51 331 OFFCURVE",
"68 154 OFFCURVE",
"111 17 CURVE SMOOTH",
"115 6 OFFCURVE",
"119 0 OFFCURVE",
"131 0 CURVE SMOOTH"
);
}
);
};
layerId = "D1BC8BBB-1669-4C46-BC21-42BF6808B2B9";
paths = (
{
closed = 1;
nodes = (
"199 0 LINE SMOOTH",
"210 0 OFFCURVE",
"217 6 OFFCURVE",
"223 12 CURVE SMOOTH",
"228 18 OFFCURVE",
"247 43 OFFCURVE",
"260 61 CURVE SMOOTH",
"269 73 OFFCURVE",
"292 108 OFFCURVE",
"296 114 CURVE SMOOTH",
"303 126 OFFCURVE",
"311 127 OFFCURVE",
"314 112 CURVE SMOOTH",
"320 77 OFFCURVE",
"336 26 OFFCURVE",
"342 12 CURVE SMOOTH",
"346 3 OFFCURVE",
"349 0 OFFCURVE",
"362 0 CURVE SMOOTH",
"428 0 LINE SMOOTH",
"441 0 OFFCURVE",
"446 6 OFFCURVE",
"457 18 CURVE SMOOTH",
"524 90 OFFCURVE",
"644 315 OFFCURVE",
"688 437 CURVE SMOOTH",
"695 457 OFFCURVE",
"699 472 OFFCURVE",
"684 472 CURVE SMOOTH",
"579 472 LINE SMOOTH",
"565 472 OFFCURVE",
"556 467 OFFCURVE",
"551 453 CURVE SMOOTH",
"513 350 OFFCURVE",
"465 243 OFFCURVE",
"442 194 CURVE SMOOTH",
"438 185 OFFCURVE",
"434 185 OFFCURVE",
"432 194 CURVE SMOOTH",
"427 219 OFFCURVE",
"427 264 OFFCURVE",
"432 315 CURVE SMOOTH",
"436 363 OFFCURVE",
"448 417 OFFCURVE",
"456 456 CURVE SMOOTH",
"458 466 OFFCURVE",
"453 471 OFFCURVE",
"445 471 CURVE SMOOTH",
"317 471 LINE SMOOTH",
"308 471 OFFCURVE",
"301 467 OFFCURVE",
"299 455 CURVE SMOOTH",
"293 428 OFFCURVE",
"285 380 OFFCURVE",
"274 329 CURVE SMOOTH",
"266 293 OFFCURVE",
"240 225 OFFCURVE",
"224 201 CURVE SMOOTH",
"218 192 OFFCURVE",
"214 191 OFFCURVE",
"213 204 CURVE SMOOTH",
"211 235 OFFCURVE",
"209 358 OFFCURVE",
"210 457 CURVE SMOOTH",
"210 467 OFFCURVE",
"206 472 OFFCURVE",
"195 472 CURVE SMOOTH",
"72 472 LINE SMOOTH",
"57 472 OFFCURVE",
"56 454 OFFCURVE",
"55 432 CURVE SMOOTH",
"51 331 OFFCURVE",
"68 154 OFFCURVE",
"111 17 CURVE SMOOTH",
"115 6 OFFCURVE",
"119 0 OFFCURVE",
"131 0 CURVE SMOOTH"
);
}
);
width = 657;
}
);
leftKerningGroup = w;
note = w;
rightKerningGroup = w;
unicode = 0077;
},
{
glyphname = x;
lastChange = "2021-06-09 01:54:49 +0000";
layers = (
{
background = {
paths = (
{
closed = 1;
nodes = (
"-20 0 LINE SMOOTH",
"-18 0 OFFCURVE",
"-15 0 OFFCURVE",
"-12 7 CURVE",
"-12 7 OFFCURVE",
"77 165 OFFCURVE",
"154 234 CURVE",
"166 234 OFFCURVE",
"177 234 OFFCURVE",
"189 234 CURVE",
"236 165 OFFCURVE",
"256 21 OFFCURVE",
"258 7 CURVE",
"260 0 OFFCURVE",
"262 0 OFFCURVE",
"264 0 CURVE SMOOTH",
"290 0 LINE SMOOTH",
"294 0 OFFCURVE",
"295 2 OFFCURVE",
"295 6 CURVE",
"294 18 OFFCURVE",
"274 144 OFFCURVE",
"227 238 CURVE SMOOTH",
"223 245 OFFCURVE",
"222 250 OFFCURVE",
"229 256 CURVE",
"309 341 OFFCURVE",
"374 466 OFFCURVE",
"374 466 CURVE",
"376 471 OFFCURVE",
"375 472 OFFCURVE",
"371 472 CURVE SMOOTH",
"348 472 LINE SMOOTH",
"345 472 OFFCURVE",
"343 472 OFFCURVE",
"340 465 CURVE",
"340 465 OFFCURVE",
"264 324 OFFCURVE",
"195 263 CURVE",
"183 263 OFFCURVE",
"172 263 OFFCURVE",
"160 263 CURVE",
"117 324 OFFCURVE",
"101 465 OFFCURVE",
"101 465 CURVE",
"100 472 OFFCURVE",
"98 472 OFFCURVE",
"95 472 CURVE SMOOTH",
"72 472 LINE SMOOTH",
"68 472 OFFCURVE",
"67 471 OFFCURVE",
"67 466 CURVE",
"67 466 OFFCURVE",
"79 342 OFFCURVE",
"122 257 CURVE SMOOTH",
"125 250 OFFCURVE",
"124 244 OFFCURVE",
"117 237 CURVE SMOOTH",
"29 142 OFFCURVE",
"-49 6 OFFCURVE",
"-49 6 CURVE",
"-51 1 OFFCURVE",
"-50 0 OFFCURVE",
"-46 0 CURVE SMOOTH"
);
}
);
};
guideLines = (
{
position = "{258, 708}";
}
);
hints = (
{
horizontal = 1;
place = "{89, 21}";
target = up;
type = BottomGhost;
},
{
horizontal = 1;
place = "{319, 114}";
type = Stem;
},
{
horizontal = 1;
place = "{557, -20}";
target = down;
type = TopGhost;
},
{
place = "{125, 421}";
type = Stem;
}
);
layerId = "707362F1-A677-446A-8636-E10BE3A7FAFF";
paths = (
{
closed = 1;
nodes = (
"65 0 LINE SMOOTH",
"67 0 OFFCURVE",
"70 0 OFFCURVE",
"73 7 CURVE",
"73 7 OFFCURVE",
"162 165 OFFCURVE",
"239 234 CURVE",
"251 234 OFFCURVE",
"262 234 OFFCURVE",
"274 234 CURVE",
"321 165 OFFCURVE",
"341 21 OFFCURVE",
"343 7 CURVE",
"345 0 OFFCURVE",
"347 0 OFFCURVE",
"349 0 CURVE SMOOTH",
"375 0 LINE SMOOTH",
"379 0 OFFCURVE",
"380 2 OFFCURVE",
"380 6 CURVE",
"379 18 OFFCURVE",
"359 144 OFFCURVE",
"312 238 CURVE SMOOTH",
"308 245 OFFCURVE",
"307 250 OFFCURVE",
"314 256 CURVE",
"394 341 OFFCURVE",
"459 466 OFFCURVE",
"459 466 CURVE",
"461 471 OFFCURVE",
"460 472 OFFCURVE",
"456 472 CURVE SMOOTH",
"433 472 LINE SMOOTH",
"430 472 OFFCURVE",
"428 472 OFFCURVE",
"425 465 CURVE",
"425 465 OFFCURVE",
"349 324 OFFCURVE",
"280 263 CURVE",
"268 263 OFFCURVE",
"257 263 OFFCURVE",
"245 263 CURVE",
"202 324 OFFCURVE",
"186 465 OFFCURVE",
"186 465 CURVE",
"185 472 OFFCURVE",
"183 472 OFFCURVE",
"180 472 CURVE SMOOTH",
"157 472 LINE SMOOTH",
"153 472 OFFCURVE",
"152 471 OFFCURVE",
"152 466 CURVE",
"152 466 OFFCURVE",
"164 342 OFFCURVE",
"207 257 CURVE SMOOTH",
"210 250 OFFCURVE",
"209 244 OFFCURVE",
"202 237 CURVE SMOOTH",
"114 142 OFFCURVE",
"36 6 OFFCURVE",
"36 6 CURVE",
"34 1 OFFCURVE",
"35 0 OFFCURVE",
"39 0 CURVE SMOOTH"
);
}
);
width = 495;
},
{
background = {
paths = (
{
closed = 1;
nodes = (
"97 0 LINE SMOOTH",
"110 0 OFFCURVE",
"113 1 OFFCURVE",
"120 15 CURVE",
"120 15 OFFCURVE",
"161 110 OFFCURVE",
"208 168 CURVE",
"220 168 OFFCURVE",
"199 168 OFFCURVE",
"211 168 CURVE",
"230 159 OFFCURVE",
"233 62 OFFCURVE",
"234 19 CURVE",
"233 6 OFFCURVE",
"236 0 OFFCURVE",
"257 0 CURVE SMOOTH",
"359 0 LINE SMOOTH",
"374 0 OFFCURVE",
"377 15 OFFCURVE",
"377 35 CURVE",
"376 47 OFFCURVE",
"387 143 OFFCURVE",
"340 237 CURVE SMOOTH",
"337 244 OFFCURVE",
"336 249 OFFCURVE",
"343 255 CURVE",
"423 340 OFFCURVE",
"456 421 OFFCURVE",
"471 457 CURVE",
"475 471 OFFCURVE",
"463 472 OFFCURVE",
"459 472 CURVE SMOOTH",
"357 472 LINE SMOOTH",
"336 472 OFFCURVE",
"331 466 OFFCURVE",
"326 453 CURVE",
"309 413 OFFCURVE",
"262 310 OFFCURVE",
"240 306 CURVE",
"239 306 OFFCURVE",
"240 306 OFFCURVE",
"239 306 CURVE",
"224 311 OFFCURVE",
"215 419 OFFCURVE",
"214 457 CURVE",
"213 471 OFFCURVE",
"210 472 OFFCURVE",
"199 472 CURVE SMOOTH",
"59 472 LINE SMOOTH",
"55 472 OFFCURVE",
"54 471 OFFCURVE",
"54 466 CURVE",
"54 466 OFFCURVE",
"59 340 OFFCURVE",
"102 255 CURVE SMOOTH",
"106 248 OFFCURVE",
"107 245 OFFCURVE",
"102 238 CURVE SMOOTH",
"33 147 OFFCURVE",
"-9 77 OFFCURVE",
"-24 40 CURVE",
"-27 35 OFFCURVE",
"-45 0 OFFCURVE",
"-24 0 CURVE SMOOTH"
);
}
);
};
layerId = "D1BC8BBB-1669-4C46-BC21-42BF6808B2B9";
paths = (
{
closed = 1;
nodes = (
"97 0 LINE SMOOTH",
"110 0 OFFCURVE",
"113 1 OFFCURVE",
"120 15 CURVE",
"120 15 OFFCURVE",
"161 110 OFFCURVE",
"208 168 CURVE",
"220 168 OFFCURVE",
"199 168 OFFCURVE",
"211 168 CURVE",
"230 159 OFFCURVE",
"233 62 OFFCURVE",
"234 19 CURVE",
"233 6 OFFCURVE",
"236 0 OFFCURVE",
"257 0 CURVE SMOOTH",
"359 0 LINE SMOOTH",
"374 0 OFFCURVE",
"377 15 OFFCURVE",
"377 35 CURVE",
"376 47 OFFCURVE",
"387 143 OFFCURVE",
"340 237 CURVE SMOOTH",
"337 244 OFFCURVE",
"336 249 OFFCURVE",
"343 255 CURVE",
"423 340 OFFCURVE",
"456 421 OFFCURVE",
"471 457 CURVE",
"475 471 OFFCURVE",
"463 472 OFFCURVE",
"459 472 CURVE SMOOTH",
"357 472 LINE SMOOTH",
"336 472 OFFCURVE",
"331 466 OFFCURVE",
"326 453 CURVE",
"309 413 OFFCURVE",
"262 310 OFFCURVE",
"240 306 CURVE",
"239 306 OFFCURVE",
"240 306 OFFCURVE",
"239 306 CURVE",
"224 311 OFFCURVE",
"215 419 OFFCURVE",
"214 457 CURVE",
"213 471 OFFCURVE",
"210 472 OFFCURVE",
"199 472 CURVE SMOOTH",
"59 472 LINE SMOOTH",
"55 472 OFFCURVE",
"54 471 OFFCURVE",
"54 466 CURVE",
"54 466 OFFCURVE",
"59 340 OFFCURVE",
"102 255 CURVE SMOOTH",
"106 248 OFFCURVE",
"107 245 OFFCURVE",
"102 238 CURVE SMOOTH",
"33 147 OFFCURVE",
"-9 77 OFFCURVE",
"-24 40 CURVE",
"-27 35 OFFCURVE",
"-45 0 OFFCURVE",
"-24 0 CURVE SMOOTH"
);
}
);
width = 429;
}
);
leftKerningGroup = x;
note = x;
rightKerningGroup = x;
unicode = 0078;
},
{
glyphname = y;
lastChange = "2021-06-09 01:54:53 +0000";
layers = (
{
background = {
paths = (
{
closed = 1;
nodes = (
"59 -127 OFFCURVE",
"203 145 OFFCURVE",
"254 239 CURVE SMOOTH",
"305 332 OFFCURVE",
"333 399 OFFCURVE",
"356 465 CURVE SMOOTH",
"358 470 OFFCURVE",
"356 472 OFFCURVE",
"352 472 CURVE SMOOTH",
"328 472 LINE SMOOTH",
"322 472 OFFCURVE",
"320 470 OFFCURVE",
"318 465 CURVE SMOOTH",
"277 336 OFFCURVE",
"190 184 OFFCURVE",
"126 88 CURVE SMOOTH",
"116 73 OFFCURVE",
"101 78 OFFCURVE",
"95 94 CURVE SMOOTH",
"68 163 OFFCURVE",
"40 358 OFFCURVE",
"53 465 CURVE SMOOTH",
"54 471 OFFCURVE",
"49 472 OFFCURVE",
"46 472 CURVE SMOOTH",
"26 472 LINE SMOOTH",
"22 472 OFFCURVE",
"19 471 OFFCURVE",
"19 465 CURVE SMOOTH",
"6 303 OFFCURVE",
"38 140 OFFCURVE",
"56 93 CURVE SMOOTH",
"70 57 OFFCURVE",
"80 47 OFFCURVE",
"80 33 CURVE SMOOTH",
"80 16 OFFCURVE",
"38 -25 OFFCURVE",
"1 -53 CURVE SMOOTH",
"-34 -80 OFFCURVE",
"-81 -98 OFFCURVE",
"-119 -98 CURVE SMOOTH",
"-124 -98 OFFCURVE",
"-129 -98 OFFCURVE",
"-133 -97 CURVE SMOOTH",
"-139 -96 OFFCURVE",
"-142 -97 OFFCURVE",
"-144 -101 CURVE SMOOTH",
"-153 -117 LINE SMOOTH",
"-156 -122 OFFCURVE",
"-154 -124 OFFCURVE",
"-150 -125 CURVE SMOOTH",
"-138 -127 OFFCURVE",
"-126 -127 OFFCURVE",
"-112 -127 CURVE SMOOTH"
);
}
);
};
hints = (
{
horizontal = 1;
place = "{116, 219}";
type = Stem;
},
{
horizontal = 1;
place = "{658, -20}";
target = down;
type = TopGhost;
},
{
place = "{236, 523}";
type = Stem;
}
);
layerId = "707362F1-A677-446A-8636-E10BE3A7FAFF";
paths = (
{
closed = 1;
nodes = (
"218 -127 OFFCURVE",
"362 145 OFFCURVE",
"413 239 CURVE SMOOTH",
"464 332 OFFCURVE",
"492 399 OFFCURVE",
"515 465 CURVE SMOOTH",
"517 470 OFFCURVE",
"515 472 OFFCURVE",
"511 472 CURVE SMOOTH",
"487 472 LINE SMOOTH",
"481 472 OFFCURVE",
"479 470 OFFCURVE",
"477 465 CURVE SMOOTH",
"436 336 OFFCURVE",
"349 184 OFFCURVE",
"285 88 CURVE SMOOTH",
"275 73 OFFCURVE",
"260 78 OFFCURVE",
"254 94 CURVE SMOOTH",
"227 163 OFFCURVE",
"199 358 OFFCURVE",
"212 465 CURVE SMOOTH",
"213 471 OFFCURVE",
"208 472 OFFCURVE",
"205 472 CURVE SMOOTH",
"185 472 LINE SMOOTH",
"181 472 OFFCURVE",
"178 471 OFFCURVE",
"178 465 CURVE SMOOTH",
"165 303 OFFCURVE",
"197 140 OFFCURVE",
"215 93 CURVE SMOOTH",
"229 57 OFFCURVE",
"239 47 OFFCURVE",
"239 33 CURVE SMOOTH",
"239 16 OFFCURVE",
"197 -25 OFFCURVE",
"160 -53 CURVE SMOOTH",
"125 -80 OFFCURVE",
"78 -98 OFFCURVE",
"40 -98 CURVE SMOOTH",
"35 -98 OFFCURVE",
"30 -98 OFFCURVE",
"26 -97 CURVE SMOOTH",
"20 -96 OFFCURVE",
"17 -97 OFFCURVE",
"15 -101 CURVE SMOOTH",
"6 -117 LINE SMOOTH",
"3 -122 OFFCURVE",
"5 -124 OFFCURVE",
"9 -125 CURVE SMOOTH",
"21 -127 OFFCURVE",
"33 -127 OFFCURVE",
"47 -127 CURVE SMOOTH"
);
}
);
width = 556;
},
{
background = {
paths = (
{
closed = 1;
nodes = (
"171 -126 OFFCURVE",
"297 109 OFFCURVE",
"351 206 CURVE SMOOTH",
"405 304 OFFCURVE",
"436 365 OFFCURVE",
"469 448 CURVE SMOOTH",
"476 465 OFFCURVE",
"472 472 OFFCURVE",
"454 472 CURVE SMOOTH",
"356 472 LINE SMOOTH",
"340 472 OFFCURVE",
"336 467 OFFCURVE",
"330 452 CURVE SMOOTH",
"297 373 OFFCURVE",
"263 293 OFFCURVE",
"228 221 CURVE SMOOTH",
"219 203 OFFCURVE",
"212 207 OFFCURVE",
"212 222 CURVE SMOOTH",
"210 269 OFFCURVE",
"210 391 OFFCURVE",
"214 442 CURVE SMOOTH",
"215 465 OFFCURVE",
"212 472 OFFCURVE",
"196 472 CURVE SMOOTH",
"81 472 LINE SMOOTH",
"70 472 OFFCURVE",
"63 465 OFFCURVE",
"63 450 CURVE SMOOTH",
"59 340 OFFCURVE",
"69 219 OFFCURVE",
"88 142 CURVE SMOOTH",
"96 106 OFFCURVE",
"99 95 OFFCURVE",
"97 71 CURVE SMOOTH",
"95 46 OFFCURVE",
"82 24 OFFCURVE",
"64 8 CURVE SMOOTH",
"45 -10 OFFCURVE",
"18 -20 OFFCURVE",
"-6 -20 CURVE SMOOTH",
"-22 -20 OFFCURVE",
"-31 -18 OFFCURVE",
"-40 -15 CURVE SMOOTH",
"-48 -12 OFFCURVE",
"-52 -15 OFFCURVE",
"-59 -25 CURVE SMOOTH",
"-98 -78 LINE SMOOTH",
"-109 -93 OFFCURVE",
"-107 -102 OFFCURVE",
"-93 -111 CURVE SMOOTH",
"-77 -121 OFFCURVE",
"-51 -126 OFFCURVE",
"-11 -126 CURVE SMOOTH"
);
}
);
};
layerId = "D1BC8BBB-1669-4C46-BC21-42BF6808B2B9";
paths = (
{
closed = 1;
nodes = (
"171 -126 OFFCURVE",
"297 109 OFFCURVE",
"351 206 CURVE SMOOTH",
"405 304 OFFCURVE",
"436 365 OFFCURVE",
"469 448 CURVE SMOOTH",
"476 465 OFFCURVE",
"472 472 OFFCURVE",
"454 472 CURVE SMOOTH",
"356 472 LINE SMOOTH",
"340 472 OFFCURVE",
"336 467 OFFCURVE",
"330 452 CURVE SMOOTH",
"297 373 OFFCURVE",
"263 293 OFFCURVE",
"228 221 CURVE SMOOTH",
"219 203 OFFCURVE",
"212 207 OFFCURVE",
"212 222 CURVE SMOOTH",
"210 269 OFFCURVE",
"210 391 OFFCURVE",
"214 442 CURVE SMOOTH",
"215 465 OFFCURVE",
"212 472 OFFCURVE",
"196 472 CURVE SMOOTH",
"81 472 LINE SMOOTH",
"70 472 OFFCURVE",
"63 465 OFFCURVE",
"63 450 CURVE SMOOTH",
"59 340 OFFCURVE",
"69 219 OFFCURVE",
"88 142 CURVE SMOOTH",
"96 106 OFFCURVE",
"99 95 OFFCURVE",
"97 71 CURVE SMOOTH",
"95 46 OFFCURVE",
"82 24 OFFCURVE",
"64 8 CURVE SMOOTH",
"45 -10 OFFCURVE",
"18 -20 OFFCURVE",
"-6 -20 CURVE SMOOTH",
"-22 -20 OFFCURVE",
"-31 -18 OFFCURVE",
"-40 -15 CURVE SMOOTH",
"-48 -12 OFFCURVE",
"-52 -15 OFFCURVE",
"-59 -25 CURVE SMOOTH",
"-98 -78 LINE SMOOTH",
"-109 -93 OFFCURVE",
"-107 -102 OFFCURVE",
"-93 -111 CURVE SMOOTH",
"-77 -121 OFFCURVE",
"-51 -126 OFFCURVE",
"-11 -126 CURVE SMOOTH"
);
}
);
width = 435;
}
);
leftKerningGroup = y;
note = y;
rightKerningGroup = y;
unicode = 0079;
},
{
glyphname = z;
lastChange = "2021-06-09 01:54:58 +0000";
layers = (
{
background = {
paths = (
{
closed = 1;
nodes = (
"-34 2 OFFCURVE",
"-31 0 OFFCURVE",
"-28 0 CURVE SMOOTH",
"247 0 LINE SMOOTH",
"249 0 OFFCURVE",
"251 1 OFFCURVE",
"252 4 CURVE SMOOTH",
"257 26 LINE SMOOTH",
"257 28 OFFCURVE",
"255 29 OFFCURVE",
"253 29 CURVE SMOOTH",
"18 29 LINE SMOOTH",
"8 29 OFFCURVE",
"12 39 OFFCURVE",
"14 44 CURVE SMOOTH",
"34 86 OFFCURVE",
"83 150 OFFCURVE",
"139 225 CURVE SMOOTH",
"190 291 OFFCURVE",
"269 379 OFFCURVE",
"332 430 CURVE SMOOTH",
"338 434 OFFCURVE",
"348 445 OFFCURVE",
"349 451 CURVE SMOOTH",
"352 466 LINE SMOOTH",
"353 471 OFFCURVE",
"353 472 OFFCURVE",
"348 472 CURVE SMOOTH",
"91 472 LINE SMOOTH",
"89 472 OFFCURVE",
"87 471 OFFCURVE",
"86 468 CURVE SMOOTH",
"82 446 LINE SMOOTH",
"81 444 OFFCURVE",
"83 442 OFFCURVE",
"85 442 CURVE SMOOTH",
"287 442 LINE SMOOTH",
"295 442 OFFCURVE",
"294 439 OFFCURVE",
"286 432 CURVE SMOOTH",
"246 396 OFFCURVE",
"194 339 OFFCURVE",
"140 274 CURVE SMOOTH",
"65 182 OFFCURVE",
"-2 94 OFFCURVE",
"-33 6 CURVE"
);
}
);
};
hints = (
{
horizontal = 1;
place = "{73, 102}";
type = Stem;
},
{
horizontal = 1;
place = "{515, 103}";
type = Stem;
},
{
place = "{118, 360}";
type = Stem;
}
);
layerId = "707362F1-A677-446A-8636-E10BE3A7FAFF";
paths = (
{
closed = 1;
nodes = (
"39 2 OFFCURVE",
"42 0 OFFCURVE",
"45 0 CURVE SMOOTH",
"320 0 LINE SMOOTH",
"322 0 OFFCURVE",
"324 1 OFFCURVE",
"325 4 CURVE SMOOTH",
"330 26 LINE SMOOTH",
"330 28 OFFCURVE",
"328 29 OFFCURVE",
"326 29 CURVE SMOOTH",
"91 29 LINE SMOOTH",
"81 29 OFFCURVE",
"85 39 OFFCURVE",
"87 44 CURVE SMOOTH",
"107 86 OFFCURVE",
"156 150 OFFCURVE",
"212 225 CURVE SMOOTH",
"263 291 OFFCURVE",
"342 379 OFFCURVE",
"405 430 CURVE SMOOTH",
"411 434 OFFCURVE",
"421 445 OFFCURVE",
"422 451 CURVE SMOOTH",
"425 466 LINE SMOOTH",
"426 471 OFFCURVE",
"426 472 OFFCURVE",
"421 472 CURVE SMOOTH",
"164 472 LINE SMOOTH",
"162 472 OFFCURVE",
"160 471 OFFCURVE",
"159 468 CURVE SMOOTH",
"155 446 LINE SMOOTH",
"154 444 OFFCURVE",
"156 442 OFFCURVE",
"158 442 CURVE SMOOTH",
"360 442 LINE SMOOTH",
"368 442 OFFCURVE",
"367 439 OFFCURVE",
"359 432 CURVE SMOOTH",
"319 396 OFFCURVE",
"267 339 OFFCURVE",
"213 274 CURVE SMOOTH",
"138 182 OFFCURVE",
"71 94 OFFCURVE",
"40 6 CURVE"
);
}
);
width = 466;
},
{
background = {
paths = (
{
closed = 1;
nodes = (
"23 2 OFFCURVE",
"28 0 OFFCURVE",
"44 0 CURVE SMOOTH",
"346 0 LINE SMOOTH",
"363 0 OFFCURVE",
"368 0 OFFCURVE",
"371 14 CURVE SMOOTH",
"388 93 LINE SMOOTH",
"391 109 OFFCURVE",
"392 112 OFFCURVE",
"379 112 CURVE SMOOTH",
"217 112 LINE SMOOTH",
"203 112 OFFCURVE",
"205 120 OFFCURVE",
"208 125 CURVE SMOOTH",
"232 162 OFFCURVE",
"268 205 OFFCURVE",
"304 244 CURVE SMOOTH",
"347 290 OFFCURVE",
"391 331 OFFCURVE",
"421 348 CURVE SMOOTH",
"443 361 OFFCURVE",
"447 373 OFFCURVE",
"449 382 CURVE SMOOTH",
"464 452 LINE SMOOTH",
"467 467 OFFCURVE",
"469 472 OFFCURVE",
"452 472 CURVE SMOOTH",
"165 472 LINE SMOOTH",
"149 472 OFFCURVE",
"148 473 OFFCURVE",
"144 455 CURVE SMOOTH",
"127 375 LINE SMOOTH",
"124 360 OFFCURVE",
"127 360 OFFCURVE",
"139 360 CURVE SMOOTH",
"258 360 LINE",
"268 356 OFFCURVE",
"263 352 OFFCURVE",
"259 348 CURVE SMOOTH",
"222 312 OFFCURVE",
"185 273 OFFCURVE",
"152 233 CURVE SMOOTH",
"100 172 OFFCURVE",
"56 107 OFFCURVE",
"35 41 CURVE SMOOTH"
);
}
);
};
layerId = "D1BC8BBB-1669-4C46-BC21-42BF6808B2B9";
paths = (
{
closed = 1;
nodes = (
"23 2 OFFCURVE",
"28 0 OFFCURVE",
"44 0 CURVE SMOOTH",
"346 0 LINE SMOOTH",
"363 0 OFFCURVE",
"368 0 OFFCURVE",
"371 14 CURVE SMOOTH",
"388 93 LINE SMOOTH",
"391 109 OFFCURVE",
"392 112 OFFCURVE",
"379 112 CURVE SMOOTH",
"217 112 LINE SMOOTH",
"203 112 OFFCURVE",
"205 120 OFFCURVE",
"208 125 CURVE SMOOTH",
"232 162 OFFCURVE",
"268 205 OFFCURVE",
"304 244 CURVE SMOOTH",
"347 290 OFFCURVE",
"391 331 OFFCURVE",
"421 348 CURVE SMOOTH",
"443 361 OFFCURVE",
"447 373 OFFCURVE",
"449 382 CURVE SMOOTH",
"464 452 LINE SMOOTH",
"467 467 OFFCURVE",
"469 472 OFFCURVE",
"452 472 CURVE SMOOTH",
"165 472 LINE SMOOTH",
"149 472 OFFCURVE",
"148 473 OFFCURVE",
"144 455 CURVE SMOOTH",
"127 375 LINE SMOOTH",
"124 360 OFFCURVE",
"127 360 OFFCURVE",
"139 360 CURVE SMOOTH",
"258 360 LINE",
"268 356 OFFCURVE",
"263 352 OFFCURVE",
"259 348 CURVE SMOOTH",
"222 312 OFFCURVE",
"185 273 OFFCURVE",
"152 233 CURVE SMOOTH",
"100 172 OFFCURVE",
"56 107 OFFCURVE",
"35 41 CURVE SMOOTH"
);
}
);
width = 393;
}
);
leftKerningGroup = z;
note = z;
rightKerningGroup = z;
unicode = 007A;
},
{
glyphname = A;
lastChange = "2021-06-09 01:55:05 +0000";
layers = (
{
background = {
paths = (
{
closed = 1;
nodes = (
"69 0 LINE SMOOTH",
"73 0 OFFCURVE",
"73 1 OFFCURVE",
"74 4 CURVE SMOOTH",
"88 44 OFFCURVE",
"111 98 OFFCURVE",
"137 160 CURVE SMOOTH",
"141 168 OFFCURVE",
"144 170 OFFCURVE",
"151 171 CURVE",
"454 171 LINE SMOOTH",
"462 171 OFFCURVE",
"466 168 OFFCURVE",
"465 162 CURVE SMOOTH",
"465 98 OFFCURVE",
"464 44 OFFCURVE",
"461 5 CURVE",
"462 1 OFFCURVE",
"462 0 OFFCURVE",
"465 0 CURVE SMOOTH",
"491 0 LINE SMOOTH",
"495 0 OFFCURVE",
"495 1 OFFCURVE",
"495 6 CURVE SMOOTH",
"507 151 OFFCURVE",
"490 533 OFFCURVE",
"455 668 CURVE SMOOTH",
"454 673 OFFCURVE",
"451 673 OFFCURVE",
"447 673 CURVE SMOOTH",
"373 673 LINE SMOOTH",
"370 673 OFFCURVE",
"367 671 OFFCURVE",
"365 669 CURVE SMOOTH",
"263 524 OFFCURVE",
"99 168 OFFCURVE",
"41 5 CURVE",
"40 1 OFFCURVE",
"40 0 OFFCURVE",
"44 0 CURVE SMOOTH"
);
},
{
closed = 1;
nodes = (
"157 201 OFFCURVE",
"158 208 OFFCURVE",
"160 211 CURVE SMOOTH",
"227 362 OFFCURVE",
"317 540 OFFCURVE",
"380 637 CURVE SMOOTH",
"383 642 OFFCURVE",
"386 643 OFFCURVE",
"392 643 CURVE SMOOTH",
"401 643 OFFCURVE",
"409 643 OFFCURVE",
"418 643 CURVE SMOOTH",
"422 643 OFFCURVE",
"425 642 OFFCURVE",
"427 638 CURVE SMOOTH",
"455 505 OFFCURVE",
"457 361 OFFCURVE",
"464 218 CURVE",
"463 204 OFFCURVE",
"457 201 OFFCURVE",
"453 201 CURVE SMOOTH",
"165 201 LINE SMOOTH"
);
}
);
};
hints = (
{
horizontal = 1;
place = "{0, 201}";
type = Stem;
},
{
horizontal = 1;
place = "{643, 30}";
type = Stem;
},
{
place = "{37, 447}";
type = Stem;
},
{
horizontal = 1;
place = "{171, 30}";
type = Stem;
}
);
layerId = "707362F1-A677-446A-8636-E10BE3A7FAFF";
paths = (
{
closed = 1;
nodes = (
"69 0 LINE SMOOTH",
"73 0 OFFCURVE",
"73 1 OFFCURVE",
"74 4 CURVE SMOOTH",
"88 44 OFFCURVE",
"111 98 OFFCURVE",
"137 160 CURVE SMOOTH",
"141 168 OFFCURVE",
"144 170 OFFCURVE",
"151 171 CURVE",
"454 171 LINE SMOOTH",
"462 171 OFFCURVE",
"466 168 OFFCURVE",
"465 162 CURVE SMOOTH",
"465 98 OFFCURVE",
"464 44 OFFCURVE",
"461 5 CURVE",
"462 1 OFFCURVE",
"462 0 OFFCURVE",
"465 0 CURVE SMOOTH",
"491 0 LINE SMOOTH",
"495 0 OFFCURVE",
"495 1 OFFCURVE",
"495 6 CURVE SMOOTH",
"507 151 OFFCURVE",
"490 533 OFFCURVE",
"455 668 CURVE SMOOTH",
"454 673 OFFCURVE",
"451 673 OFFCURVE",
"447 673 CURVE SMOOTH",
"373 673 LINE SMOOTH",
"370 673 OFFCURVE",
"367 671 OFFCURVE",
"365 669 CURVE SMOOTH",
"263 524 OFFCURVE",
"99 168 OFFCURVE",
"41 5 CURVE",
"40 1 OFFCURVE",
"40 0 OFFCURVE",
"44 0 CURVE SMOOTH"
);
},
{
closed = 1;
nodes = (
"157 201 OFFCURVE",
"158 208 OFFCURVE",
"160 211 CURVE SMOOTH",
"227 362 OFFCURVE",
"317 540 OFFCURVE",
"380 637 CURVE SMOOTH",
"383 642 OFFCURVE",
"386 643 OFFCURVE",
"392 643 CURVE SMOOTH",
"418 643 LINE SMOOTH",
"422 643 OFFCURVE",
"425 642 OFFCURVE",
"427 638 CURVE SMOOTH",
"455 505 OFFCURVE",
"457 361 OFFCURVE",
"464 218 CURVE",
"463 204 OFFCURVE",
"457 201 OFFCURVE",
"453 201 CURVE SMOOTH",
"165 201 LINE SMOOTH"
);
}
);
width = 539;
},
{
background = {
paths = (
{
closed = 1;
nodes = (
"152 0 LINE SMOOTH",
"164 0 OFFCURVE",
"167 2 OFFCURVE",
"179 32 CURVE SMOOTH",
"190 61 OFFCURVE",
"211 107 OFFCURVE",
"221 133 CURVE SMOOTH",
"225 143 OFFCURVE",
"225 143 OFFCURVE",
"234 143 CURVE SMOOTH",
"388 143 LINE SMOOTH",
"397 143 OFFCURVE",
"397 143 OFFCURVE",
"397 133 CURVE SMOOTH",
"397 107 OFFCURVE",
"398 61 OFFCURVE",
"397 32 CURVE SMOOTH",
"395 2 OFFCURVE",
"398 0 OFFCURVE",
"410 0 CURVE SMOOTH",
"528 0 LINE SMOOTH",
"542 0 OFFCURVE",
"546 8 OFFCURVE",
"548 40 CURVE SMOOTH",
"559 188 OFFCURVE",
"536 513 OFFCURVE",
"493 651 CURVE SMOOTH",
"489 664 OFFCURVE",
"483 669 OFFCURVE",
"473 673 CURVE",
"374 673 LINE SMOOTH",
"363 673 OFFCURVE",
"355 664 OFFCURVE",
"344 651 CURVE",
"244 513 OFFCURVE",
"83 188 OFFCURVE",
"32 40 CURVE SMOOTH",
"20 8 OFFCURVE",
"20 0 OFFCURVE",
"33 0 CURVE SMOOTH"
);
},
{
closed = 1;
nodes = (
"282 258 OFFCURVE",
"281 261 OFFCURVE",
"285 270 CURVE SMOOTH",
"314 328 OFFCURVE",
"342 385 OFFCURVE",
"369 438 CURVE SMOOTH",
"371 443 OFFCURVE",
"374 447 OFFCURVE",
"376 452 CURVE",
"376 448 OFFCURVE",
"376 444 OFFCURVE",
"378 440 CURVE SMOOTH",
"377 439 OFFCURVE",
"378 437 OFFCURVE",
"378 436 CURVE SMOOTH",
"383 384 OFFCURVE",
"387 328 OFFCURVE",
"390 270 CURVE SMOOTH",
"391 261 OFFCURVE",
"390 258 OFFCURVE",
"381 258 CURVE SMOOTH",
"291 258 LINE SMOOTH"
);
}
);
};
layerId = "D1BC8BBB-1669-4C46-BC21-42BF6808B2B9";
paths = (
{
closed = 1;
nodes = (
"152 0 LINE SMOOTH",
"164 0 OFFCURVE",
"167 2 OFFCURVE",
"179 32 CURVE SMOOTH",
"190 61 OFFCURVE",
"211 107 OFFCURVE",
"221 133 CURVE SMOOTH",
"225 143 OFFCURVE",
"225 143 OFFCURVE",
"234 143 CURVE SMOOTH",
"388 143 LINE SMOOTH",
"397 143 OFFCURVE",
"397 143 OFFCURVE",
"397 133 CURVE SMOOTH",
"397 107 OFFCURVE",
"398 61 OFFCURVE",
"397 32 CURVE SMOOTH",
"395 2 OFFCURVE",
"398 0 OFFCURVE",
"410 0 CURVE SMOOTH",
"528 0 LINE SMOOTH",
"542 0 OFFCURVE",
"546 8 OFFCURVE",
"548 40 CURVE SMOOTH",
"559 188 OFFCURVE",
"536 513 OFFCURVE",
"493 651 CURVE SMOOTH",
"489 664 OFFCURVE",
"483 669 OFFCURVE",
"473 673 CURVE",
"374 673 LINE SMOOTH",
"363 673 OFFCURVE",
"355 664 OFFCURVE",
"344 651 CURVE",
"244 513 OFFCURVE",
"83 188 OFFCURVE",
"32 40 CURVE SMOOTH",
"20 8 OFFCURVE",
"20 0 OFFCURVE",
"33 0 CURVE SMOOTH"
);
},
{
closed = 1;
nodes = (
"282 258 OFFCURVE",
"281 261 OFFCURVE",
"285 270 CURVE SMOOTH",
"310 325 OFFCURVE",
"343 390 OFFCURVE",
"364 435 CURVE SMOOTH",
"368 441 OFFCURVE",
"369 444 OFFCURVE",
"372 444 CURVE SMOOTH",
"376 444 LINE SMOOTH",
"379 444 OFFCURVE",
"381 440 OFFCURVE",
"380 435 CURVE SMOOTH",
"384 389 OFFCURVE",
"389 323 OFFCURVE",
"390 270 CURVE SMOOTH",
"390 261 OFFCURVE",
"390 258 OFFCURVE",
"381 258 CURVE SMOOTH",
"291 258 LINE SMOOTH"
);
}
);
width = 561;
}
);
leftKerningGroup = A;
note = A;
rightKerningGroup = A;
unicode = 0041;
},
{
glyphname = B;
lastChange = "2021-06-09 01:55:08 +0000";
layers = (
{
background = {
paths = (
{
closed = 1;
nodes = (
"507 263 OFFCURVE",
"477 323 OFFCURVE",
"424 345 CURVE SMOOTH",
"415 348 OFFCURVE",
"420 356 OFFCURVE",
"426 359 CURVE SMOOTH",
"473 380 OFFCURVE",
"516 431 OFFCURVE",
"534 517 CURVE SMOOTH",
"565 662 OFFCURVE",
"475 673 OFFCURVE",
"353 673 CURVE SMOOTH",
"227 673 LINE SMOOTH",
"224 673 OFFCURVE",
"223 671 OFFCURVE",
"222 669 CURVE SMOOTH",
"81 4 LINE SMOOTH",
"80 1 OFFCURVE",
"81 0 OFFCURVE",
"84 0 CURVE SMOOTH",
"271 0 LINE SMOOTH",
"371 0 OFFCURVE",
"461 48 OFFCURVE",
"489 179 CURVE SMOOTH"
);
},
{
closed = 1;
nodes = (
"429 53 OFFCURVE",
"339 29 OFFCURVE",
"282 29 CURVE",
"124 29 LINE SMOOTH",
"120 29 OFFCURVE",
"120 31 OFFCURVE",
"120 34 CURVE SMOOTH",
"183 327 LINE SMOOTH",
"183 330 OFFCURVE",
"185 332 OFFCURVE",
"190 332 CURVE SMOOTH",
"318 332 LINE SMOOTH",
"422 332 OFFCURVE",
"482 301 OFFCURVE",
"457 182 CURVE SMOOTH"
);
},
{
closed = 1;
nodes = (
"483 433 OFFCURVE",
"425 361 OFFCURVE",
"332 361 CURVE SMOOTH",
"195 361 LINE SMOOTH",
"191 361 OFFCURVE",
"190 362 OFFCURVE",
"191 366 CURVE SMOOTH",
"249 638 LINE SMOOTH",
"249 641 OFFCURVE",
"251 643 OFFCURVE",
"255 643 CURVE SMOOTH",
"358 643 LINE SMOOTH",
"455 643 OFFCURVE",
"526 634 OFFCURVE",
"501 517 CURVE SMOOTH"
);
}
);
};
hints = (
{
horizontal = 1;
place = "{-1, 28}";
type = Stem;
},
{
horizontal = 1;
place = "{331, 28}";
type = Stem;
},
{
horizontal = 1;
place = "{642, 29}";
type = Stem;
},
{
place = "{59, 32}";
type = Stem;
},
{
place = "{385, 32}";
type = Stem;
},
{
place = "{380, 32}";
type = Stem;
}
);
layerId = "707362F1-A677-446A-8636-E10BE3A7FAFF";
paths = (
{
closed = 1;
nodes = (
"506 263 OFFCURVE",
"476 323 OFFCURVE",
"423 345 CURVE SMOOTH",
"414 348 OFFCURVE",
"419 356 OFFCURVE",
"425 359 CURVE SMOOTH",
"472 380 OFFCURVE",
"515 431 OFFCURVE",
"533 517 CURVE SMOOTH",
"564 662 OFFCURVE",
"474 673 OFFCURVE",
"352 673 CURVE SMOOTH",
"226 673 LINE SMOOTH",
"223 673 OFFCURVE",
"222 671 OFFCURVE",
"221 669 CURVE SMOOTH",
"80 4 LINE SMOOTH",
"79 1 OFFCURVE",
"80 0 OFFCURVE",
"83 0 CURVE SMOOTH",
"270 0 LINE SMOOTH",
"370 0 OFFCURVE",
"460 48 OFFCURVE",
"488 179 CURVE SMOOTH"
);
},
{
closed = 1;
nodes = (
"428 53 OFFCURVE",
"338 29 OFFCURVE",
"281 29 CURVE",
"123 29 LINE SMOOTH",
"119 29 OFFCURVE",
"119 31 OFFCURVE",
"119 34 CURVE SMOOTH",
"182 327 LINE SMOOTH",
"182 330 OFFCURVE",
"184 332 OFFCURVE",
"189 332 CURVE SMOOTH",
"317 332 LINE SMOOTH",
"421 332 OFFCURVE",
"481 301 OFFCURVE",
"456 182 CURVE SMOOTH"
);
},
{
closed = 1;
nodes = (
"482 433 OFFCURVE",
"424 361 OFFCURVE",
"331 361 CURVE SMOOTH",
"194 361 LINE SMOOTH",
"190 361 OFFCURVE",
"189 362 OFFCURVE",
"190 366 CURVE SMOOTH",
"248 638 LINE SMOOTH",
"248 641 OFFCURVE",
"250 643 OFFCURVE",
"254 643 CURVE SMOOTH",
"357 643 LINE SMOOTH",
"454 643 OFFCURVE",
"525 634 OFFCURVE",
"500 517 CURVE SMOOTH"
);
}
);
width = 589;
},
{
background = {
paths = (
{
closed = 1;
nodes = (
"539 258 OFFCURVE",
"516 320 OFFCURVE",
"477 342 CURVE",
"473 345 OFFCURVE",
"471 352 OFFCURVE",
"479 355 CURVE",
"537 381 OFFCURVE",
"574 460 OFFCURVE",
"582 499 CURVE SMOOTH",
"617 662 OFFCURVE",
"508 673 OFFCURVE",
"375 673 CURVE SMOOTH",
"198 673 LINE SMOOTH",
"190 673 OFFCURVE",
"182 667 OFFCURVE",
"180 658 CURVE SMOOTH",
"43 14 LINE SMOOTH",
"41 6 OFFCURVE",
"47 0 OFFCURVE",
"55 0 CURVE SMOOTH",
"272 0 LINE SMOOTH",
"388 0 OFFCURVE",
"495 53 OFFCURVE",
"525 195 CURVE SMOOTH"
);
},
{
closed = 1;
nodes = (
"345 109 OFFCURVE",
"295 104 OFFCURVE",
"262 104 CURVE SMOOTH",
"222 104 LINE SMOOTH",
"214 104 OFFCURVE",
"214 105 OFFCURVE",
"216 111 CURVE SMOOTH",
"252 281 LINE SMOOTH",
"253 287 OFFCURVE",
"254 287 OFFCURVE",
"260 287 CURVE SMOOTH",
"288 287 LINE SMOOTH",
"349 287 OFFCURVE",
"381 278 OFFCURVE",
"364 196 CURVE SMOOTH"
);
},
{
closed = 1;
nodes = (
"406 422 OFFCURVE",
"377 404 OFFCURVE",
"324 404 CURVE SMOOTH",
"286 404 LINE SMOOTH",
"279 404 OFFCURVE",
"278 405 OFFCURVE",
"279 411 CURVE SMOOTH",
"311 560 LINE SMOOTH",
"313 568 OFFCURVE",
"314 569 OFFCURVE",
"320 569 CURVE SMOOTH",
"322 569 LINE SMOOTH",
"397 569 OFFCURVE",
"435 560 OFFCURVE",
"421 492 CURVE SMOOTH"
);
}
);
};
layerId = "D1BC8BBB-1669-4C46-BC21-42BF6808B2B9";
paths = (
{
closed = 1;
nodes = (
"539 258 OFFCURVE",
"516 320 OFFCURVE",
"477 342 CURVE",
"473 345 OFFCURVE",
"471 352 OFFCURVE",
"479 355 CURVE",
"537 381 OFFCURVE",
"574 460 OFFCURVE",
"582 499 CURVE SMOOTH",
"617 662 OFFCURVE",
"508 673 OFFCURVE",
"375 673 CURVE SMOOTH",
"198 673 LINE SMOOTH",
"190 673 OFFCURVE",
"182 667 OFFCURVE",
"180 658 CURVE SMOOTH",
"43 14 LINE SMOOTH",
"41 6 OFFCURVE",
"47 0 OFFCURVE",
"55 0 CURVE SMOOTH",
"272 0 LINE SMOOTH",
"388 0 OFFCURVE",
"495 53 OFFCURVE",
"525 195 CURVE SMOOTH"
);
},
{
closed = 1;
nodes = (
"345 109 OFFCURVE",
"295 104 OFFCURVE",
"262 104 CURVE SMOOTH",
"222 104 LINE SMOOTH",
"214 104 OFFCURVE",
"214 105 OFFCURVE",
"216 111 CURVE SMOOTH",
"252 281 LINE SMOOTH",
"253 287 OFFCURVE",
"254 287 OFFCURVE",
"260 287 CURVE SMOOTH",
"288 287 LINE SMOOTH",
"349 287 OFFCURVE",
"381 278 OFFCURVE",
"364 196 CURVE SMOOTH"
);
},
{
closed = 1;
nodes = (
"406 422 OFFCURVE",
"377 404 OFFCURVE",
"324 404 CURVE SMOOTH",
"286 404 LINE SMOOTH",
"279 404 OFFCURVE",
"278 405 OFFCURVE",
"279 411 CURVE SMOOTH",
"311 560 LINE SMOOTH",
"313 568 OFFCURVE",
"314 569 OFFCURVE",
"320 569 CURVE SMOOTH",
"322 569 LINE SMOOTH",
"397 569 OFFCURVE",
"435 560 OFFCURVE",
"421 492 CURVE SMOOTH"
);
}
);
width = 524;
}
);
leftKerningGroup = H;
note = B;
rightKerningGroup = B;
unicode = 0042;
},
{
glyphname = C;
lastChange = "2021-06-09 01:55:11 +0000";
layers = (
{
background = {
paths = (
{
closed = 1;
nodes = (
"420 34 LINE SMOOTH",
"421 39 OFFCURVE",
"421 42 OFFCURVE",
"416 40 CURVE SMOOTH",
"401 32 OFFCURVE",
"365 20 OFFCURVE",
"318 20 CURVE SMOOTH",
"137 20 OFFCURVE",
"154 224 OFFCURVE",
"180 349 CURVE SMOOTH",
"212 498 OFFCURVE",
"289 650 OFFCURVE",
"452 650 CURVE SMOOTH",
"499 650 OFFCURVE",
"530 638 OFFCURVE",
"542 630 CURVE SMOOTH",
"545 628 OFFCURVE",
"547 631 OFFCURVE",
"548 636 CURVE SMOOTH",
"553 658 LINE SMOOTH",
"554 662 OFFCURVE",
"552 666 OFFCURVE",
"547 668 CURVE SMOOTH",
"523 676 OFFCURVE",
"472 680 OFFCURVE",
"453 680 CURVE SMOOTH",
"304 680 OFFCURVE",
"192 566 OFFCURVE",
"143 335 CURVE SMOOTH",
"94 106 OFFCURVE",
"164 -9 OFFCURVE",
"307 -9 CURVE SMOOTH",
"326 -9 OFFCURVE",
"378 -6 OFFCURVE",
"405 2 CURVE",
"412 5 OFFCURVE",
"415 8 OFFCURVE",
"415 12 CURVE SMOOTH"
);
}
);
};
hints = (
{
horizontal = 1;
place = "{-64, -26}";
type = Stem;
},
{
horizontal = 1;
place = "{595, -25}";
type = Stem;
},
{
place = "{-10, -21}";
type = Stem;
}
);
layerId = "707362F1-A677-446A-8636-E10BE3A7FAFF";
paths = (
{
closed = 1;
nodes = (
"363 34 LINE SMOOTH",
"364 39 OFFCURVE",
"364 42 OFFCURVE",
"359 40 CURVE SMOOTH",
"344 32 OFFCURVE",
"308 20 OFFCURVE",
"261 20 CURVE SMOOTH",
"80 20 OFFCURVE",
"97 224 OFFCURVE",
"123 349 CURVE SMOOTH",
"155 498 OFFCURVE",
"232 650 OFFCURVE",
"395 650 CURVE SMOOTH",
"442 650 OFFCURVE",
"473 638 OFFCURVE",
"485 630 CURVE SMOOTH",
"488 628 OFFCURVE",
"490 631 OFFCURVE",
"491 636 CURVE SMOOTH",
"496 658 LINE SMOOTH",
"497 662 OFFCURVE",
"495 666 OFFCURVE",
"490 668 CURVE SMOOTH",
"466 676 OFFCURVE",
"415 680 OFFCURVE",
"396 680 CURVE SMOOTH",
"247 680 OFFCURVE",
"135 566 OFFCURVE",
"86 335 CURVE SMOOTH",
"37 106 OFFCURVE",
"107 -9 OFFCURVE",
"250 -9 CURVE SMOOTH",
"269 -9 OFFCURVE",
"321 -6 OFFCURVE",
"348 2 CURVE",
"355 5 OFFCURVE",
"358 8 OFFCURVE",
"358 12 CURVE SMOOTH"
);
}
);
width = 556;
},
{
background = {
paths = (
{
closed = 1;
nodes = (
"471 124 LINE SMOOTH",
"476 146 OFFCURVE",
"468 147 OFFCURVE",
"434 129 CURVE SMOOTH",
"413 117 OFFCURVE",
"375 107 OFFCURVE",
"343 107 CURVE SMOOTH",
"233 107 OFFCURVE",
"243 242 OFFCURVE",
"266 348 CURVE SMOOTH",
"292 472 OFFCURVE",
"340 563 OFFCURVE",
"440 563 CURVE SMOOTH",
"466 563 OFFCURVE",
"500 555 OFFCURVE",
"525 536 CURVE SMOOTH",
"544 520 OFFCURVE",
"556 523 OFFCURVE",
"560 543 CURVE SMOOTH",
"581 642 LINE SMOOTH",
"584 656 OFFCURVE",
"573 661 OFFCURVE",
"554 667 CURVE SMOOTH",
"527 676 OFFCURVE",
"472 680 OFFCURVE",
"453 680 CURVE SMOOTH",
"282 680 OFFCURVE",
"156 562 OFFCURVE",
"108 335 CURVE SMOOTH",
"60 111 OFFCURVE",
"143 -8 OFFCURVE",
"307 -8 CURVE SMOOTH",
"326 -8 OFFCURVE",
"382 -6 OFFCURVE",
"414 4 CURVE SMOOTH",
"435 9 OFFCURVE",
"449 20 OFFCURVE",
"453 39 CURVE SMOOTH"
);
}
);
};
layerId = "D1BC8BBB-1669-4C46-BC21-42BF6808B2B9";
paths = (
{
closed = 1;
nodes = (
"471 124 LINE SMOOTH",
"476 146 OFFCURVE",
"468 147 OFFCURVE",
"434 129 CURVE SMOOTH",
"413 117 OFFCURVE",
"375 107 OFFCURVE",
"343 107 CURVE SMOOTH",
"233 107 OFFCURVE",
"243 242 OFFCURVE",
"266 348 CURVE SMOOTH",
"292 472 OFFCURVE",
"340 563 OFFCURVE",
"440 563 CURVE SMOOTH",
"466 563 OFFCURVE",
"500 555 OFFCURVE",
"525 536 CURVE SMOOTH",
"544 520 OFFCURVE",
"556 523 OFFCURVE",
"560 543 CURVE SMOOTH",
"581 642 LINE SMOOTH",
"584 656 OFFCURVE",
"573 661 OFFCURVE",
"554 667 CURVE SMOOTH",
"527 676 OFFCURVE",
"472 680 OFFCURVE",
"453 680 CURVE SMOOTH",
"282 680 OFFCURVE",
"156 562 OFFCURVE",
"108 335 CURVE SMOOTH",
"60 111 OFFCURVE",
"143 -8 OFFCURVE",
"307 -8 CURVE SMOOTH",
"326 -8 OFFCURVE",
"382 -6 OFFCURVE",
"414 4 CURVE SMOOTH",
"435 9 OFFCURVE",
"449 20 OFFCURVE",
"453 39 CURVE SMOOTH"
);
}
);
width = 473;
}
);
leftKerningGroup = O;
note = C;
rightKerningGroup = C;
unicode = 0043;
},
{
glyphname = D;
lastChange = "2021-06-09 02:56:06 +0000";
layers = (
{
anchors = (
{
name = bottom;
position = "{271, 0}";
},
{
name = top;
position = "{414, 672}";
}
);
background = {
paths = (
{
closed = 1;
nodes = (
"643 641 OFFCURVE",
"526 673 OFFCURVE",
"433 673 CURVE SMOOTH",
"227 673 LINE SMOOTH",
"224 673 OFFCURVE",
"223 671 OFFCURVE",
"222 669 CURVE SMOOTH",
"81 4 LINE SMOOTH",
"80 1 OFFCURVE",
"81 0 OFFCURVE",
"84 0 CURVE SMOOTH",
"290 0 LINE SMOOTH",
"366 0 OFFCURVE",
"518 54 OFFCURVE",
"581 347 CURVE SMOOTH"
);
},
{
closed = 1;
nodes = (
"491 81 OFFCURVE",
"359 29 OFFCURVE",
"283 29 CURVE SMOOTH",
"124 29 LINE SMOOTH",
"120 29 OFFCURVE",
"120 31 OFFCURVE",
"120 34 CURVE SMOOTH",
"249 638 LINE SMOOTH",
"249 641 OFFCURVE",
"251 643 OFFCURVE",
"255 643 CURVE SMOOTH",
"432 643 LINE SMOOTH",
"505 643 OFFCURVE",
"605 614 OFFCURVE",
"548 347 CURVE SMOOTH"
);
}
);
};
hints = (
{
horizontal = 1;
place = "{-1, 28}";
type = Stem;
},
{
horizontal = 1;
place = "{642, 29}";
type = Stem;
},
{
place = "{59, 32}";
type = Stem;
},
{
place = "{453, 32}";
type = Stem;
}
);
layerId = "707362F1-A677-446A-8636-E10BE3A7FAFF";
paths = (
{
closed = 1;
nodes = (
"642 641 OFFCURVE",
"525 673 OFFCURVE",
"432 673 CURVE SMOOTH",
"226 673 LINE SMOOTH",
"223 673 OFFCURVE",
"222 671 OFFCURVE",
"221 669 CURVE SMOOTH",
"80 4 LINE SMOOTH",
"79 1 OFFCURVE",
"80 0 OFFCURVE",
"83 0 CURVE SMOOTH",
"289 0 LINE SMOOTH",
"365 0 OFFCURVE",
"517 54 OFFCURVE",
"580 347 CURVE SMOOTH"
);
},
{
closed = 1;
nodes = (
"490 81 OFFCURVE",
"358 29 OFFCURVE",
"282 29 CURVE SMOOTH",
"123 29 LINE SMOOTH",
"119 29 OFFCURVE",
"119 31 OFFCURVE",
"119 34 CURVE SMOOTH",
"248 638 LINE SMOOTH",
"248 641 OFFCURVE",
"250 643 OFFCURVE",
"254 643 CURVE SMOOTH",
"431 643 LINE SMOOTH",
"504 643 OFFCURVE",
"604 614 OFFCURVE",
"547 347 CURVE SMOOTH"
);
}
);
width = 642;
},
{
anchors = (
{
name = bottom;
position = "{232, 0}";
},
{
name = top;
position = "{375, 673}";
}
);
background = {
paths = (
{
closed = 1;
nodes = (
"664 638 OFFCURVE",
"509 673 OFFCURVE",
"384 673 CURVE SMOOTH",
"198 673 LINE SMOOTH",
"190 673 OFFCURVE",
"182 667 OFFCURVE",
"180 658 CURVE SMOOTH",
"43 14 LINE SMOOTH",
"41 6 OFFCURVE",
"47 0 OFFCURVE",
"55 0 CURVE SMOOTH",
"241 0 LINE SMOOTH",
"344 0 OFFCURVE",
"540 57 OFFCURVE",
"602 346 CURVE SMOOTH"
);
},
{
closed = 1;
nodes = (
"406 131 OFFCURVE",
"303 116 OFFCURVE",
"243 116 CURVE SMOOTH",
"226 116 LINE SMOOTH",
"218 116 OFFCURVE",
"217 116 OFFCURVE",
"219 126 CURVE SMOOTH",
"308 548 LINE SMOOTH",
"310 557 OFFCURVE",
"310 557 OFFCURVE",
"322 557 CURVE SMOOTH",
"352 557 LINE SMOOTH",
"409 557 OFFCURVE",
"497 560 OFFCURVE",
"452 346 CURVE SMOOTH"
);
}
);
};
layerId = "D1BC8BBB-1669-4C46-BC21-42BF6808B2B9";
paths = (
{
closed = 1;
nodes = (
"664 638 OFFCURVE",
"509 673 OFFCURVE",
"384 673 CURVE SMOOTH",
"198 673 LINE SMOOTH",
"190 673 OFFCURVE",
"182 667 OFFCURVE",
"180 658 CURVE SMOOTH",
"43 14 LINE SMOOTH",
"41 6 OFFCURVE",
"47 0 OFFCURVE",
"55 0 CURVE SMOOTH",
"241 0 LINE SMOOTH",
"344 0 OFFCURVE",
"540 57 OFFCURVE",
"602 346 CURVE SMOOTH"
);
},
{
closed = 1;
nodes = (
"406 131 OFFCURVE",
"303 116 OFFCURVE",
"243 116 CURVE SMOOTH",
"226 116 LINE SMOOTH",
"218 116 OFFCURVE",
"217 116 OFFCURVE",
"219 126 CURVE SMOOTH",
"308 548 LINE SMOOTH",
"310 557 OFFCURVE",
"310 557 OFFCURVE",
"322 557 CURVE SMOOTH",
"352 557 LINE SMOOTH",
"409 557 OFFCURVE",
"497 560 OFFCURVE",
"452 346 CURVE SMOOTH"
);
}
);
width = 563;
}
);
leftKerningGroup = H;
note = D;
rightKerningGroup = O;
unicode = 0044;
},
{
glyphname = E;
lastChange = "2021-06-09 01:55:24 +0000";
layers = (
{
background = {
paths = (
{
closed = 1;
nodes = (
"377 0 LINE SMOOTH",
"379 0 OFFCURVE",
"380 1 OFFCURVE",
"381 4 CURVE SMOOTH",
"386 26 LINE SMOOTH",
"386 28 OFFCURVE",
"385 29 OFFCURVE",
"383 29 CURVE SMOOTH",
"116 29 LINE SMOOTH",
"109 29 OFFCURVE",
"110 32 OFFCURVE",
"111 38 CURVE SMOOTH",
"170 317 LINE SMOOTH",
"171 322 OFFCURVE",
"173 324 OFFCURVE",
"178 324 CURVE SMOOTH",
"401 324 LINE SMOOTH",
"403 324 OFFCURVE",
"404 326 OFFCURVE",
"405 328 CURVE SMOOTH",
"409 350 LINE SMOOTH",
"410 353 OFFCURVE",
"409 354 OFFCURVE",
"407 354 CURVE SMOOTH",
"185 354 LINE SMOOTH",
"182 354 OFFCURVE",
"179 358 OFFCURVE",
"180 361 CURVE SMOOTH",
"238 636 LINE SMOOTH",
"239 640 OFFCURVE",
"240 643 OFFCURVE",
"246 643 CURVE SMOOTH",
"514 643 LINE SMOOTH",
"516 643 OFFCURVE",
"517 644 OFFCURVE",
"518 647 CURVE SMOOTH",
"522 669 LINE SMOOTH",
"523 671 OFFCURVE",
"522 673 OFFCURVE",
"520 673 CURVE SMOOTH",
"217 673 LINE SMOOTH",
"214 673 OFFCURVE",
"213 671 OFFCURVE",
"212 669 CURVE SMOOTH",
"71 4 LINE SMOOTH",
"70 1 OFFCURVE",
"71 0 OFFCURVE",
"74 0 CURVE SMOOTH"
);
}
);
};
hints = (
{
horizontal = 1;
place = "{-1, 28}";
type = Stem;
},
{
horizontal = 1;
place = "{323, 29}";
type = Stem;
},
{
horizontal = 1;
place = "{642, 29}";
type = Stem;
},
{
place = "{59, 32}";
type = Stem;
}
);
layerId = "707362F1-A677-446A-8636-E10BE3A7FAFF";
paths = (
{
closed = 1;
nodes = (
"376 0 LINE SMOOTH",
"378 0 OFFCURVE",
"379 1 OFFCURVE",
"380 4 CURVE SMOOTH",
"385 26 LINE SMOOTH",
"385 28 OFFCURVE",
"384 29 OFFCURVE",
"382 29 CURVE SMOOTH",
"115 29 LINE SMOOTH",
"108 29 OFFCURVE",
"109 32 OFFCURVE",
"110 38 CURVE SMOOTH",
"169 317 LINE SMOOTH",
"170 322 OFFCURVE",
"172 324 OFFCURVE",
"177 324 CURVE SMOOTH",
"400 324 LINE SMOOTH",
"402 324 OFFCURVE",
"403 326 OFFCURVE",
"404 328 CURVE SMOOTH",
"408 350 LINE SMOOTH",
"409 353 OFFCURVE",
"408 354 OFFCURVE",
"406 354 CURVE SMOOTH",
"184 354 LINE SMOOTH",
"181 354 OFFCURVE",
"178 358 OFFCURVE",
"179 361 CURVE SMOOTH",
"237 636 LINE SMOOTH",
"238 640 OFFCURVE",
"239 643 OFFCURVE",
"245 643 CURVE SMOOTH",
"513 643 LINE SMOOTH",
"515 643 OFFCURVE",
"516 644 OFFCURVE",
"517 647 CURVE SMOOTH",
"521 669 LINE SMOOTH",
"522 671 OFFCURVE",
"521 673 OFFCURVE",
"519 673 CURVE SMOOTH",
"216 673 LINE SMOOTH",
"213 673 OFFCURVE",
"212 671 OFFCURVE",
"211 669 CURVE SMOOTH",
"70 4 LINE SMOOTH",
"69 1 OFFCURVE",
"70 0 OFFCURVE",
"73 0 CURVE SMOOTH"
);
}
);
width = 581;
},
{
background = {
paths = (
{
closed = 1;
nodes = (
"391 0 LINE SMOOTH",
"411 0 OFFCURVE",
"414 0 OFFCURVE",
"419 22 CURVE SMOOTH",
"434 94 LINE SMOOTH",
"438 114 OFFCURVE",
"439 116 OFFCURVE",
"417 116 CURVE SMOOTH",
"225 116 LINE SMOOTH",
"217 116 OFFCURVE",
"217 117 OFFCURVE",
"219 125 CURVE SMOOTH",
"250 275 LINE SMOOTH",
"252 282 OFFCURVE",
"253 282 OFFCURVE",
"260 282 CURVE SMOOTH",
"410 282 LINE SMOOTH",
"429 282 OFFCURVE",
"430 283 OFFCURVE",
"434 303 CURVE SMOOTH",
"449 374 LINE SMOOTH",
"454 395 OFFCURVE",
"454 396 OFFCURVE",
"434 396 CURVE SMOOTH",
"284 396 LINE SMOOTH",
"276 396 OFFCURVE",
"276 396 OFFCURVE",
"278 405 CURVE SMOOTH",
"309 549 LINE SMOOTH",
"310 557 OFFCURVE",
"310 557 OFFCURVE",
"319 557 CURVE SMOOTH",
"513 557 LINE SMOOTH",
"529 557 OFFCURVE",
"532 557 OFFCURVE",
"536 576 CURVE SMOOTH",
"553 656 LINE SMOOTH",
"557 673 OFFCURVE",
"557 673 OFFCURVE",
"538 673 CURVE SMOOTH",
"198 673 LINE SMOOTH",
"190 673 OFFCURVE",
"182 667 OFFCURVE",
"180 658 CURVE SMOOTH",
"43 14 LINE SMOOTH",
"41 6 OFFCURVE",
"47 0 OFFCURVE",
"55 0 CURVE SMOOTH"
);
}
);
};
layerId = "D1BC8BBB-1669-4C46-BC21-42BF6808B2B9";
paths = (
{
closed = 1;
nodes = (
"391 0 LINE SMOOTH",
"411 0 OFFCURVE",
"414 0 OFFCURVE",
"419 22 CURVE SMOOTH",
"434 94 LINE SMOOTH",
"438 114 OFFCURVE",
"439 116 OFFCURVE",
"417 116 CURVE SMOOTH",
"225 116 LINE SMOOTH",
"217 116 OFFCURVE",
"217 117 OFFCURVE",
"219 125 CURVE SMOOTH",
"250 275 LINE SMOOTH",
"252 282 OFFCURVE",
"253 282 OFFCURVE",
"260 282 CURVE SMOOTH",
"410 282 LINE SMOOTH",
"429 282 OFFCURVE",
"430 283 OFFCURVE",
"434 303 CURVE SMOOTH",
"449 374 LINE SMOOTH",
"454 395 OFFCURVE",
"454 396 OFFCURVE",
"434 396 CURVE SMOOTH",
"284 396 LINE SMOOTH",
"276 396 OFFCURVE",
"276 396 OFFCURVE",
"278 405 CURVE SMOOTH",
"309 549 LINE SMOOTH",
"310 557 OFFCURVE",
"310 557 OFFCURVE",
"319 557 CURVE SMOOTH",
"513 557 LINE SMOOTH",
"529 557 OFFCURVE",
"532 557 OFFCURVE",
"536 576 CURVE SMOOTH",
"553 656 LINE SMOOTH",
"557 673 OFFCURVE",
"557 673 OFFCURVE",
"538 673 CURVE SMOOTH",
"198 673 LINE SMOOTH",
"190 673 OFFCURVE",
"182 667 OFFCURVE",
"180 658 CURVE SMOOTH",
"43 14 LINE SMOOTH",
"41 6 OFFCURVE",
"47 0 OFFCURVE",
"55 0 CURVE SMOOTH"
);
}
);
width = 444;
}
);
leftKerningGroup = H;
note = E;
rightKerningGroup = E;
unicode = 0045;
},
{
glyphname = F;
lastChange = "2021-06-09 01:55:27 +0000";
layers = (
{
background = {
paths = (
{
closed = 1;
nodes = (
"109 0 LINE SMOOTH",
"112 0 OFFCURVE",
"113 1 OFFCURVE",
"114 4 CURVE SMOOTH",
"180 317 LINE SMOOTH",
"181 322 OFFCURVE",
"183 324 OFFCURVE",
"188 324 CURVE SMOOTH",
"399 324 LINE SMOOTH",
"402 324 OFFCURVE",
"403 326 OFFCURVE",
"404 328 CURVE SMOOTH",
"408 350 LINE SMOOTH",
"409 353 OFFCURVE",
"408 354 OFFCURVE",
"405 354 CURVE SMOOTH",
"195 354 LINE SMOOTH",
"192 354 OFFCURVE",
"189 358 OFFCURVE",
"190 361 CURVE SMOOTH",
"248 636 LINE SMOOTH",
"249 640 OFFCURVE",
"250 643 OFFCURVE",
"256 643 CURVE SMOOTH",
"524 643 LINE SMOOTH",
"526 643 OFFCURVE",
"527 644 OFFCURVE",
"528 647 CURVE SMOOTH",
"532 669 LINE SMOOTH",
"533 671 OFFCURVE",
"532 673 OFFCURVE",
"530 673 CURVE SMOOTH",
"227 673 LINE SMOOTH",
"224 673 OFFCURVE",
"223 671 OFFCURVE",
"222 669 CURVE SMOOTH",
"81 4 LINE SMOOTH",
"80 1 OFFCURVE",
"81 0 OFFCURVE",
"84 0 CURVE SMOOTH"
);
}
);
};
hints = (
{
horizontal = 1;
place = "{3, 21}";
target = up;
type = BottomGhost;
},
{
horizontal = 1;
place = "{323, 29}";
type = Stem;
},
{
horizontal = 1;
place = "{642, 29}";
type = Stem;
},
{
place = "{35, 32}";
type = Stem;
}
);
layerId = "707362F1-A677-446A-8636-E10BE3A7FAFF";
paths = (
{
closed = 1;
nodes = (
"108 0 LINE SMOOTH",
"111 0 OFFCURVE",
"112 1 OFFCURVE",
"113 4 CURVE SMOOTH",
"179 317 LINE SMOOTH",
"180 322 OFFCURVE",
"182 324 OFFCURVE",
"187 324 CURVE SMOOTH",
"398 324 LINE SMOOTH",
"401 324 OFFCURVE",
"402 326 OFFCURVE",
"403 328 CURVE SMOOTH",
"407 350 LINE SMOOTH",
"408 353 OFFCURVE",
"407 354 OFFCURVE",
"404 354 CURVE SMOOTH",
"194 354 LINE SMOOTH",
"191 354 OFFCURVE",
"188 358 OFFCURVE",
"189 361 CURVE SMOOTH",
"247 636 LINE SMOOTH",
"248 640 OFFCURVE",
"249 643 OFFCURVE",
"255 643 CURVE SMOOTH",
"523 643 LINE SMOOTH",
"525 643 OFFCURVE",
"526 644 OFFCURVE",
"527 647 CURVE SMOOTH",
"531 669 LINE SMOOTH",
"532 671 OFFCURVE",
"531 673 OFFCURVE",
"529 673 CURVE SMOOTH",
"226 673 LINE SMOOTH",
"223 673 OFFCURVE",
"222 671 OFFCURVE",
"221 669 CURVE SMOOTH",
"80 4 LINE SMOOTH",
"79 1 OFFCURVE",
"80 0 OFFCURVE",
"83 0 CURVE SMOOTH"
);
}
);
width = 551;
},
{
background = {
paths = (
{
closed = 1;
nodes = (
"169 0 LINE SMOOTH",
"191 0 OFFCURVE",
"192 0 OFFCURVE",
"197 22 CURVE SMOOTH",
"250 275 LINE SMOOTH",
"252 282 OFFCURVE",
"253 282 OFFCURVE",
"260 282 CURVE SMOOTH",
"410 282 LINE SMOOTH",
"429 282 OFFCURVE",
"430 283 OFFCURVE",
"434 303 CURVE SMOOTH",
"449 374 LINE SMOOTH",
"454 395 OFFCURVE",
"454 396 OFFCURVE",
"434 396 CURVE SMOOTH",
"284 396 LINE SMOOTH",
"276 396 OFFCURVE",
"276 396 OFFCURVE",
"278 405 CURVE SMOOTH",
"309 549 LINE SMOOTH",
"310 557 OFFCURVE",
"310 557 OFFCURVE",
"319 557 CURVE SMOOTH",
"513 557 LINE SMOOTH",
"529 557 OFFCURVE",
"532 557 OFFCURVE",
"536 576 CURVE SMOOTH",
"553 656 LINE SMOOTH",
"557 673 OFFCURVE",
"557 673 OFFCURVE",
"538 673 CURVE SMOOTH",
"198 673 LINE SMOOTH",
"190 673 OFFCURVE",
"182 667 OFFCURVE",
"180 658 CURVE SMOOTH",
"43 14 LINE SMOOTH",
"41 6 OFFCURVE",
"47 0 OFFCURVE",
"55 0 CURVE SMOOTH"
);
}
);
};
layerId = "D1BC8BBB-1669-4C46-BC21-42BF6808B2B9";
paths = (
{
closed = 1;
nodes = (
"169 0 LINE SMOOTH",
"191 0 OFFCURVE",
"192 0 OFFCURVE",
"197 22 CURVE SMOOTH",
"250 275 LINE SMOOTH",
"252 282 OFFCURVE",
"253 282 OFFCURVE",
"260 282 CURVE SMOOTH",
"410 282 LINE SMOOTH",
"429 282 OFFCURVE",
"430 283 OFFCURVE",
"434 303 CURVE SMOOTH",
"449 374 LINE SMOOTH",
"454 395 OFFCURVE",
"454 396 OFFCURVE",
"434 396 CURVE SMOOTH",
"284 396 LINE SMOOTH",
"276 396 OFFCURVE",
"276 396 OFFCURVE",
"278 405 CURVE SMOOTH",
"309 549 LINE SMOOTH",
"310 557 OFFCURVE",
"310 557 OFFCURVE",
"319 557 CURVE SMOOTH",
"513 557 LINE SMOOTH",
"529 557 OFFCURVE",
"532 557 OFFCURVE",
"536 576 CURVE SMOOTH",
"553 656 LINE SMOOTH",
"557 673 OFFCURVE",
"557 673 OFFCURVE",
"538 673 CURVE SMOOTH",
"198 673 LINE SMOOTH",
"190 673 OFFCURVE",
"182 667 OFFCURVE",
"180 658 CURVE SMOOTH",
"43 14 LINE SMOOTH",
"41 6 OFFCURVE",
"47 0 OFFCURVE",
"55 0 CURVE SMOOTH"
);
}
);
width = 424;
}
);
leftKerningGroup = H;
note = F;
rightKerningGroup = F;
unicode = 0046;
},
{
glyphname = G;
lastChange = "2021-06-09 01:55:29 +0000";
layers = (
{
background = {
paths = (
{
closed = 1;
nodes = (
"556 347 LINE SMOOTH",
"558 354 OFFCURVE",
"557 356 OFFCURVE",
"549 356 CURVE SMOOTH",
"346 356 LINE SMOOTH",
"345 356 OFFCURVE",
"342 353 OFFCURVE",
"342 353 CURVE",
"337 330 LINE",
"337 330 OFFCURVE",
"339 327 OFFCURVE",
"340 327 CURVE SMOOTH",
"508 327 LINE SMOOTH",
"515 327 OFFCURVE",
"518 324 OFFCURVE",
"516 315 CURVE SMOOTH",
"456 32 LINE",
"448 26 OFFCURVE",
"425 22 OFFCURVE",
"393 22 CURVE SMOOTH",
"266 22 OFFCURVE",
"102 81 OFFCURVE",
"156 332 CURVE SMOOTH",
"207 572 OFFCURVE",
"397 649 OFFCURVE",
"499 649 CURVE SMOOTH",
"537 649 OFFCURVE",
"577 648 OFFCURVE",
"606 629 CURVE SMOOTH",
"610 627 OFFCURVE",
"611 630 OFFCURVE",
"612 635 CURVE SMOOTH",
"617 657 LINE SMOOTH",
"618 661 OFFCURVE",
"616 664 OFFCURVE",
"611 667 CURVE",
"584 676 OFFCURVE",
"536 678 OFFCURVE",
"505 678 CURVE SMOOTH",
"330 678 OFFCURVE",
"167 545 OFFCURVE",
"120 324 CURVE SMOOTH",
"74 107 OFFCURVE",
"179 -6 OFFCURVE",
"403 -6 CURVE SMOOTH",
"436 -6 OFFCURVE",
"481 -4 OFFCURVE",
"486 18 CURVE SMOOTH"
);
}
);
};
hints = (
{
horizontal = 1;
place = "{-64, -30}";
type = Stem;
},
{
horizontal = 1;
place = "{269, -29}";
type = Stem;
},
{
horizontal = 1;
place = "{591, -29}";
type = Stem;
},
{
place = "{-23, -24}";
type = Stem;
},
{
place = "{375, -25}";
type = Stem;
}
);
layerId = "707362F1-A677-446A-8636-E10BE3A7FAFF";
paths = (
{
closed = 1;
nodes = (
"497 347 LINE SMOOTH",
"499 354 OFFCURVE",
"498 356 OFFCURVE",
"490 356 CURVE SMOOTH",
"287 356 LINE SMOOTH",
"286 356 OFFCURVE",
"283 353 OFFCURVE",
"283 353 CURVE",
"278 330 LINE",
"278 330 OFFCURVE",
"280 327 OFFCURVE",
"281 327 CURVE SMOOTH",
"449 327 LINE SMOOTH",
"456 327 OFFCURVE",
"459 324 OFFCURVE",
"457 315 CURVE SMOOTH",
"397 32 LINE",
"389 26 OFFCURVE",
"366 22 OFFCURVE",
"334 22 CURVE SMOOTH",
"207 22 OFFCURVE",
"43 81 OFFCURVE",
"97 332 CURVE SMOOTH",
"148 572 OFFCURVE",
"338 649 OFFCURVE",
"440 649 CURVE SMOOTH",
"478 649 OFFCURVE",
"518 648 OFFCURVE",
"547 629 CURVE SMOOTH",
"551 627 OFFCURVE",
"552 630 OFFCURVE",
"553 635 CURVE SMOOTH",
"558 657 LINE SMOOTH",
"559 661 OFFCURVE",
"557 664 OFFCURVE",
"552 667 CURVE",
"525 676 OFFCURVE",
"477 678 OFFCURVE",
"446 678 CURVE SMOOTH",
"271 678 OFFCURVE",
"108 545 OFFCURVE",
"61 324 CURVE SMOOTH",
"15 107 OFFCURVE",
"120 -6 OFFCURVE",
"344 -6 CURVE SMOOTH",
"377 -6 OFFCURVE",
"422 -4 OFFCURVE",
"427 18 CURVE SMOOTH"
);
}
);
width = 618;
},
{
background = {
paths = (
{
closed = 1;
nodes = (
"618 375 LINE SMOOTH",
"623 398 OFFCURVE",
"623 399 OFFCURVE",
"601 399 CURVE SMOOTH",
"362 399 LINE SMOOTH",
"346 399 OFFCURVE",
"343 396 OFFCURVE",
"340 380 CURVE SMOOTH",
"323 299 LINE SMOOTH",
"319 283 OFFCURVE",
"322 283 OFFCURVE",
"337 283 CURVE SMOOTH",
"440 283 LINE SMOOTH",
"447 283 OFFCURVE",
"447 282 OFFCURVE",
"446 276 CURVE SMOOTH",
"414 124 LINE SMOOTH",
"412 114 OFFCURVE",
"405 110 OFFCURVE",
"390 110 CURVE SMOOTH",
"336 110 OFFCURVE",
"225 132 OFFCURVE",
"268 332 CURVE SMOOTH",
"309 526 OFFCURVE",
"440 562 OFFCURVE",
"513 562 CURVE SMOOTH",
"558 562 OFFCURVE",
"588 552 OFFCURVE",
"617 533 CURVE SMOOTH",
"630 523 OFFCURVE",
"647 529 OFFCURVE",
"653 558 CURVE SMOOTH",
"670 638 LINE SMOOTH",
"674 658 OFFCURVE",
"666 657 OFFCURVE",
"646 664 CURVE SMOOTH",
"619 674 OFFCURVE",
"561 678 OFFCURVE",
"504 678 CURVE SMOOTH",
"315 678 OFFCURVE",
"152 544 OFFCURVE",
"106 326 CURVE SMOOTH",
"59 109 OFFCURVE",
"155 -6 OFFCURVE",
"399 -6 CURVE SMOOTH",
"476 -6 OFFCURVE",
"539 5 OFFCURVE",
"546 34 CURVE SMOOTH"
);
}
);
};
layerId = "D1BC8BBB-1669-4C46-BC21-42BF6808B2B9";
paths = (
{
closed = 1;
nodes = (
"618 375 LINE SMOOTH",
"623 398 OFFCURVE",
"623 399 OFFCURVE",
"601 399 CURVE SMOOTH",
"362 399 LINE SMOOTH",
"346 399 OFFCURVE",
"343 396 OFFCURVE",
"340 380 CURVE SMOOTH",
"323 299 LINE SMOOTH",
"319 283 OFFCURVE",
"322 283 OFFCURVE",
"337 283 CURVE SMOOTH",
"440 283 LINE SMOOTH",
"447 283 OFFCURVE",
"447 282 OFFCURVE",
"446 276 CURVE SMOOTH",
"414 124 LINE SMOOTH",
"412 114 OFFCURVE",
"405 110 OFFCURVE",
"390 110 CURVE SMOOTH",
"336 110 OFFCURVE",
"225 132 OFFCURVE",
"268 332 CURVE SMOOTH",
"309 526 OFFCURVE",
"440 562 OFFCURVE",
"513 562 CURVE SMOOTH",
"558 562 OFFCURVE",
"588 552 OFFCURVE",
"617 533 CURVE SMOOTH",
"630 523 OFFCURVE",
"647 529 OFFCURVE",
"653 558 CURVE SMOOTH",
"670 638 LINE SMOOTH",
"674 658 OFFCURVE",
"666 657 OFFCURVE",
"646 664 CURVE SMOOTH",
"619 674 OFFCURVE",
"561 678 OFFCURVE",
"504 678 CURVE SMOOTH",
"315 678 OFFCURVE",
"152 544 OFFCURVE",
"106 326 CURVE SMOOTH",
"59 109 OFFCURVE",
"155 -6 OFFCURVE",
"399 -6 CURVE SMOOTH",
"476 -6 OFFCURVE",
"539 5 OFFCURVE",
"546 34 CURVE SMOOTH"
);
}
);
width = 587;
}
);
leftKerningGroup = O;
note = G;
rightKerningGroup = G;
unicode = 0047;
},
{
glyphname = H;
lastChange = "2021-06-09 05:04:04 +0000";
layers = (
{
background = {
paths = (
{
closed = 1;
nodes = (
"77 0 OFFCURVE",
"85 0 OFFCURVE",
"94 0 CURVE SMOOTH",
"96 0 OFFCURVE",
"97 1 OFFCURVE",
"98 4 CURVE SMOOTH",
"107 131 OFFCURVE",
"142 282 OFFCURVE",
"150 316 CURVE SMOOTH",
"151 322 OFFCURVE",
"156 324 OFFCURVE",
"160 324 CURVE SMOOTH",
"279 324 OFFCURVE",
"399 324 OFFCURVE",
"518 324 CURVE SMOOTH",
"521 324 OFFCURVE",
"524 322 OFFCURVE",
"523 316 CURVE SMOOTH",
"518 288 OFFCURVE",
"489 132 OFFCURVE",
"444 4 CURVE SMOOTH",
"443 1 OFFCURVE",
"444 0 OFFCURVE",
"446 0 CURVE SMOOTH",
"455 0 OFFCURVE",
"463 0 OFFCURVE",
"472 0 CURVE SMOOTH",
"474 0 OFFCURVE",
"476 1 OFFCURVE",
"477 4 CURVE SMOOTH",
"499 70 OFFCURVE",
"533 202 OFFCURVE",
"561 334 CURVE SMOOTH",
"589 468 OFFCURVE",
"611 604 OFFCURVE",
"617 669 CURVE SMOOTH",
"618 671 OFFCURVE",
"615 673 OFFCURVE",
"614 673 CURVE SMOOTH",
"606 673 OFFCURVE",
"597 673 OFFCURVE",
"589 673 CURVE SMOOTH",
"587 673 OFFCURVE",
"586 671 OFFCURVE",
"584 670 CURVE SMOOTH",
"564 507 OFFCURVE",
"535 372 OFFCURVE",
"533 362 CURVE SMOOTH",
"531 354 OFFCURVE",
"527 354 OFFCURVE",
"524 354 CURVE SMOOTH",
"404 354 OFFCURVE",
"285 354 OFFCURVE",
"165 354 CURVE SMOOTH",
"162 354 OFFCURVE",
"159 355 OFFCURVE",
"161 362 CURVE SMOOTH",
"165 381 OFFCURVE",
"195 521 OFFCURVE",
"240 669 CURVE SMOOTH",
"241 671 OFFCURVE",
"239 673 OFFCURVE",
"237 673 CURVE SMOOTH",
"229 673 OFFCURVE",
"220 673 OFFCURVE",
"212 673 CURVE SMOOTH",
"211 673 OFFCURVE",
"208 671 OFFCURVE",
"207 669 CURVE SMOOTH",
"185 604 OFFCURVE",
"149 468 OFFCURVE",
"121 334 CURVE SMOOTH",
"93 202 OFFCURVE",
"71 70 OFFCURVE",
"65 4 CURVE SMOOTH",
"64 1 OFFCURVE",
"67 0 OFFCURVE",
"68 0 CURVE SMOOTH"
);
}
);
};
hints = (
{
horizontal = 1;
place = "{-11, 21}";
target = up;
type = BottomGhost;
},
{
horizontal = 1;
place = "{309, 15}";
type = Stem;
},
{
horizontal = 1;
place = "{658, -20}";
target = down;
type = TopGhost;
},
{
place = "{74, 18}";
type = Stem;
},
{
place = "{433, 18}";
type = Stem;
}
);
layerId = "707362F1-A677-446A-8636-E10BE3A7FAFF";
paths = (
{
closed = 1;
nodes = (
"62 0 OFFCURVE",
"70 0 OFFCURVE",
"79 0 CURVE SMOOTH",
"81 0 OFFCURVE",
"82 1 OFFCURVE",
"83 4 CURVE SMOOTH",
"92 131 OFFCURVE",
"127 282 OFFCURVE",
"135 316 CURVE SMOOTH",
"136 322 OFFCURVE",
"141 324 OFFCURVE",
"145 324 CURVE SMOOTH",
"264 324 OFFCURVE",
"384 324 OFFCURVE",
"503 324 CURVE SMOOTH",
"506 324 OFFCURVE",
"509 322 OFFCURVE",
"508 316 CURVE SMOOTH",
"503 288 OFFCURVE",
"474 132 OFFCURVE",
"429 4 CURVE SMOOTH",
"428 1 OFFCURVE",
"429 0 OFFCURVE",
"431 0 CURVE SMOOTH",
"440 0 OFFCURVE",
"448 0 OFFCURVE",
"457 0 CURVE SMOOTH",
"459 0 OFFCURVE",
"461 1 OFFCURVE",
"462 4 CURVE SMOOTH",
"484 70 OFFCURVE",
"518 202 OFFCURVE",
"546 334 CURVE SMOOTH",
"574 468 OFFCURVE",
"596 604 OFFCURVE",
"602 669 CURVE SMOOTH",
"603 671 OFFCURVE",
"600 673 OFFCURVE",
"599 673 CURVE SMOOTH",
"591 673 OFFCURVE",
"582 673 OFFCURVE",
"574 673 CURVE SMOOTH",
"572 673 OFFCURVE",
"571 671 OFFCURVE",
"569 670 CURVE SMOOTH",
"549 507 OFFCURVE",
"520 372 OFFCURVE",
"518 362 CURVE SMOOTH",
"516 354 OFFCURVE",
"512 354 OFFCURVE",
"509 354 CURVE SMOOTH",
"389 354 OFFCURVE",
"270 354 OFFCURVE",
"150 354 CURVE SMOOTH",
"147 354 OFFCURVE",
"144 355 OFFCURVE",
"146 362 CURVE SMOOTH",
"150 381 OFFCURVE",
"180 521 OFFCURVE",
"225 669 CURVE SMOOTH",
"226 671 OFFCURVE",
"224 673 OFFCURVE",
"222 673 CURVE SMOOTH",
"214 673 OFFCURVE",
"205 673 OFFCURVE",
"197 673 CURVE SMOOTH",
"196 673 OFFCURVE",
"193 671 OFFCURVE",
"192 669 CURVE SMOOTH",
"170 604 OFFCURVE",
"134 468 OFFCURVE",
"106 334 CURVE SMOOTH",
"78 202 OFFCURVE",
"56 70 OFFCURVE",
"50 4 CURVE SMOOTH",
"49 1 OFFCURVE",
"52 0 OFFCURVE",
"53 0 CURVE SMOOTH"
);
}
);
width = 610;
},
{
background = {
paths = (
{
closed = 1;
nodes = (
"83 0 OFFCURVE",
"124 0 OFFCURVE",
"164 0 CURVE SMOOTH",
"171 0 OFFCURVE",
"173 4 OFFCURVE",
"174 14 CURVE SMOOTH",
"179 77 OFFCURVE",
"194 173 OFFCURVE",
"213 270 CURVE SMOOTH",
"216 281 OFFCURVE",
"217 282 OFFCURVE",
"229 282 CURVE SMOOTH",
"286 282 OFFCURVE",
"343 282 OFFCURVE",
"400 282 CURVE SMOOTH",
"412 282 OFFCURVE",
"414 281 OFFCURVE",
"411 270 CURVE SMOOTH",
"390 173 OFFCURVE",
"362 77 OFFCURVE",
"341 14 CURVE SMOOTH",
"338 4 OFFCURVE",
"338 0 OFFCURVE",
"345 0 CURVE SMOOTH",
"385 0 OFFCURVE",
"426 0 OFFCURVE",
"466 0 CURVE SMOOTH",
"477 0 OFFCURVE",
"488 1 OFFCURVE",
"492 14 CURVE SMOOTH",
"515 85 OFFCURVE",
"551 217 OFFCURVE",
"579 348 CURVE SMOOTH",
"605 468 OFFCURVE",
"626 587 OFFCURVE",
"626 658 CURVE",
"627 667 OFFCURVE",
"616 673 OFFCURVE",
"608 673 CURVE SMOOTH",
"568 673 OFFCURVE",
"527 673 OFFCURVE",
"487 673 CURVE SMOOTH",
"480 673 OFFCURVE",
"476 668 OFFCURVE",
"475 658 CURVE SMOOTH",
"471 612 OFFCURVE",
"457 511 OFFCURVE",
"441 412 CURVE SMOOTH",
"438 398 OFFCURVE",
"432 396 OFFCURVE",
"422 396 CURVE SMOOTH",
"367 396 OFFCURVE",
"311 396 OFFCURVE",
"256 396 CURVE SMOOTH",
"240 396 OFFCURVE",
"242 398 OFFCURVE",
"245 412 CURVE SMOOTH",
"270 511 OFFCURVE",
"298 612 OFFCURVE",
"314 658 CURVE SMOOTH",
"317 668 OFFCURVE",
"315 673 OFFCURVE",
"308 673 CURVE SMOOTH",
"268 673 OFFCURVE",
"227 673 OFFCURVE",
"187 673 CURVE SMOOTH",
"179 673 OFFCURVE",
"166 667 OFFCURVE",
"163 658 CURVE SMOOTH",
"133 587 OFFCURVE",
"104 470 OFFCURVE",
"79 351 CURVE SMOOTH",
"52 219 OFFCURVE",
"30 86 OFFCURVE",
"23 14 CURVE SMOOTH",
"21 1 OFFCURVE",
"33 0 OFFCURVE",
"43 0 CURVE SMOOTH"
);
}
);
};
guideLines = (
{
position = "{328, 673}";
}
);
layerId = "D1BC8BBB-1669-4C46-BC21-42BF6808B2B9";
paths = (
{
closed = 1;
nodes = (
"83 0 OFFCURVE",
"124 0 OFFCURVE",
"164 0 CURVE SMOOTH",
"171 0 OFFCURVE",
"173 4 OFFCURVE",
"174 14 CURVE SMOOTH",
"179 77 OFFCURVE",
"194 173 OFFCURVE",
"213 270 CURVE SMOOTH",
"216 281 OFFCURVE",
"217 282 OFFCURVE",
"229 282 CURVE SMOOTH",
"286 282 OFFCURVE",
"343 282 OFFCURVE",
"400 282 CURVE SMOOTH",
"412 282 OFFCURVE",
"414 281 OFFCURVE",
"411 270 CURVE SMOOTH",
"390 173 OFFCURVE",
"362 77 OFFCURVE",
"341 14 CURVE SMOOTH",
"338 4 OFFCURVE",
"338 0 OFFCURVE",
"345 0 CURVE SMOOTH",
"385 0 OFFCURVE",
"426 0 OFFCURVE",
"466 0 CURVE SMOOTH",
"477 0 OFFCURVE",
"488 1 OFFCURVE",
"492 14 CURVE SMOOTH",
"515 85 OFFCURVE",
"551 217 OFFCURVE",
"579 348 CURVE SMOOTH",
"605 468 OFFCURVE",
"626 587 OFFCURVE",
"626 658 CURVE",
"627 667 OFFCURVE",
"616 673 OFFCURVE",
"608 673 CURVE SMOOTH",
"568 673 OFFCURVE",
"527 673 OFFCURVE",
"487 673 CURVE SMOOTH",
"480 673 OFFCURVE",
"476 668 OFFCURVE",
"475 658 CURVE SMOOTH",
"471 612 OFFCURVE",
"457 511 OFFCURVE",
"441 412 CURVE SMOOTH",
"438 398 OFFCURVE",
"432 396 OFFCURVE",
"422 396 CURVE SMOOTH",
"367 396 OFFCURVE",
"311 396 OFFCURVE",
"256 396 CURVE SMOOTH",
"240 396 OFFCURVE",
"242 398 OFFCURVE",
"245 412 CURVE SMOOTH",
"270 511 OFFCURVE",
"298 612 OFFCURVE",
"314 658 CURVE SMOOTH",
"317 668 OFFCURVE",
"315 673 OFFCURVE",
"308 673 CURVE SMOOTH",
"268 673 OFFCURVE",
"227 673 OFFCURVE",
"187 673 CURVE SMOOTH",
"179 673 OFFCURVE",
"166 667 OFFCURVE",
"163 658 CURVE SMOOTH",
"133 587 OFFCURVE",
"104 470 OFFCURVE",
"79 351 CURVE SMOOTH",
"52 219 OFFCURVE",
"30 86 OFFCURVE",
"23 14 CURVE SMOOTH",
"21 1 OFFCURVE",
"33 0 OFFCURVE",
"43 0 CURVE SMOOTH"
);
}
);
width = 610;
}
);
leftKerningGroup = H;
note = H;
rightKerningGroup = H;
unicode = 0048;
},
{
glyphname = I;
lastChange = "2021-06-09 01:55:36 +0000";
layers = (
{
background = {
paths = (
{
closed = 1;
nodes = (
"255 669 LINE SMOOTH",
"256 671 OFFCURVE",
"254 673 OFFCURVE",
"252 673 CURVE SMOOTH",
"226 673 LINE SMOOTH",
"224 673 OFFCURVE",
"223 671 OFFCURVE",
"222 669 CURVE SMOOTH",
"81 4 LINE SMOOTH",
"80 1 OFFCURVE",
"81 0 OFFCURVE",
"83 0 CURVE SMOOTH",
"109 0 LINE SMOOTH",
"111 0 OFFCURVE",
"113 1 OFFCURVE",
"114 4 CURVE SMOOTH"
);
}
);
};
hints = (
{
horizontal = 1;
place = "{3, 21}";
target = up;
type = BottomGhost;
},
{
horizontal = 1;
place = "{672, -20}";
target = down;
type = TopGhost;
},
{
place = "{79, 32}";
type = Stem;
}
);
layerId = "707362F1-A677-446A-8636-E10BE3A7FAFF";
paths = (
{
closed = 1;
nodes = (
"254 669 LINE SMOOTH",
"255 671 OFFCURVE",
"253 673 OFFCURVE",
"251 673 CURVE SMOOTH",
"225 673 LINE SMOOTH",
"223 673 OFFCURVE",
"222 671 OFFCURVE",
"221 669 CURVE SMOOTH",
"80 4 LINE SMOOTH",
"79 1 OFFCURVE",
"80 0 OFFCURVE",
"82 0 CURVE SMOOTH",
"108 0 LINE SMOOTH",
"110 0 OFFCURVE",
"112 1 OFFCURVE",
"113 4 CURVE SMOOTH"
);
}
);
width = 334;
},
{
background = {
paths = (
{
closed = 1;
nodes = (
"341 658 LINE SMOOTH",
"343 667 OFFCURVE",
"337 673 OFFCURVE",
"329 673 CURVE SMOOTH",
"209 673 LINE SMOOTH",
"199 673 OFFCURVE",
"192 667 OFFCURVE",
"190 658 CURVE SMOOTH",
"53 14 LINE SMOOTH",
"51 6 OFFCURVE",
"56 0 OFFCURVE",
"66 0 CURVE SMOOTH",
"186 0 LINE SMOOTH",
"194 0 OFFCURVE",
"202 6 OFFCURVE",
"204 14 CURVE SMOOTH"
);
}
);
};
layerId = "D1BC8BBB-1669-4C46-BC21-42BF6808B2B9";
paths = (
{
closed = 1;
nodes = (
"341 658 LINE SMOOTH",
"343 667 OFFCURVE",
"337 673 OFFCURVE",
"329 673 CURVE SMOOTH",
"209 673 LINE SMOOTH",
"199 673 OFFCURVE",
"192 667 OFFCURVE",
"190 658 CURVE SMOOTH",
"53 14 LINE SMOOTH",
"51 6 OFFCURVE",
"56 0 OFFCURVE",
"66 0 CURVE SMOOTH",
"186 0 LINE SMOOTH",
"194 0 OFFCURVE",
"202 6 OFFCURVE",
"204 14 CURVE SMOOTH"
);
}
);
width = 251;
}
);
leftKerningGroup = H;
note = I;
rightKerningGroup = H;
unicode = 0049;
},
{
glyphname = J;
lastChange = "2021-06-09 01:55:40 +0000";
layers = (
{
background = {
paths = (
{
closed = 1;
nodes = (
"367 669 LINE SMOOTH",
"368 671 OFFCURVE",
"367 673 OFFCURVE",
"365 673 CURVE SMOOTH",
"339 673 LINE SMOOTH",
"336 673 OFFCURVE",
"335 671 OFFCURVE",
"334 669 CURVE SMOOTH",
"222 138 LINE SMOOTH",
"203 52 OFFCURVE",
"166 27 OFFCURVE",
"107 27 CURVE SMOOTH",
"83 27 OFFCURVE",
"58 27 OFFCURVE",
"34 27 CURVE SMOOTH",
"28 27 OFFCURVE",
"26 26 OFFCURVE",
"25 22 CURVE SMOOTH",
"21 4 LINE SMOOTH",
"20 1 OFFCURVE",
"21 0 OFFCURVE",
"26 0 CURVE SMOOTH",
"103 -1 LINE SMOOTH",
"192 -2 OFFCURVE",
"232 34 OFFCURVE",
"261 168 CURVE SMOOTH"
);
}
);
};
hints = (
{
horizontal = 1;
place = "{-1, 26}";
type = Stem;
},
{
horizontal = 1;
place = "{672, -20}";
target = down;
type = TopGhost;
},
{
place = "{191, 32}";
type = Stem;
}
);
layerId = "707362F1-A677-446A-8636-E10BE3A7FAFF";
paths = (
{
closed = 1;
nodes = (
"366 669 LINE SMOOTH",
"367 671 OFFCURVE",
"366 673 OFFCURVE",
"364 673 CURVE SMOOTH",
"338 673 LINE SMOOTH",
"335 673 OFFCURVE",
"334 671 OFFCURVE",
"333 669 CURVE SMOOTH",
"221 138 LINE SMOOTH",
"202 52 OFFCURVE",
"165 27 OFFCURVE",
"106 27 CURVE SMOOTH",
"82 27 OFFCURVE",
"57 27 OFFCURVE",
"33 27 CURVE SMOOTH",
"27 27 OFFCURVE",
"25 26 OFFCURVE",
"24 22 CURVE SMOOTH",
"20 4 LINE SMOOTH",
"19 1 OFFCURVE",
"20 0 OFFCURVE",
"25 0 CURVE SMOOTH",
"102 -1 LINE SMOOTH",
"191 -2 OFFCURVE",
"231 34 OFFCURVE",
"260 168 CURVE SMOOTH"
);
}
);
width = 436;
},
{
background = {
paths = (
{
closed = 1;
nodes = (
"421 658 LINE SMOOTH",
"423 667 OFFCURVE",
"416 673 OFFCURVE",
"409 673 CURVE SMOOTH",
"287 673 LINE SMOOTH",
"279 673 OFFCURVE",
"272 667 OFFCURVE",
"270 658 CURVE SMOOTH",
"168 178 LINE SMOOTH",
"156 126 OFFCURVE",
"146 113 OFFCURVE",
"109 113 CURVE SMOOTH",
"95 113 OFFCURVE",
"60 116 OFFCURVE",
"45 117 CURVE SMOOTH",
"38 118 OFFCURVE",
"34 114 OFFCURVE",
"32 104 CURVE SMOOTH",
"14 19 LINE SMOOTH",
"11 4 OFFCURVE",
"36 0 OFFCURVE",
"50 0 CURVE SMOOTH",
"124 0 LINE SMOOTH",
"240 0 OFFCURVE",
"290 44 OFFCURVE",
"320 184 CURVE SMOOTH"
);
}
);
};
layerId = "D1BC8BBB-1669-4C46-BC21-42BF6808B2B9";
paths = (
{
closed = 1;
nodes = (
"421 658 LINE SMOOTH",
"423 667 OFFCURVE",
"416 673 OFFCURVE",
"409 673 CURVE SMOOTH",
"287 673 LINE SMOOTH",
"279 673 OFFCURVE",
"272 667 OFFCURVE",
"270 658 CURVE SMOOTH",
"168 178 LINE SMOOTH",
"156 126 OFFCURVE",
"146 113 OFFCURVE",
"109 113 CURVE SMOOTH",
"95 113 OFFCURVE",
"60 116 OFFCURVE",
"45 117 CURVE SMOOTH",
"38 118 OFFCURVE",
"34 114 OFFCURVE",
"32 104 CURVE SMOOTH",
"14 19 LINE SMOOTH",
"11 4 OFFCURVE",
"36 0 OFFCURVE",
"50 0 CURVE SMOOTH",
"124 0 LINE SMOOTH",
"240 0 OFFCURVE",
"290 44 OFFCURVE",
"320 184 CURVE SMOOTH"
);
}
);
width = 321;
}
);
leftKerningGroup = J;
note = J;
rightKerningGroup = H;
unicode = 004A;
},
{
glyphname = K;
lastChange = "2021-06-09 01:55:45 +0000";
layers = (
{
background = {
paths = (
{
closed = 1;
nodes = (
"82 0 OFFCURVE",
"91 0 OFFCURVE",
"99 0 CURVE SMOOTH",
"102 0 OFFCURVE",
"103 1 OFFCURVE",
"104 4 CURVE SMOOTH",
"126 108 OFFCURVE",
"148 213 OFFCURVE",
"170 317 CURVE SMOOTH",
"172 324 OFFCURVE",
"179 324 OFFCURVE",
"179 324 CURVE",
"215 324 OFFCURVE",
"252 324 OFFCURVE",
"288 324 CURVE SMOOTH",
"292 324 OFFCURVE",
"298 323 OFFCURVE",
"297 313 CURVE SMOOTH",
"289 234 OFFCURVE",
"323 99 OFFCURVE",
"374 46 CURVE SMOOTH",
"401 18 OFFCURVE",
"438 0 OFFCURVE",
"487 0 CURVE SMOOTH",
"490 0 OFFCURVE",
"490 1 OFFCURVE",
"491 5 CURVE SMOOTH",
"495 24 LINE SMOOTH",
"496 26 OFFCURVE",
"491 28 OFFCURVE",
"488 28 CURVE SMOOTH",
"454 28 OFFCURVE",
"425 44 OFFCURVE",
"401 68 CURVE SMOOTH",
"356 119 OFFCURVE",
"320 247 OFFCURVE",
"331 327 CURVE SMOOTH",
"332 333 OFFCURVE",
"333 340 OFFCURVE",
"342 352 CURVE SMOOTH",
"418 458 OFFCURVE",
"495 563 OFFCURVE",
"571 669 CURVE",
"572 670 OFFCURVE",
"571 673 OFFCURVE",
"568 673 CURVE SMOOTH",
"559 673 OFFCURVE",
"551 673 OFFCURVE",
"542 673 CURVE SMOOTH",
"540 673 OFFCURVE",
"539 670 OFFCURVE",
"538 669 CURVE",
"464 567 OFFCURVE",
"390 465 OFFCURVE",
"315 363 CURVE",
"310 358 OFFCURVE",
"305 354 OFFCURVE",
"295 354 CURVE SMOOTH",
"185 354 LINE SMOOTH",
"178 354 OFFCURVE",
"179 358 OFFCURVE",
"180 362 CURVE SMOOTH",
"202 464 OFFCURVE",
"224 567 OFFCURVE",
"245 669 CURVE SMOOTH",
"246 671 OFFCURVE",
"245 673 OFFCURVE",
"242 673 CURVE SMOOTH",
"234 673 OFFCURVE",
"225 673 OFFCURVE",
"217 673 CURVE SMOOTH",
"214 673 OFFCURVE",
"213 671 OFFCURVE",
"212 669 CURVE SMOOTH",
"165 447 OFFCURVE",
"118 226 OFFCURVE",
"71 4 CURVE SMOOTH",
"70 1 OFFCURVE",
"71 0 OFFCURVE",
"74 0 CURVE SMOOTH"
);
}
);
};
hints = (
{
horizontal = 1;
place = "{-1, 27}";
type = Stem;
},
{
horizontal = 1;
place = "{323, 29}";
type = Stem;
},
{
horizontal = 1;
place = "{672, -20}";
target = down;
type = TopGhost;
},
{
place = "{59, 32}";
type = Stem;
},
{
place = "{218, 31}";
type = Stem;
}
);
layerId = "707362F1-A677-446A-8636-E10BE3A7FAFF";
paths = (
{
closed = 1;
nodes = (
"81 0 OFFCURVE",
"90 0 OFFCURVE",
"98 0 CURVE SMOOTH",
"101 0 OFFCURVE",
"102 1 OFFCURVE",
"103 4 CURVE SMOOTH",
"125 108 OFFCURVE",
"147 213 OFFCURVE",
"169 317 CURVE SMOOTH",
"171 324 OFFCURVE",
"178 324 OFFCURVE",
"178 324 CURVE",
"214 324 OFFCURVE",
"251 324 OFFCURVE",
"287 324 CURVE SMOOTH",
"291 324 OFFCURVE",
"297 323 OFFCURVE",
"296 313 CURVE SMOOTH",
"288 234 OFFCURVE",
"322 99 OFFCURVE",
"373 46 CURVE SMOOTH",
"400 18 OFFCURVE",
"437 0 OFFCURVE",
"486 0 CURVE SMOOTH",
"489 0 OFFCURVE",
"489 1 OFFCURVE",
"490 5 CURVE SMOOTH",
"494 24 LINE SMOOTH",
"495 26 OFFCURVE",
"490 28 OFFCURVE",
"487 28 CURVE SMOOTH",
"453 28 OFFCURVE",
"424 44 OFFCURVE",
"400 68 CURVE SMOOTH",
"355 119 OFFCURVE",
"319 247 OFFCURVE",
"330 327 CURVE SMOOTH",
"331 333 OFFCURVE",
"332 340 OFFCURVE",
"341 352 CURVE SMOOTH",
"417 458 OFFCURVE",
"494 563 OFFCURVE",
"570 669 CURVE",
"571 670 OFFCURVE",
"570 673 OFFCURVE",
"567 673 CURVE SMOOTH",
"558 673 OFFCURVE",
"550 673 OFFCURVE",
"541 673 CURVE SMOOTH",
"539 673 OFFCURVE",
"538 670 OFFCURVE",
"537 669 CURVE",
"463 567 OFFCURVE",
"389 465 OFFCURVE",
"314 363 CURVE",
"309 358 OFFCURVE",
"304 354 OFFCURVE",
"294 354 CURVE SMOOTH",
"184 354 LINE SMOOTH",
"177 354 OFFCURVE",
"178 358 OFFCURVE",
"179 362 CURVE SMOOTH",
"201 464 OFFCURVE",
"223 567 OFFCURVE",
"244 669 CURVE SMOOTH",
"245 671 OFFCURVE",
"244 673 OFFCURVE",
"241 673 CURVE SMOOTH",
"233 673 OFFCURVE",
"224 673 OFFCURVE",
"216 673 CURVE SMOOTH",
"213 673 OFFCURVE",
"212 671 OFFCURVE",
"211 669 CURVE SMOOTH",
"164 447 OFFCURVE",
"117 226 OFFCURVE",
"70 4 CURVE SMOOTH",
"69 1 OFFCURVE",
"70 0 OFFCURVE",
"73 0 CURVE SMOOTH"
);
}
);
width = 590;
},
{
background = {
paths = (
{
closed = 1;
nodes = (
"52 0 OFFCURVE",
"180 0 OFFCURVE",
"188 0 CURVE SMOOTH",
"191 0 OFFCURVE",
"192 1 OFFCURVE",
"193 4 CURVE SMOOTH",
"215 108 OFFCURVE",
"219 127 OFFCURVE",
"241 231 CURVE SMOOTH",
"243 238 OFFCURVE",
"246 238 OFFCURVE",
"246 238 CURVE",
"247 238 OFFCURVE",
"246 238 OFFCURVE",
"248 238 CURVE SMOOTH",
"249 238 OFFCURVE",
"255 233 OFFCURVE",
"256 223 CURVE SMOOTH",
"268 149 OFFCURVE",
"294 92 OFFCURVE",
"333 55 CURVE SMOOTH",
"382 9 OFFCURVE",
"435 0 OFFCURVE",
"527 0 CURVE SMOOTH",
"530 0 OFFCURVE",
"530 1 OFFCURVE",
"531 5 CURVE SMOOTH",
"558 133 LINE SMOOTH",
"559 135 OFFCURVE",
"554 137 OFFCURVE",
"551 137 CURVE SMOOTH",
"502 137 OFFCURVE",
"473 155 OFFCURVE",
"452 182 CURVE SMOOTH",
"418 223 OFFCURVE",
"397 285 OFFCURVE",
"408 337 CURVE SMOOTH",
"410 346 OFFCURVE",
"412 355 OFFCURVE",
"420 367 CURVE SMOOTH",
"488 473 OFFCURVE",
"543 542 OFFCURVE",
"621 634 CURVE",
"641 665 OFFCURVE",
"648 673 OFFCURVE",
"632 673 CURVE SMOOTH",
"623 673 OFFCURVE",
"502 673 OFFCURVE",
"493 673 CURVE SMOOTH",
"485 673 OFFCURVE",
"479 671 OFFCURVE",
"469 659 CURVE",
"394 557 OFFCURVE",
"374 535 OFFCURVE",
"299 433 CURVE",
"295 428 OFFCURVE",
"290 422 OFFCURVE",
"287 422 CURVE SMOOTH",
"285 422 LINE SMOOTH",
"282 422 OFFCURVE",
"283 426 OFFCURVE",
"283 430 CURVE SMOOTH",
"305 532 OFFCURVE",
"313 567 OFFCURVE",
"334 669 CURVE SMOOTH",
"335 671 OFFCURVE",
"334 673 OFFCURVE",
"331 673 CURVE SMOOTH",
"323 673 OFFCURVE",
"195 673 OFFCURVE",
"187 673 CURVE SMOOTH",
"184 673 OFFCURVE",
"183 671 OFFCURVE",
"182 669 CURVE SMOOTH",
"135 447 OFFCURVE",
"88 226 OFFCURVE",
"41 4 CURVE SMOOTH",
"40 1 OFFCURVE",
"41 0 OFFCURVE",
"44 0 CURVE SMOOTH"
);
}
);
};
layerId = "D1BC8BBB-1669-4C46-BC21-42BF6808B2B9";
paths = (
{
closed = 1;
nodes = (
"52 0 OFFCURVE",
"180 0 OFFCURVE",
"188 0 CURVE SMOOTH",
"191 0 OFFCURVE",
"192 1 OFFCURVE",
"193 4 CURVE SMOOTH",
"215 108 OFFCURVE",
"219 127 OFFCURVE",
"241 231 CURVE SMOOTH",
"243 238 OFFCURVE",
"246 238 OFFCURVE",
"246 238 CURVE",
"247 238 OFFCURVE",
"246 238 OFFCURVE",
"248 238 CURVE SMOOTH",
"249 238 OFFCURVE",
"255 233 OFFCURVE",
"256 223 CURVE SMOOTH",
"268 149 OFFCURVE",
"294 92 OFFCURVE",
"333 55 CURVE SMOOTH",
"382 9 OFFCURVE",
"435 0 OFFCURVE",
"527 0 CURVE SMOOTH",
"530 0 OFFCURVE",
"530 1 OFFCURVE",
"531 5 CURVE SMOOTH",
"558 133 LINE SMOOTH",
"559 135 OFFCURVE",
"554 137 OFFCURVE",
"551 137 CURVE SMOOTH",
"502 137 OFFCURVE",
"473 155 OFFCURVE",
"452 182 CURVE SMOOTH",
"418 223 OFFCURVE",
"397 285 OFFCURVE",
"408 337 CURVE SMOOTH",
"410 346 OFFCURVE",
"412 355 OFFCURVE",
"420 367 CURVE SMOOTH",
"488 473 OFFCURVE",
"543 542 OFFCURVE",
"621 634 CURVE",
"641 665 OFFCURVE",
"648 673 OFFCURVE",
"632 673 CURVE SMOOTH",
"623 673 OFFCURVE",
"502 673 OFFCURVE",
"493 673 CURVE SMOOTH",
"485 673 OFFCURVE",
"479 671 OFFCURVE",
"469 659 CURVE",
"394 557 OFFCURVE",
"374 535 OFFCURVE",
"299 433 CURVE",
"295 428 OFFCURVE",
"290 422 OFFCURVE",
"287 422 CURVE SMOOTH",
"285 422 LINE SMOOTH",
"282 422 OFFCURVE",
"283 426 OFFCURVE",
"283 430 CURVE SMOOTH",
"305 532 OFFCURVE",
"313 567 OFFCURVE",
"334 669 CURVE SMOOTH",
"335 671 OFFCURVE",
"334 673 OFFCURVE",
"331 673 CURVE SMOOTH",
"323 673 OFFCURVE",
"195 673 OFFCURVE",
"187 673 CURVE SMOOTH",
"184 673 OFFCURVE",
"183 671 OFFCURVE",
"182 669 CURVE SMOOTH",
"135 447 OFFCURVE",
"88 226 OFFCURVE",
"41 4 CURVE SMOOTH",
"40 1 OFFCURVE",
"41 0 OFFCURVE",
"44 0 CURVE SMOOTH"
);
}
);
width = 555;
}
);
leftKerningGroup = H;
note = K;
rightKerningGroup = K;
unicode = 004B;
},
{
glyphname = L;
lastChange = "2021-06-09 01:55:49 +0000";
layers = (
{
background = {
paths = (
{
closed = 1;
nodes = (
"386 0 LINE SMOOTH",
"389 0 OFFCURVE",
"390 1 OFFCURVE",
"391 4 CURVE SMOOTH",
"396 26 LINE SMOOTH",
"396 28 OFFCURVE",
"395 29 OFFCURVE",
"392 29 CURVE SMOOTH",
"126 29 LINE SMOOTH",
"119 29 OFFCURVE",
"120 32 OFFCURVE",
"121 38 CURVE SMOOTH",
"255 669 LINE SMOOTH",
"256 671 OFFCURVE",
"254 673 OFFCURVE",
"252 673 CURVE SMOOTH",
"226 673 LINE SMOOTH",
"224 673 OFFCURVE",
"223 671 OFFCURVE",
"222 669 CURVE SMOOTH",
"81 4 LINE SMOOTH",
"80 1 OFFCURVE",
"81 0 OFFCURVE",
"83 0 CURVE SMOOTH"
);
}
);
};
hints = (
{
horizontal = 1;
place = "{-1, 28}";
type = Stem;
},
{
horizontal = 1;
place = "{672, -20}";
target = down;
type = TopGhost;
},
{
place = "{79, 32}";
type = Stem;
}
);
layerId = "707362F1-A677-446A-8636-E10BE3A7FAFF";
paths = (
{
closed = 1;
nodes = (
"385 0 LINE SMOOTH",
"388 0 OFFCURVE",
"389 1 OFFCURVE",
"390 4 CURVE SMOOTH",
"395 26 LINE SMOOTH",
"395 28 OFFCURVE",
"394 29 OFFCURVE",
"391 29 CURVE SMOOTH",
"125 29 LINE SMOOTH",
"118 29 OFFCURVE",
"119 32 OFFCURVE",
"120 38 CURVE SMOOTH",
"254 669 LINE SMOOTH",
"255 671 OFFCURVE",
"253 673 OFFCURVE",
"251 673 CURVE SMOOTH",
"225 673 LINE SMOOTH",
"223 673 OFFCURVE",
"222 671 OFFCURVE",
"221 669 CURVE SMOOTH",
"80 4 LINE SMOOTH",
"79 1 OFFCURVE",
"80 0 OFFCURVE",
"82 0 CURVE SMOOTH"
);
}
);
width = 430;
},
{
background = {
paths = (
{
closed = 1;
nodes = (
"391 0 LINE SMOOTH",
"412 0 OFFCURVE",
"413 0 OFFCURVE",
"418 22 CURVE SMOOTH",
"433 94 LINE SMOOTH",
"437 114 OFFCURVE",
"438 116 OFFCURVE",
"417 116 CURVE SMOOTH",
"225 116 LINE SMOOTH",
"216 116 OFFCURVE",
"216 117 OFFCURVE",
"218 125 CURVE SMOOTH",
"330 654 LINE SMOOTH",
"333 669 OFFCURVE",
"331 673 OFFCURVE",
"315 673 CURVE SMOOTH",
"199 673 LINE SMOOTH",
"189 673 OFFCURVE",
"182 667 OFFCURVE",
"180 658 CURVE SMOOTH",
"43 14 LINE SMOOTH",
"41 6 OFFCURVE",
"46 0 OFFCURVE",
"56 0 CURVE SMOOTH"
);
}
);
};
layerId = "D1BC8BBB-1669-4C46-BC21-42BF6808B2B9";
paths = (
{
closed = 1;
nodes = (
"391 0 LINE SMOOTH",
"412 0 OFFCURVE",
"413 0 OFFCURVE",
"418 22 CURVE SMOOTH",
"433 94 LINE SMOOTH",
"437 114 OFFCURVE",
"438 116 OFFCURVE",
"417 116 CURVE SMOOTH",
"225 116 LINE SMOOTH",
"216 116 OFFCURVE",
"216 117 OFFCURVE",
"218 125 CURVE SMOOTH",
"330 654 LINE SMOOTH",
"333 669 OFFCURVE",
"331 673 OFFCURVE",
"315 673 CURVE SMOOTH",
"199 673 LINE SMOOTH",
"189 673 OFFCURVE",
"182 667 OFFCURVE",
"180 658 CURVE SMOOTH",
"43 14 LINE SMOOTH",
"41 6 OFFCURVE",
"46 0 OFFCURVE",
"56 0 CURVE SMOOTH"
);
}
);
width = 433;
}
);
leftKerningGroup = H;
note = L;
rightKerningGroup = L;
unicode = 004C;
},
{
glyphname = M;
lastChange = "2021-06-09 02:09:11 +0000";
layers = (
{
background = {
paths = (
{
closed = 1;
nodes = (
"242 673 LINE SMOOTH",
"240 673 OFFCURVE",
"239 671 OFFCURVE",
"238 669 CURVE SMOOTH",
"194 533 OFFCURVE",
"114 257 OFFCURVE",
"60 4 CURVE SMOOTH",
"59 1 OFFCURVE",
"60 0 OFFCURVE",
"63 0 CURVE SMOOTH",
"88 0 LINE SMOOTH",
"90 0 OFFCURVE",
"92 1 OFFCURVE",
"93 4 CURVE SMOOTH",
"132 186 OFFCURVE",
"206 458 OFFCURVE",
"245 588 CURVE SMOOTH",
"248 595 OFFCURVE",
"257 595 OFFCURVE",
"260 588 CURVE SMOOTH",
"372 278 LINE SMOOTH",
"373 275 OFFCURVE",
"375 274 OFFCURVE",
"378 274 CURVE SMOOTH",
"400 274 LINE SMOOTH",
"404 274 OFFCURVE",
"407 276 OFFCURVE",
"410 280 CURVE SMOOTH",
"652 589 LINE SMOOTH",
"658 596 OFFCURVE",
"667 599 OFFCURVE",
"667 590 CURVE",
"654 464 OFFCURVE",
"604 160 OFFCURVE",
"572 8 CURVE SMOOTH",
"570 1 OFFCURVE",
"572 0 OFFCURVE",
"573 0 CURVE SMOOTH",
"599 0 LINE SMOOTH",
"602 0 OFFCURVE",
"603 1 OFFCURVE",
"604 4 CURVE SMOOTH",
"660 267 OFFCURVE",
"695 536 OFFCURVE",
"708 669 CURVE SMOOTH",
"709 671 OFFCURVE",
"708 673 OFFCURVE",
"706 673 CURVE SMOOTH",
"682 673 LINE SMOOTH",
"680 673 OFFCURVE",
"677 670 OFFCURVE",
"674 667 CURVE",
"405 321 LINE",
"401 314 OFFCURVE",
"396 315 OFFCURVE",
"394 321 CURVE SMOOTH",
"271 669 LINE",
"269 670 OFFCURVE",
"270 673 OFFCURVE",
"268 673 CURVE SMOOTH"
);
}
);
};
hints = (
{
horizontal = 1;
place = "{3, 21}";
target = up;
type = BottomGhost;
},
{
horizontal = 1;
place = "{273, 35}";
type = Stem;
},
{
horizontal = 1;
place = "{603, 68}";
type = Stem;
},
{
horizontal = 1;
place = "{672, -20}";
target = down;
type = TopGhost;
},
{
place = "{98, 32}";
type = Stem;
},
{
place = "{536, 32}";
type = Stem;
}
);
layerId = "707362F1-A677-446A-8636-E10BE3A7FAFF";
paths = (
{
closed = 1;
nodes = (
"88 0 LINE SMOOTH",
"90 0 OFFCURVE",
"92 1 OFFCURVE",
"93 4 CURVE SMOOTH",
"132 186 OFFCURVE",
"206 458 OFFCURVE",
"245 588 CURVE SMOOTH",
"248 595 OFFCURVE",
"257 595 OFFCURVE",
"260 588 CURVE SMOOTH",
"372 278 LINE SMOOTH",
"373 275 OFFCURVE",
"375 274 OFFCURVE",
"378 274 CURVE SMOOTH",
"400 274 LINE SMOOTH",
"404 274 OFFCURVE",
"407 276 OFFCURVE",
"410 280 CURVE SMOOTH",
"652 589 LINE SMOOTH",
"660 598 OFFCURVE",
"668 597 OFFCURVE",
"667 587 CURVE SMOOTH",
"654 464 OFFCURVE",
"604 161 OFFCURVE",
"571 6 CURVE SMOOTH",
"570 2 OFFCURVE",
"572 0 OFFCURVE",
"576 0 CURVE SMOOTH",
"598 0 LINE SMOOTH",
"602 0 OFFCURVE",
"603 1 OFFCURVE",
"604 5 CURVE SMOOTH",
"660 267 OFFCURVE",
"695 536 OFFCURVE",
"708 666 CURVE SMOOTH",
"709 671 OFFCURVE",
"708 673 OFFCURVE",
"703 673 CURVE SMOOTH",
"685 673 LINE SMOOTH",
"681 673 OFFCURVE",
"678 672 OFFCURVE",
"674 667 CURVE SMOOTH",
"405 321 LINE",
"401 314 OFFCURVE",
"396 315 OFFCURVE",
"394 321 CURVE SMOOTH",
"353 437 OFFCURVE",
"311 555 OFFCURVE",
"273 665 CURVE SMOOTH",
"272 669 OFFCURVE",
"269 673 OFFCURVE",
"265 673 CURVE SMOOTH",
"244 673 LINE SMOOTH",
"241 673 OFFCURVE",
"239 672 OFFCURVE",
"238 668 CURVE SMOOTH",
"193 533 OFFCURVE",
"114 257 OFFCURVE",
"60 5 CURVE SMOOTH",
"59 1 OFFCURVE",
"60 0 OFFCURVE",
"64 0 CURVE SMOOTH"
);
}
);
width = 768;
},
{
background = {
paths = (
{
closed = 1;
nodes = (
"233 673 LINE SMOOTH",
"222 673 OFFCURVE",
"219 668 OFFCURVE",
"215 658 CURVE SMOOTH",
"154 493 OFFCURVE",
"78 200 OFFCURVE",
"38 14 CURVE SMOOTH",
"35 1 OFFCURVE",
"46 0 OFFCURVE",
"54 0 CURVE SMOOTH",
"182 0 LINE SMOOTH",
"184 0 OFFCURVE",
"186 1 OFFCURVE",
"187 4 CURVE SMOOTH",
"226 186 OFFCURVE",
"242 247 OFFCURVE",
"276 362 CURVE",
"277 367 OFFCURVE",
"282 372 OFFCURVE",
"285 366 CURVE SMOOTH",
"349 215 LINE SMOOTH",
"350 212 OFFCURVE",
"352 211 OFFCURVE",
"355 211 CURVE SMOOTH",
"402 211 LINE SMOOTH",
"406 211 OFFCURVE",
"407 213 OFFCURVE",
"411 217 CURVE SMOOTH",
"541 367 LINE SMOOTH",
"546 373 OFFCURVE",
"551 376 OFFCURVE",
"551 367 CURVE",
"534 250 OFFCURVE",
"512 123 OFFCURVE",
"489 13 CURVE SMOOTH",
"487 6 OFFCURVE",
"492 0 OFFCURVE",
"493 0 CURVE SMOOTH",
"615 0 LINE SMOOTH",
"624 0 OFFCURVE",
"636 0 OFFCURVE",
"639 14 CURVE SMOOTH",
"678 197 OFFCURVE",
"724 493 OFFCURVE",
"734 658 CURVE SMOOTH",
"735 667 OFFCURVE",
"731 673 OFFCURVE",
"723 673 CURVE SMOOTH",
"653 673 LINE SMOOTH",
"639 673 OFFCURVE",
"636 673 OFFCURVE",
"628 662 CURVE",
"434 426 LINE",
"429 419 OFFCURVE",
"419 421 OFFCURVE",
"418 426 CURVE SMOOTH",
"326 662 LINE",
"323 671 OFFCURVE",
"318 673 OFFCURVE",
"304 673 CURVE SMOOTH"
);
}
);
};
layerId = "D1BC8BBB-1669-4C46-BC21-42BF6808B2B9";
paths = (
{
closed = 1;
nodes = (
"176 0 LINE SMOOTH",
"184 0 OFFCURVE",
"186 1 OFFCURVE",
"188 10 CURVE SMOOTH",
"226 186 OFFCURVE",
"242 247 OFFCURVE",
"276 362 CURVE SMOOTH",
"278 370 OFFCURVE",
"283 370 OFFCURVE",
"286 363 CURVE SMOOTH",
"348 217 LINE SMOOTH",
"350 212 OFFCURVE",
"352 211 OFFCURVE",
"357 211 CURVE SMOOTH",
"398 211 LINE SMOOTH",
"404 211 OFFCURVE",
"406 212 OFFCURVE",
"410 216 CURVE SMOOTH",
"541 367 LINE SMOOTH",
"546 373 OFFCURVE",
"551 376 OFFCURVE",
"551 367 CURVE",
"534 250 OFFCURVE",
"512 123 OFFCURVE",
"489 16 CURVE SMOOTH",
"487 6 OFFCURVE",
"492 0 OFFCURVE",
"500 0 CURVE SMOOTH",
"615 0 LINE SMOOTH",
"632 0 OFFCURVE",
"637 5 OFFCURVE",
"640 18 CURVE SMOOTH",
"678 197 OFFCURVE",
"724 493 OFFCURVE",
"734 658 CURVE SMOOTH",
"735 667 OFFCURVE",
"731 673 OFFCURVE",
"723 673 CURVE SMOOTH",
"653 673 LINE SMOOTH",
"639 673 OFFCURVE",
"635 672 OFFCURVE",
"628 662 CURVE SMOOTH",
"434 426 LINE SMOOTH",
"429 420 OFFCURVE",
"421 420 OFFCURVE",
"417 429 CURVE SMOOTH",
"387 507 OFFCURVE",
"356 584 OFFCURVE",
"326 662 CURVE SMOOTH",
"323 671 OFFCURVE",
"318 673 OFFCURVE",
"304 673 CURVE SMOOTH",
"233 673 LINE SMOOTH",
"222 673 OFFCURVE",
"219 668 OFFCURVE",
"215 658 CURVE SMOOTH",
"154 493 OFFCURVE",
"78 200 OFFCURVE",
"39 18 CURVE SMOOTH",
"36 6 OFFCURVE",
"39 0 OFFCURVE",
"51 0 CURVE SMOOTH"
);
}
);
width = 671;
}
);
leftKerningGroup = M;
note = M;
rightKerningGroup = M;
unicode = 004D;
},
{
glyphname = N;
lastChange = "2021-06-09 01:55:54 +0000";
layers = (
{
background = {
paths = (
{
closed = 1;
nodes = (
"248 668 LINE",
"247 671 OFFCURVE",
"246 673 OFFCURVE",
"244 673 CURVE SMOOTH",
"221 673 LINE SMOOTH",
"219 673 OFFCURVE",
"217 671 OFFCURVE",
"216 669 CURVE SMOOTH",
"172 540 OFFCURVE",
"84 139 OFFCURVE",
"73 4 CURVE SMOOTH",
"72 1 OFFCURVE",
"73 0 OFFCURVE",
"76 0 CURVE SMOOTH",
"101 0 LINE SMOOTH",
"104 0 OFFCURVE",
"105 1 OFFCURVE",
"106 6 CURVE",
"115 143 OFFCURVE",
"190 470 OFFCURVE",
"231 596 CURVE SMOOTH",
"233 602 OFFCURVE",
"239 602 OFFCURVE",
"240 597 CURVE",
"486 4 LINE",
"486 1 OFFCURVE",
"487 0 OFFCURVE",
"490 0 CURVE SMOOTH",
"510 0 LINE SMOOTH",
"513 0 OFFCURVE",
"516 1 OFFCURVE",
"517 4 CURVE SMOOTH",
"561 132 OFFCURVE",
"649 533 OFFCURVE",
"660 669 CURVE SMOOTH",
"661 671 OFFCURVE",
"660 673 OFFCURVE",
"657 673 CURVE SMOOTH",
"632 673 LINE SMOOTH",
"629 673 OFFCURVE",
"628 671 OFFCURVE",
"627 667 CURVE",
"618 531 OFFCURVE",
"545 208 OFFCURVE",
"504 80 CURVE SMOOTH",
"501 72 OFFCURVE",
"495 71 OFFCURVE",
"493 77 CURVE SMOOTH"
);
}
);
};
hints = (
{
horizontal = 1;
place = "{-9, 21}";
target = up;
type = BottomGhost;
},
{
horizontal = 1;
place = "{660, -20}";
target = down;
type = TopGhost;
},
{
place = "{60, 20}";
type = Stem;
},
{
place = "{473, 20}";
type = Stem;
}
);
layerId = "707362F1-A677-446A-8636-E10BE3A7FAFF";
paths = (
{
closed = 1;
nodes = (
"235 668 LINE",
"234 671 OFFCURVE",
"233 673 OFFCURVE",
"231 673 CURVE SMOOTH",
"208 673 LINE SMOOTH",
"206 673 OFFCURVE",
"204 671 OFFCURVE",
"203 669 CURVE SMOOTH",
"159 540 OFFCURVE",
"71 139 OFFCURVE",
"60 4 CURVE SMOOTH",
"59 1 OFFCURVE",
"60 0 OFFCURVE",
"63 0 CURVE SMOOTH",
"88 0 LINE SMOOTH",
"91 0 OFFCURVE",
"92 1 OFFCURVE",
"93 6 CURVE",
"102 143 OFFCURVE",
"177 470 OFFCURVE",
"218 596 CURVE SMOOTH",
"220 602 OFFCURVE",
"226 602 OFFCURVE",
"227 597 CURVE",
"473 4 LINE",
"473 1 OFFCURVE",
"474 0 OFFCURVE",
"477 0 CURVE SMOOTH",
"497 0 LINE SMOOTH",
"500 0 OFFCURVE",
"503 1 OFFCURVE",
"504 4 CURVE SMOOTH",
"548 132 OFFCURVE",
"636 533 OFFCURVE",
"647 669 CURVE SMOOTH",
"648 671 OFFCURVE",
"647 673 OFFCURVE",
"644 673 CURVE SMOOTH",
"619 673 LINE SMOOTH",
"616 673 OFFCURVE",
"615 671 OFFCURVE",
"614 667 CURVE",
"605 531 OFFCURVE",
"532 208 OFFCURVE",
"491 80 CURVE SMOOTH",
"488 72 OFFCURVE",
"482 71 OFFCURVE",
"480 77 CURVE SMOOTH"
);
}
);
width = 707;
},
{
background = {
paths = (
{
closed = 1;
nodes = (
"309 663 LINE",
"307 669 OFFCURVE",
"301 673 OFFCURVE",
"296 673 CURVE SMOOTH",
"223 673 LINE SMOOTH",
"215 673 OFFCURVE",
"203 667 OFFCURVE",
"199 658 CURVE SMOOTH",
"136 509 OFFCURVE",
"73 150 OFFCURVE",
"59 14 CURVE SMOOTH",
"57 1 OFFCURVE",
"69 0 OFFCURVE",
"79 0 CURVE SMOOTH",
"199 0 LINE SMOOTH",
"207 0 OFFCURVE",
"209 4 OFFCURVE",
"210 14 CURVE",
"216 85 OFFCURVE",
"230 173 OFFCURVE",
"269 363 CURVE SMOOTH",
"270 369 OFFCURVE",
"277 369 OFFCURVE",
"278 364 CURVE",
"441 18 LINE",
"445 7 OFFCURVE",
"450 0 OFFCURVE",
"456 0 CURVE SMOOTH",
"533 0 LINE SMOOTH",
"544 0 OFFCURVE",
"553 1 OFFCURVE",
"558 14 CURVE SMOOTH",
"604 150 OFFCURVE",
"692 509 OFFCURVE",
"693 658 CURVE SMOOTH",
"693 667 OFFCURVE",
"684 673 OFFCURVE",
"675 673 CURVE SMOOTH",
"552 673 LINE SMOOTH",
"546 673 OFFCURVE",
"543 668 OFFCURVE",
"542 658 CURVE",
"529 526 OFFCURVE",
"508 412 OFFCURVE",
"488 317 CURVE SMOOTH",
"487 309 OFFCURVE",
"477 309 OFFCURVE",
"474 315 CURVE SMOOTH"
);
}
);
};
layerId = "D1BC8BBB-1669-4C46-BC21-42BF6808B2B9";
paths = (
{
closed = 1;
nodes = (
"309 663 LINE",
"307 669 OFFCURVE",
"301 673 OFFCURVE",
"296 673 CURVE SMOOTH",
"223 673 LINE SMOOTH",
"215 673 OFFCURVE",
"203 667 OFFCURVE",
"199 658 CURVE SMOOTH",
"136 509 OFFCURVE",
"73 150 OFFCURVE",
"59 14 CURVE SMOOTH",
"57 1 OFFCURVE",
"69 0 OFFCURVE",
"79 0 CURVE SMOOTH",
"199 0 LINE SMOOTH",
"207 0 OFFCURVE",
"209 4 OFFCURVE",
"210 14 CURVE",
"216 85 OFFCURVE",
"230 173 OFFCURVE",
"269 363 CURVE SMOOTH",
"270 369 OFFCURVE",
"277 369 OFFCURVE",
"278 364 CURVE",
"441 18 LINE",
"445 7 OFFCURVE",
"450 0 OFFCURVE",
"456 0 CURVE SMOOTH",
"533 0 LINE SMOOTH",
"544 0 OFFCURVE",
"553 1 OFFCURVE",
"558 14 CURVE SMOOTH",
"604 150 OFFCURVE",
"692 509 OFFCURVE",
"693 658 CURVE SMOOTH",
"693 667 OFFCURVE",
"684 673 OFFCURVE",
"675 673 CURVE SMOOTH",
"552 673 LINE SMOOTH",
"546 673 OFFCURVE",
"543 668 OFFCURVE",
"542 658 CURVE",
"529 526 OFFCURVE",
"508 412 OFFCURVE",
"488 317 CURVE SMOOTH",
"487 309 OFFCURVE",
"477 309 OFFCURVE",
"474 315 CURVE SMOOTH"
);
}
);
width = 612;
}
);
leftKerningGroup = H;
note = N;
rightKerningGroup = H;
unicode = 004E;
},
